<?xml version="1.0" encoding="utf-8"?>
<!-- Generator: Adobe Illustrator 28.4.1, SVG Export Plug-In . SVG Version: 6.00 Build 0)  -->
<svg version="1.1" id="_x32_" xmlns="http://www.w3.org/2000/svg" xmlns:xlink="http://www.w3.org/1999/xlink" x="0px" y="0px"
	 viewBox="0 0 512 512" style="enable-background:new 0 0 512 512;" xml:space="preserve">
<g>
	<path d="M356.9,378.6c-8.8,57.3-41.6,74.2-82.8,44.2c-29.8,19.1-43.1,19.1-70.5-0.1c-32.2,28.9-85,12.9-83-43.9
		c-7.1-1.4-14.3-2.6-21.4-4.3c-36.2-8.8-57.1-34.1-59-71.1C34.3,187.1,115.7,88.1,227.1,75.9C342.5,63.2,450.4,144.6,469,258.6
		c2.1,12.8,3.2,25.8,3.1,38.8c-0.2,45.3-35.4,80.3-80.8,81.3C379.7,378.8,368.2,378.6,356.9,378.6z M369.6,355.5
		c5.2,0,10.4,0,15.6,0c40.8-0.1,65.5-25.6,63.8-66.6c-2.3-53.5-23.2-98.9-61.6-136.1c-56.8-55-145.2-70.7-214.6-38.3
		c-69.7,32.5-114.6,110-109.4,188.7c1.5,23,12.4,39.6,34.7,46.8c9.8,3.1,20.3,4.7,30.6,5.3c23,1.5,23.8,2.3,17.4,23.8
		c-3.1,10.6-2.5,22,7.3,28.2c6.5,4,16.5,6,23.8,4.1c11.2-2.8,15.2-13.1,14.7-24.6c-0.2-6.1-1.5-12.7,0.4-18
		c1.8-5.1,7.3-8.8,11.1-13.1c3.8,4.3,9.7,8,11,13c1.9,7.3,0,15.5,0.8,23.2c1.2,13.3,11.9,22.4,24.6,21.8
		c12.2-0.6,21.3-9.8,22.1-22.9c0.4-7.3-1.3-15.1,0.6-21.9c1.4-5,7.2-8.8,11-13.2c3.9,4.3,9.8,8,11.1,12.9c1.9,7.3,0.1,15.5,0.8,23.2
		c1.2,13.3,11.8,22.5,24.5,21.9c12.2-0.6,21.3-9.8,22.2-22.8c0.4-6,0.4-12.1,0.1-18.2c-0.6-11.9,4.2-18,16.7-17.2
		C355.7,355.8,362.7,355.5,369.6,355.5z"/>
	<path d="M303,220.9c-25.5,0-46.3,20.5-46.7,46c-0.4,26,20.6,47.3,46.6,47.3c25.5,0,46.3-20.5,46.7-46
		C350,242.2,329,220.9,303,220.9z M302.9,295.5c-15.6,0-28.2-12.8-28-28.4c0.2-15.3,12.7-27.6,28-27.6c15.6,0,28.2,12.8,28,28.4
		C330.7,283.2,318.3,295.5,302.9,295.5z"/>
	<path d="M174.3,220.9c-26.1,0-46.9,21.2-46.6,47.3c0.4,26.1,21.8,46.7,47.9,46c25.5-0.7,45.7-21.7,45.3-47.3
		C220.5,241.3,199.9,220.9,174.3,220.9z M175.1,295.5c-15.6,0.4-28.5-11.9-28.7-27.6c-0.2-15.6,12.3-28.4,27.9-28.4
		c15.3,0,27.7,12.2,27.9,27.6C202.5,282.5,190.4,295.1,175.1,295.5z"/>
	<path d="M238.8,322.6c-3.7,4.5-5.7,9.2-9.2,10.7c-4.5,2-11.6,3.5-14.7,1.3c-3.1-2.2-5-10.7-3.1-14.1c4.8-9.1,11.4-17.4,18.2-25.1
		c6.1-6.9,13.2-5.6,18.8,1.4c5.4,6.7,11.6,13.3,15.1,20.9c2.1,4.7,2,13.4-1,16.8c-5.6,6.4-12.5,2.9-17.4-3.4
		C243.6,328.7,241.7,326.3,238.8,322.6z"/>
	<path d="M185.8,191c0.4,8.6-0.3,17.4-11.6,17.5c-10.3,0.1-11.6-7.9-11.6-16.4c0-8.7,0.5-17.6,11.7-17.7
		C184.6,174.4,186.3,182.3,185.8,191z"/>
	<path d="M114,189.6c8.1,10.7,14.4,17.6,18.7,25.7c0.7,1.3-10,10.9-10.5,10.5c-7.2-5.7-14.2-12-19.4-19.5
		C101.7,204.7,108.2,197.9,114,189.6z"/>
	<path d="M382.6,207.3c-10.7,8-17.7,14.1-25.7,18.3c-1.4,0.7-10.8-10-10.4-10.4c5.8-7.1,12.2-14.1,19.6-19.4
		C367.5,194.8,374.3,201.4,382.6,207.3z"/>
	<path d="M98.7,279c-8.2,0.2-16.8-0.2-17.3-10.8c-0.6-10.6,7.3-12.3,15.9-12.2c8.6,0,17.9,0,18,11.5C115.5,278,107.1,279.3,98.7,279
		z"/>
	<path d="M291.5,191.4c-0.3-8.4,0.7-16.8,11.3-16.9c11.5-0.1,11.7,9.1,11.8,17.8c0,8.5-1.3,16.6-12,16.2
		C291.8,208.1,291.2,199.6,291.5,191.4z"/>
	<path d="M379.1,279c-8.3,0.2-16.7-0.4-17.1-11.1c-0.3-10.6,7.7-12,16.2-12c8.7,0,17.8,0.3,17.7,11.8
		C395.9,278.3,387.4,279.3,379.1,279z"/>
</g>
</svg>
