<?xml version="1.0" encoding="UTF-8"?>
<svg id="Layer_2" data-name="Layer 2" xmlns="http://www.w3.org/2000/svg" viewBox="0 0 355.03 349.03">
  <defs>
    <style>
      .cls-1 {
        fill: #201f1f;
        stroke-width: 0px;
      }
    </style>
  </defs>
  <g id="OBJECTS">
    <g>
      <g>
        <path class="cls-1" d="M150.24,10.16c-1.23-1.46-4.15-1.86-6.85-1.38.22-.49.38-1.02.46-1.59.26-1.86-.3-3.69-1.73-4.94-.87-.76-2,0-1.83,1.07.06.37.09.75.12,1.13-2.57,3.93-4.93,8.04-9.44,9.86-2.38.96-4.75,1.68-7.18,2.21,6.26-3.42,12.82-8.62,7.09-15.41-.49-.58-1.36-.2-1.58.42-2.31,6.57-6.6,11.68-11.81,15.92-4.16,2.01-8.27,4.13-12.31,6.36-.88.48-1.75.97-2.63,1.47-.11.04-.22.08-.32.13,3.89-4.04,6.44-9.43,5.55-14.94-1.03-6.37-7.25-13.32-14.01-9.25-4.17,2.51-5.62,9.72-.41,12.08,5.19,2.35,9.23-4.77,4.95-8.26-.23-.19-.67.06-.46.35.06.05.11.11.16.17-.25.05-.46.24-.43.59,0,.08,0,.16,0,.24-.15.11-.25.28-.27.51-.16,1.75-1.37,3.11-2.95,3.64-.72-.45-1.53-1.03-2.44-1.76-1.03-2.83,1.95-6.66,4.78-6.97,6.11-.67,9.51,5.79,9.53,11,.03,4.99-2.48,8.26-5.52,11.26.39-1.98-.07-3.98-2.06-5.24-2.38-1.5-6.44.02-6.06,3.23.26,2.18,3.24,3.61,4.54,1.89.5.44,1.3.98,1.29,1.42-.04,1.34-2.99,3.02-4.04,3.69-1.94,1.22-4,2.26-5.94,3.49-2.84,1.8-5.73,3.67-8.31,5.85,3.43-6.82,2.54-16-5.87-18.47-.47-.14-1.17.17-1.24.7-.86,6.34,4.94,15.21,2.24,21.18-1.85,2.04-4,3.82-6.11,5.56-4.95,4.08-9.73,8.43-13.87,13.33-.52.44-1.02.9-1.5,1.37-.29.29-.61.6-.95.93,2.99-4.81,5.11-11.16,2.78-15.05.14-.6.34-1.18.63-1.69.41-.7,1.09-1.42,1.9-1.63.64-.16,1.34-.03,1.83.42.19.18,1.26,2.41-.12,1.7-.73-.38-1.36.36-1.06,1.06.65,1.49,2.69.77,3.31-.39.93-1.71-.45-3.66-2.08-4.24-1.58-.56-3.15.08-4.22,1.25,0-2.31-.62-4.55-1.85-6.61-.32-.54-1.11-.67-1.56-.2-1.64,1.72-2.17,5-1.13,7.3-2.72-.72-6.61.2-6.21,3.74.32,2.86,4.33,4.5,5.71,1.59.05-.1,0-.26-.14-.25-2.5.3-2.78-6.09,1.88-3.01,2.96,1.96,2.51,6.66,1.91,9.53-.76,3.66-2.6,6.84-5.06,9.56.58-3.37.1-6.99-2.04-10.98-.28-.53-.98-.43-1.28,0-2.91,4.12-3.35,10.96,1.31,13.83-.24.71-.52,1.41-.83,2.11-2.41,2.59-4.45,5.66-6.38,8.48-.8,1.16-1.59,2.34-2.35,3.55,1.35-4.84,1.13-9.84-4.54-11.53-5.78-1.72-12.28,6.84-6.36,10.68,5.58,3.63,8.21-6.1,3-5.53-.04,0-.07.02-.11.03.06-.19.11-.37.17-.56.85-.39,1.87-.42,2.79.03.49.24.98.61,1.45,1.04.66,1.19.98,2.68.94,3.99,0,.26-.03.51-.06.76-.69,5.85-4.1,11.53-7.13,16.81.62-3.12.18-6.32-2.92-8.15-.32-.19-.77-.08-.95.25-1.03,1.84-1.36,3.89-.64,5.91.37,1.04,1.03,1.9,1.61,2.82.54.84.83,1.68,1,2.56-.1.18-.19.36-.29.54-2.55,4.88-4.69,9.62-6.29,14.59.4-6-.47-12.09-4.33-16.91-3.34-4.17-10.31-7.98-14.09-2.15-2.25,3.46-.73,10.51,4.51,9.54,3.5-.64,4.14-5.46.6-6.42-.56-.15-.91.65-.4.94-.64.19-1.29.39-1.93.58-.15-.26-.29-.52-.41-.81-.25-.64-.21-1.43-.43-2.07.12-.47.24-.93.36-1.4,1.66-1.6,5.56-.95,7.32.17,2.81,1.8,4.67,4.72,5.86,7.76,2,5.11,1.77,10.54,1.51,15.91-.01.06-.03.11-.04.17-.23-1.05-.65-2.05-1.16-2.86-.9-1.43-2.07-2.24-3.53-3.03-2.3-1.24-3.94-2.86-5.61-4.84-.43-.51-1.12-.15-1.32.35-1.05,2.57-.54,5.45,1.59,7.31,1.07.93,2.42,1.43,3.7,1.97,2.95,1.24,4.33,2.39,5.11,5.39-.88,3.13-1.54,6.37-2.15,9.53-.79,3.51-1.48,7.07-2.03,10.65-.8,4.68-1.4,9.38-1.89,14.11-.15.16-.27.36-.3.62-.2,1.6-.23,1.51-.03,2.5,0,.06,0,.12,0,.17,0,.23.06.4.15.55,0,.03.01.05.02.08.08.39.4.56.72.56,0,.18,0,.37.01.55,0,.28.46.37.51.07.04-.29.08-.58.12-.87.04-.05.08-.1.11-.16.24-.17.42-.42.47-.78,1.02-8.16,2.26-16.31,3.67-24.41.15-.89.33-1.78.52-2.67.7-1.25,1.84-2,3.5-1.61,1.02.24,2.07.28,3.1.08,2.97-.58,4.25-3.06,6.65-4.57.45-.28.51-1.01,0-1.28-4.04-2.08-9.21-1.17-12.03,2,.72-3.06,1.4-6.14,1.82-9.21.19-.47.37-.95.58-1.41.23-.52.49-1.03.75-1.53,3.19-4.22,7.9-6.94,12.7-3.96,1.17,1.06,1.82,2.56,1.85,4.24.02.94-.19,1.84-.51,2.72-.69.41-1.63.69-2.84.84.02-.14.07-.27.16-.4.44-.59-.05-1.38-.64-1.58-4.27-1.43-4.91,6.76,1.14,5.29,6.97-1.69,6.84-12.22.57-14.65-4.65-1.8-8.27.05-10.97,3.22,1.92-4.61,3.99-9.13,6.22-13.61.14-.02.27-.11.33-.29,2.54-7.98,9.72-3.1,15.14-5.35,2.44-1.01,3.89-3.42,3.53-5.93.09-.23.14-.48.13-.75-.01-.39-.43-.65-.78-.45-.94.55-1.57,1.4-2.68,1.71-.06.02-.12.01-.18.03-1.94-1.68-5.82-1.53-7.94-.76-.57.21-1.1.49-1.61.81.21-.34.41-.69.61-1.03,3.06-3.64,8.03-5.25,12.7-3.68,2.74.92,5.25,2.94,6.17,5.77.45,1.35.47,2.71.06,4.07-.66,3.01-2.14,3.42-4.44,1.22.4-.16.44-.71,0-.86-3.2-1.08-3.87,3.34-1.18,4.65,3.94,1.93,7.33-3.13,7.52-6.49.3-5.16-4.18-9.42-9.01-10.32-4.37-.82-8.15.86-10.8,3.9,1.45-2.48,2.9-4.96,4.51-7.35.26-.38.53-.75.8-1.13,1.6-1.84,3.11-3.72,4.38-5.65.81-1.04,1.6-2.09,2.34-3.16,1.63,1.65,4.18,1.63,6.43,1.29,1.72-.26,5.27-.82,6.42-2.54.1.06.21.12.31.18.7.45,1.57-.63.91-1.18-2.21-1.81-6.23-2.82-9.52-2.12.9-1,1.73-2.05,2.57-2.86,1.83-1.76,3.96-3.41,6.42-4.14,1.29-.38,2.61-.49,3.93-.33.74,0,1.44.16,2.09.52,1.63.35,2.11,1.44,1.48,3.24-2.53-2.24-5.07,1.17-3.7,3.79,2.21,4.24,7.59.86,7.67-2.99.12-5.9-6.81-7.94-11.5-6.76-.04.01-.09.03-.13.04,5.14-4.04,9.78-6.17,16.62-3.19,2.82,1.23,5.1,2.93,6.56,5.71.11.22.21.44.32.65-.02.03-.03.06-.03.09.06.73.4,1.41.86,2.02.22.72.38,1.45.44,2.22.3,1.09.19,2.15-.32,3.18-.05,2.18-1.2,2.68-3.43,1.54.15-.04.27-.15.31-.31,1-4.04-5.59-2.04-5.47,1.83.2,6.3,8.28,2.38,9.87-1.08.79-1.71,1.03-3.51.87-5.27.06.04.12.09.18.12,1.85,1.25,4.12,1.77,6.33,1.75.73,0,1.13-.78.8-1.4-1.69-3.19-5.04-5.08-8.61-4.99-1.53-3.11-4.19-5.77-7.17-7.19-4.72-2.25-9.4-2.35-13.45-.43.14-.12.27-.24.41-.36,2.14-1.86,4.44-3.62,6.59-5.51.01.08.13.14.2.07,1.2-1.18,2.42-2.35,3.75-3.38.13.03.27.04.42,0,4.38-1.11,9.76,1.37,13.91,2.63.41.12.91-.15,1.01-.57,1-4.3-3.25-6.89-7.1-6.94-.36,0-.71.01-1.06.04,5.57-3.26,11.06-6.62,16.62-9.86,2.98-1.05,7.56-2.33,10.7-1.05,0,0,0,.02.01.02-1.59-.25-3.55.75-3.82,2.9-.65,5.06,6.56,5.98,8.99,2.47,2.7-3.9-.53-8.74-4.81-9.27-.71-.09-1.46-.1-2.21-.06,1.79-.96,3.59-1.9,5.42-2.8.54-.24,1.07-.5,1.58-.78.04-.02.08-.04.12-.06.22,0,.42,0,.63,0,.37,2.27,3.05,3.79,4.88,4.97,2.69,1.72,5.71,2.88,8.81,3.59.81.18,1.41-.49,1.27-1.27-.8-4.42-6.97-8.94-12.09-8.97.15-.07.3-.15.46-.22,4.16.7,8.69-.73,12.42-2.51.13-.06.26-.14.39-.21.37,1.08,1.25,1.9,1.9,2.86.97,1.44,1.58,3.02,1.39,4.77-.17,1.6,1.97,1.76,2.72.74.94-1.29,1.58-2.86,1.66-4.46.04-.23.07-.46.1-.69.36-.69.51-1.52.4-2.27-.03-.19-.07-.37-.12-.55.84.35,1.77.53,2.59.53,1.58.01,3.7-.66,4.81-1.94.36-.22.69-.48.99-.79.1-.08.18-.17.25-.28.26-.32.49-.67.69-1.08.42-.88-.16-1.81-.98-1.9Z"/>
        <path class="cls-1" d="M146.97,6.02c.44.29,1.09.33,1.45-.11.26-.31.33-.75.25-1.14.05-.37-.13-.76-.62-.94-1.3-.48-2.24,1.42-1.09,2.19Z"/>
        <path class="cls-1" d="M148.17,16.58c-.4-.23-.84-.13-1.17.15-.42.35-.73.84-.65,1.4.02.17.1.33.2.47.26.98,1.65,1.25,2.23.32.49-.79.21-1.88-.6-2.34Z"/>
        <path class="cls-1" d="M156.46,9.9s-.02,0-.03,0c-.57-.26-1.21-.23-1.69.3-.52.56-.52,1.55.07,2.06.35.3.85.42,1.27.16.03-.02.06-.05.09-.07.22,0,.39-.06.59-.16.97-.52.7-1.98-.3-2.28Z"/>
      </g>
      <g>
        <path class="cls-1" d="M204.79,10.16c1.23-1.46,4.15-1.86,6.85-1.38-.22-.49-.38-1.02-.46-1.59-.26-1.86.3-3.69,1.73-4.94.87-.76,2,0,1.83,1.07-.06.37-.09.75-.12,1.13,2.57,3.93,4.93,8.04,9.44,9.86,2.38.96,4.75,1.68,7.18,2.21-6.26-3.42-12.82-8.62-7.09-15.41.49-.58,1.36-.2,1.58.42,2.31,6.57,6.6,11.68,11.81,15.92,4.16,2.01,8.27,4.13,12.31,6.36.88.48,1.75.97,2.63,1.47.11.04.22.08.32.13-3.89-4.04-6.44-9.43-5.55-14.94,1.03-6.37,7.25-13.32,14.01-9.25,4.17,2.51,5.62,9.72.41,12.08-5.19,2.35-9.23-4.77-4.95-8.26.23-.19.67.06.46.35-.06.05-.11.11-.16.17.25.05.46.24.43.59,0,.08,0,.16,0,.24.15.11.25.28.27.51.16,1.75,1.37,3.11,2.95,3.64.72-.45,1.53-1.03,2.44-1.76,1.03-2.83-1.95-6.66-4.78-6.97-6.11-.67-9.51,5.79-9.53,11-.03,4.99,2.48,8.26,5.52,11.26-.39-1.98.07-3.98,2.06-5.24,2.38-1.5,6.44.02,6.06,3.23-.26,2.18-3.24,3.61-4.54,1.89-.5.44-1.3.98-1.29,1.42.04,1.34,2.99,3.02,4.04,3.69,1.94,1.22,4,2.26,5.94,3.49,2.84,1.8,5.73,3.67,8.31,5.85-3.43-6.82-2.54-16,5.87-18.47.47-.14,1.17.17,1.24.7.86,6.34-4.94,15.21-2.24,21.18,1.85,2.04,4,3.82,6.11,5.56,4.95,4.08,9.73,8.43,13.87,13.33.52.44,1.02.9,1.5,1.37.29.29.61.6.95.93-2.99-4.81-5.11-11.16-2.78-15.05-.14-.6-.34-1.18-.63-1.69-.41-.7-1.09-1.42-1.9-1.63-.64-.16-1.34-.03-1.83.42-.19.18-1.26,2.41.12,1.7.73-.38,1.36.36,1.06,1.06-.65,1.49-2.69.77-3.31-.39-.93-1.71.45-3.66,2.08-4.24,1.58-.56,3.15.08,4.22,1.25,0-2.31.62-4.55,1.85-6.61.32-.54,1.11-.67,1.56-.2,1.64,1.72,2.17,5,1.13,7.3,2.72-.72,6.61.2,6.21,3.74-.32,2.86-4.33,4.5-5.71,1.59-.05-.1,0-.26.14-.25,2.5.3,2.78-6.09-1.88-3.01-2.96,1.96-2.51,6.66-1.91,9.53.76,3.66,2.6,6.84,5.06,9.56-.58-3.37-.1-6.99,2.04-10.98.28-.53.98-.43,1.28,0,2.91,4.12,3.35,10.96-1.31,13.83.24.71.52,1.41.83,2.11,2.41,2.59,4.45,5.66,6.38,8.48.8,1.16,1.59,2.34,2.35,3.55-1.35-4.84-1.13-9.84,4.54-11.53,5.78-1.72,12.28,6.84,6.36,10.68-5.58,3.63-8.21-6.1-3-5.53.04,0,.07.02.11.03-.06-.19-.11-.37-.17-.56-.85-.39-1.87-.42-2.79.03-.49.24-.98.61-1.45,1.04-.66,1.19-.98,2.68-.94,3.99,0,.26.03.51.06.76.69,5.85,4.1,11.53,7.13,16.81-.62-3.12-.18-6.32,2.92-8.15.32-.19.77-.08.95.25,1.03,1.84,1.36,3.89.64,5.91-.37,1.04-1.03,1.9-1.61,2.82-.54.84-.83,1.68-1,2.56.1.18.19.36.29.54,2.55,4.88,4.69,9.62,6.29,14.59-.4-6,.47-12.09,4.33-16.91,3.34-4.17,10.31-7.98,14.09-2.15,2.25,3.46.73,10.51-4.51,9.54-3.5-.64-4.14-5.46-.6-6.42.56-.15.91.65.4.94.64.19,1.29.39,1.93.58.15-.26.29-.52.41-.81.25-.64.21-1.43.43-2.07-.12-.47-.24-.93-.36-1.4-1.66-1.6-5.56-.95-7.32.17-2.81,1.8-4.67,4.72-5.86,7.76-2,5.11-1.77,10.54-1.51,15.91.01.06.03.11.04.17.23-1.05.65-2.05,1.16-2.86.9-1.43,2.07-2.24,3.53-3.03,2.3-1.24,3.94-2.86,5.61-4.84.43-.51,1.12-.15,1.32.35,1.05,2.57.54,5.45-1.59,7.31-1.07.93-2.42,1.43-3.7,1.97-2.95,1.24-4.33,2.39-5.11,5.39.88,3.13,1.54,6.37,2.15,9.53.79,3.51,1.48,7.07,2.03,10.65.8,4.68,1.4,9.38,1.89,14.11.15.16.27.36.3.62.2,1.6.23,1.51.03,2.5,0,.06,0,.12,0,.17,0,.23-.06.4-.15.55,0,.03-.01.05-.02.08-.08.39-.4.56-.72.56,0,.18,0,.37-.01.55,0,.28-.46.37-.51.07-.04-.29-.08-.58-.12-.87-.04-.05-.08-.1-.11-.16-.24-.17-.42-.42-.47-.78-1.02-8.16-2.26-16.31-3.67-24.41-.15-.89-.33-1.78-.52-2.67-.7-1.25-1.84-2-3.5-1.61-1.02.24-2.07.28-3.1.08-2.97-.58-4.25-3.06-6.65-4.57-.45-.28-.51-1.01,0-1.28,4.04-2.08,9.21-1.17,12.03,2-.72-3.06-1.4-6.14-1.82-9.21-.19-.47-.37-.95-.58-1.41-.23-.52-.49-1.03-.75-1.53-3.19-4.22-7.9-6.94-12.7-3.96-1.17,1.06-1.82,2.56-1.85,4.24-.02.94.19,1.84.51,2.72.69.41,1.63.69,2.84.84-.02-.14-.07-.27-.16-.4-.44-.59.05-1.38.64-1.58,4.27-1.43,4.91,6.76-1.14,5.29-6.97-1.69-6.84-12.22-.57-14.65,4.65-1.8,8.27.05,10.97,3.22-1.92-4.61-3.99-9.13-6.22-13.61-.14-.02-.27-.11-.33-.29-2.54-7.98-9.72-3.1-15.14-5.35-2.44-1.01-3.89-3.42-3.53-5.93-.09-.23-.14-.48-.13-.75.01-.39.43-.65.78-.45.94.55,1.57,1.4,2.68,1.71.06.02.12.01.18.03,1.94-1.68,5.82-1.53,7.94-.76.57.21,1.1.49,1.61.81-.21-.34-.41-.69-.61-1.03-3.06-3.64-8.03-5.25-12.7-3.68-2.74.92-5.25,2.94-6.17,5.77-.45,1.35-.47,2.71-.06,4.07.66,3.01,2.14,3.42,4.44,1.22-.4-.16-.44-.71,0-.86,3.2-1.08,3.87,3.34,1.18,4.65-3.94,1.93-7.33-3.13-7.52-6.49-.3-5.16,4.18-9.42,9.01-10.32,4.37-.82,8.15.86,10.8,3.9-1.45-2.48-2.9-4.96-4.51-7.35-.26-.38-.53-.75-.8-1.13-1.6-1.84-3.11-3.72-4.38-5.65-.81-1.04-1.6-2.09-2.34-3.16-1.63,1.65-4.18,1.63-6.43,1.29-1.72-.26-5.27-.82-6.42-2.54-.1.06-.21.12-.31.18-.7.45-1.57-.63-.91-1.18,2.21-1.81,6.23-2.82,9.52-2.12-.9-1-1.73-2.05-2.57-2.86-1.83-1.76-3.96-3.41-6.42-4.14-1.29-.38-2.61-.49-3.93-.33-.74,0-1.44.16-2.09.52-1.63.35-2.11,1.44-1.48,3.24,2.53-2.24,5.07,1.17,3.7,3.79-2.21,4.24-7.59.86-7.67-2.99-.12-5.9,6.81-7.94,11.5-6.76.04.01.09.03.13.04-5.14-4.04-9.78-6.17-16.62-3.19-2.82,1.23-5.1,2.93-6.56,5.71-.11.22-.21.44-.32.65.02.03.03.06.03.09-.06.73-.4,1.41-.86,2.02-.22.72-.38,1.45-.44,2.22-.3,1.09-.19,2.15.32,3.18.05,2.18,1.2,2.68,3.43,1.54-.15-.04-.27-.15-.31-.31-1-4.04,5.59-2.04,5.47,1.83-.2,6.3-8.28,2.38-9.87-1.08-.79-1.71-1.03-3.51-.87-5.27-.06.04-.12.09-.18.12-1.85,1.25-4.12,1.77-6.33,1.75-.73,0-1.13-.78-.8-1.4,1.69-3.19,5.04-5.08,8.61-4.99,1.53-3.11,4.19-5.77,7.17-7.19,4.72-2.25,9.4-2.35,13.45-.43-.14-.12-.27-.24-.41-.36-2.14-1.86-4.44-3.62-6.59-5.51-.01.08-.13.14-.2.07-1.2-1.18-2.42-2.35-3.75-3.38-.13.03-.27.04-.42,0-4.38-1.11-9.76,1.37-13.91,2.63-.41.12-.91-.15-1.01-.57-1-4.3,3.25-6.89,7.1-6.94.36,0,.71.01,1.06.04-5.57-3.26-11.06-6.62-16.62-9.86-2.98-1.05-7.56-2.33-10.7-1.05,0,0,0,.02-.01.02,1.59-.25,3.55.75,3.82,2.9.65,5.06-6.56,5.98-8.99,2.47-2.7-3.9.53-8.74,4.81-9.27.71-.09,1.46-.1,2.21-.06-1.79-.96-3.59-1.9-5.42-2.8-.54-.24-1.07-.5-1.58-.78-.04-.02-.08-.04-.12-.06-.22,0-.42,0-.63,0-.37,2.27-3.05,3.79-4.88,4.97-2.69,1.72-5.71,2.88-8.81,3.59-.81.18-1.41-.49-1.27-1.27.8-4.42,6.97-8.94,12.09-8.97-.15-.07-.3-.15-.46-.22-4.16.7-8.69-.73-12.42-2.51-.13-.06-.26-.14-.39-.21-.37,1.08-1.25,1.9-1.9,2.86-.97,1.44-1.58,3.02-1.39,4.77.17,1.6-1.97,1.76-2.72.74-.94-1.29-1.58-2.86-1.66-4.46-.04-.23-.07-.46-.1-.69-.36-.69-.51-1.52-.4-2.27.03-.19.07-.37.12-.55-.84.35-1.77.53-2.59.53-1.58.01-3.7-.66-4.81-1.94-.36-.22-.69-.48-.99-.79-.1-.08-.18-.17-.25-.28-.26-.32-.49-.67-.69-1.08-.42-.88.16-1.81.98-1.9Z"/>
        <path class="cls-1" d="M208.06,6.02c-.44.29-1.09.33-1.45-.11-.26-.31-.33-.75-.25-1.14-.05-.37.13-.76.62-.94,1.3-.48,2.24,1.42,1.09,2.19Z"/>
        <path class="cls-1" d="M206.86,16.58c.4-.23.84-.13,1.17.15.42.35.73.84.65,1.4-.02.17-.1.33-.2.47-.26.98-1.65,1.25-2.23.32-.49-.79-.21-1.88.6-2.34Z"/>
        <path class="cls-1" d="M198.57,9.9s.02,0,.03,0c.57-.26,1.21-.23,1.69.3.52.56.52,1.55-.07,2.06-.35.3-.85.42-1.27.16-.03-.02-.06-.05-.09-.07-.22,0-.39-.06-.59-.16-.97-.52-.7-1.98.3-2.28Z"/>
      </g>
      <g>
        <path class="cls-1" d="M150.24,338.88c-1.23,1.46-4.15,1.86-6.85,1.38.22.49.38,1.02.46,1.59.26,1.86-.3,3.69-1.73,4.94-.87.76-2,0-1.83-1.07.06-.37.09-.75.12-1.13-2.57-3.93-4.93-8.04-9.44-9.86-2.38-.96-4.75-1.68-7.18-2.21,6.26,3.42,12.82,8.62,7.09,15.41-.49.58-1.36.2-1.58-.42-2.31-6.57-6.6-11.68-11.81-15.92-4.16-2.01-8.27-4.13-12.31-6.36-.88-.48-1.75-.97-2.63-1.47-.11-.04-.22-.08-.32-.13,3.89,4.04,6.44,9.43,5.55,14.94-1.03,6.37-7.25,13.32-14.01,9.25-4.17-2.51-5.62-9.72-.41-12.08,5.19-2.35,9.23,4.77,4.95,8.26-.23.19-.67-.06-.46-.35.06-.05.11-.11.16-.17-.25-.05-.46-.24-.43-.59,0-.08,0-.16,0-.24-.15-.11-.25-.28-.27-.51-.16-1.75-1.37-3.11-2.95-3.64-.72.45-1.53,1.03-2.44,1.76-1.03,2.83,1.95,6.66,4.78,6.97,6.11.67,9.51-5.79,9.53-11,.03-4.99-2.48-8.26-5.52-11.26.39,1.98-.07,3.98-2.06,5.24-2.38,1.5-6.44-.02-6.06-3.23.26-2.18,3.24-3.61,4.54-1.89.5-.44,1.3-.98,1.29-1.42-.04-1.34-2.99-3.02-4.04-3.69-1.94-1.22-4-2.26-5.94-3.49-2.84-1.8-5.73-3.67-8.31-5.85,3.43,6.82,2.54,16-5.87,18.47-.47.14-1.17-.17-1.24-.7-.86-6.34,4.94-15.21,2.24-21.18-1.85-2.04-4-3.82-6.11-5.56-4.95-4.08-9.73-8.43-13.87-13.33-.52-.44-1.02-.9-1.5-1.37-.29-.29-.61-.6-.95-.93,2.99,4.81,5.11,11.16,2.78,15.05.14.6.34,1.18.63,1.69.41.7,1.09,1.42,1.9,1.63.64.16,1.34.03,1.83-.42.19-.18,1.26-2.41-.12-1.7-.73.38-1.36-.36-1.06-1.06.65-1.49,2.69-.77,3.31.39.93,1.71-.45,3.66-2.08,4.24-1.58.56-3.15-.08-4.22-1.25,0,2.31-.62,4.55-1.85,6.61-.32.54-1.11.67-1.56.2-1.64-1.72-2.17-5-1.13-7.3-2.72.72-6.61-.2-6.21-3.74.32-2.86,4.33-4.5,5.71-1.59.05.1,0,.26-.14.25-2.5-.3-2.78,6.09,1.88,3.01,2.96-1.96,2.51-6.66,1.91-9.53-.76-3.66-2.6-6.84-5.06-9.56.58,3.37.1,6.99-2.04,10.98-.28.53-.98.43-1.28,0-2.91-4.12-3.35-10.96,1.31-13.83-.24-.71-.52-1.41-.83-2.11-2.41-2.59-4.45-5.66-6.38-8.48-.8-1.16-1.59-2.34-2.35-3.55,1.35,4.84,1.13,9.84-4.54,11.53-5.78,1.72-12.28-6.84-6.36-10.68,5.58-3.63,8.21,6.1,3,5.53-.04,0-.07-.02-.11-.03.06.19.11.37.17.56.85.39,1.87.42,2.79-.03.49-.24.98-.61,1.45-1.04.66-1.19.98-2.68.94-3.99,0-.26-.03-.51-.06-.76-.69-5.85-4.1-11.53-7.13-16.81.62,3.12.18,6.32-2.92,8.15-.32.19-.77.08-.95-.25-1.03-1.84-1.36-3.89-.64-5.91.37-1.04,1.03-1.9,1.61-2.82.54-.84.83-1.68,1-2.56-.1-.18-.19-.36-.29-.54-2.55-4.88-4.69-9.62-6.29-14.59.4,6-.47,12.09-4.33,16.91-3.34,4.17-10.31,7.98-14.09,2.15-2.25-3.46-.73-10.51,4.51-9.54,3.5.65,4.14,5.46.6,6.42-.56.15-.91-.65-.4-.94-.64-.19-1.29-.39-1.93-.58-.15.26-.29.52-.41.81-.25.64-.21,1.43-.43,2.07.12.47.24.93.36,1.4,1.66,1.6,5.56.95,7.32-.17,2.81-1.8,4.67-4.72,5.86-7.76,2-5.11,1.77-10.54,1.51-15.91-.01-.06-.03-.11-.04-.17-.23,1.05-.65,2.05-1.16,2.86-.9,1.43-2.07,2.24-3.53,3.03-2.3,1.24-3.94,2.86-5.61,4.84-.43.51-1.12.15-1.32-.35-1.05-2.57-.54-5.45,1.59-7.31,1.07-.93,2.42-1.43,3.7-1.97,2.95-1.24,4.33-2.39,5.11-5.39-.88-3.13-1.54-6.37-2.15-9.53-.79-3.51-1.48-7.07-2.03-10.65-.8-4.68-1.4-9.38-1.89-14.11-.15-.16-.27-.36-.3-.62-.2-1.6-.23-1.51-.03-2.5,0-.06,0-.12,0-.17,0-.23.06-.4.15-.55,0-.03.01-.05.02-.08.08-.39.4-.56.72-.56,0-.18,0-.37.01-.55,0-.28.46-.37.51-.07.04.29.08.58.12.87.04.05.08.1.11.16.24.17.42.42.47.78,1.02,8.16,2.26,16.31,3.67,24.41.15.89.33,1.78.52,2.67.7,1.25,1.84,2,3.5,1.61,1.02-.24,2.07-.28,3.1-.08,2.97.58,4.25,3.06,6.65,4.57.45.28.51,1.01,0,1.28-4.04,2.08-9.21,1.17-12.03-2,.72,3.06,1.4,6.14,1.82,9.21.19.47.37.95.58,1.41.23.52.49,1.03.75,1.53,3.19,4.22,7.9,6.94,12.7,3.96,1.17-1.06,1.82-2.56,1.85-4.24.02-.94-.19-1.84-.51-2.72-.69-.41-1.63-.69-2.84-.84.02.14.07.27.16.4.44.59-.05,1.38-.64,1.58-4.27,1.43-4.91-6.75,1.14-5.29,6.97,1.69,6.84,12.22.57,14.65-4.65,1.8-8.27-.04-10.97-3.22,1.92,4.61,3.99,9.13,6.22,13.61.14.02.27.11.33.29,2.54,7.98,9.72,3.1,15.14,5.35,2.44,1.01,3.89,3.42,3.53,5.93.09.23.14.48.13.75-.01.39-.43.65-.78.45-.94-.55-1.57-1.4-2.68-1.71-.06-.02-.12-.01-.18-.03-1.94,1.68-5.82,1.53-7.94.76-.57-.21-1.1-.49-1.61-.81.21.34.41.69.61,1.03,3.06,3.64,8.03,5.25,12.7,3.68,2.74-.92,5.25-2.94,6.17-5.77.45-1.35.47-2.71.06-4.07-.66-3.01-2.14-3.42-4.44-1.22.4.16.44.71,0,.86-3.2,1.08-3.87-3.34-1.18-4.65,3.94-1.93,7.33,3.13,7.52,6.49.3,5.16-4.18,9.42-9.01,10.32-4.37.82-8.15-.86-10.8-3.9,1.45,2.48,2.9,4.96,4.51,7.35.26.38.53.75.8,1.13,1.6,1.84,3.11,3.72,4.38,5.65.81,1.04,1.6,2.09,2.34,3.16,1.63-1.65,4.18-1.63,6.43-1.29,1.72.26,5.27.82,6.42,2.54.1-.06.21-.12.31-.18.7-.45,1.57.63.91,1.18-2.21,1.81-6.23,2.82-9.52,2.12.9,1,1.73,2.05,2.57,2.86,1.83,1.76,3.96,3.41,6.42,4.14,1.29.38,2.61.49,3.93.33.74,0,1.44-.16,2.09-.52,1.63-.35,2.11-1.44,1.48-3.24-2.53,2.24-5.07-1.17-3.7-3.79,2.21-4.24,7.59-.86,7.67,2.99.12,5.9-6.81,7.94-11.5,6.76-.04-.01-.09-.03-.13-.04,5.14,4.04,9.78,6.17,16.62,3.19,2.82-1.23,5.1-2.93,6.56-5.71.11-.22.21-.44.32-.65-.02-.03-.03-.06-.03-.09.06-.73.4-1.41.86-2.02.22-.72.38-1.45.44-2.22.3-1.09.19-2.15-.32-3.18-.05-2.18-1.2-2.68-3.43-1.54.15.04.27.15.31.31,1,4.04-5.59,2.04-5.47-1.83.2-6.3,8.28-2.38,9.87,1.08.79,1.71,1.03,3.51.87,5.27.06-.04.12-.09.18-.12,1.85-1.25,4.12-1.77,6.33-1.75.73,0,1.13.78.8,1.4-1.69,3.19-5.04,5.08-8.61,4.99-1.53,3.11-4.19,5.77-7.17,7.19-4.72,2.25-9.4,2.35-13.45.43.14.12.27.24.41.36,2.14,1.86,4.44,3.62,6.59,5.51.01-.08.13-.14.2-.07,1.2,1.18,2.42,2.35,3.75,3.38.13-.03.27-.04.42,0,4.38,1.11,9.76-1.37,13.91-2.63.41-.12.91.15,1.01.57,1,4.3-3.25,6.89-7.1,6.94-.36,0-.71-.01-1.06-.04,5.57,3.26,11.06,6.62,16.62,9.86,2.98,1.04,7.56,2.33,10.7,1.05,0,0,0-.02.01-.02-1.59.25-3.55-.75-3.82-2.9-.65-5.06,6.56-5.98,8.99-2.47,2.7,3.9-.53,8.74-4.81,9.27-.71.09-1.46.1-2.21.06,1.79.96,3.59,1.89,5.42,2.8.54.24,1.07.5,1.58.78.04.02.08.04.12.06.22,0,.42,0,.63,0,.37-2.27,3.05-3.79,4.88-4.97,2.69-1.72,5.71-2.88,8.81-3.59.81-.18,1.41.49,1.27,1.27-.8,4.42-6.97,8.94-12.09,8.97.15.07.3.15.46.22,4.16-.7,8.69.73,12.42,2.51.13.06.26.14.39.21.37-1.08,1.25-1.9,1.9-2.86.97-1.44,1.58-3.02,1.39-4.77-.17-1.6,1.97-1.76,2.72-.74.94,1.29,1.58,2.86,1.66,4.46.04.23.07.46.1.69.36.69.51,1.52.4,2.27-.03.19-.07.37-.12.55.84-.35,1.77-.53,2.59-.53,1.58-.01,3.7.66,4.81,1.94.36.22.69.48.99.79.1.08.18.17.25.28.26.32.49.67.69,1.08.42.88-.16,1.81-.98,1.9Z"/>
        <path class="cls-1" d="M146.97,343.02c.44-.29,1.09-.33,1.45.11.26.31.33.75.25,1.14.05.37-.13.76-.62.94-1.3.48-2.24-1.42-1.09-2.19Z"/>
        <path class="cls-1" d="M148.17,332.46c-.4.23-.84.13-1.17-.15-.42-.35-.73-.84-.65-1.4.02-.17.1-.33.2-.47.26-.98,1.65-1.25,2.23-.32.49.79.21,1.88-.6,2.34Z"/>
        <path class="cls-1" d="M156.46,339.13s-.02,0-.03,0c-.57.26-1.21.23-1.69-.3-.52-.56-.52-1.55.07-2.06.35-.3.85-.42,1.27-.16.03.02.06.05.09.07.22,0,.39.06.59.16.97.52.7,1.98-.3,2.28Z"/>
      </g>
      <g>
        <path class="cls-1" d="M204.79,338.88c1.23,1.46,4.15,1.86,6.85,1.38-.22.49-.38,1.02-.46,1.59-.26,1.86.3,3.69,1.73,4.94.87.76,2,0,1.83-1.07-.06-.37-.09-.75-.12-1.13,2.57-3.93,4.93-8.04,9.44-9.86,2.38-.96,4.75-1.68,7.18-2.21-6.26,3.42-12.82,8.62-7.09,15.41.49.58,1.36.2,1.58-.42,2.31-6.57,6.6-11.68,11.81-15.92,4.16-2.01,8.27-4.13,12.31-6.36.88-.48,1.75-.97,2.63-1.47.11-.04.22-.08.32-.13-3.89,4.04-6.44,9.43-5.55,14.94,1.03,6.37,7.25,13.32,14.01,9.25,4.17-2.51,5.62-9.72.41-12.08-5.19-2.35-9.23,4.77-4.95,8.26.23.19.67-.06.46-.35-.06-.05-.11-.11-.16-.17.25-.05.46-.24.43-.59,0-.08,0-.16,0-.24.15-.11.25-.28.27-.51.16-1.75,1.37-3.11,2.95-3.64.72.45,1.53,1.03,2.44,1.76,1.03,2.83-1.95,6.66-4.78,6.97-6.11.67-9.51-5.79-9.53-11-.03-4.99,2.48-8.26,5.52-11.26-.39,1.98.07,3.98,2.06,5.24,2.38,1.5,6.44-.02,6.06-3.23-.26-2.18-3.24-3.61-4.54-1.89-.5-.44-1.3-.98-1.29-1.42.04-1.34,2.99-3.02,4.04-3.69,1.94-1.22,4-2.26,5.94-3.49,2.84-1.8,5.73-3.67,8.31-5.85-3.43,6.82-2.54,16,5.87,18.47.47.14,1.17-.17,1.24-.7.86-6.34-4.94-15.21-2.24-21.18,1.85-2.04,4-3.82,6.11-5.56,4.95-4.08,9.73-8.43,13.87-13.33.52-.44,1.02-.9,1.5-1.37.29-.29.61-.6.95-.93-2.99,4.81-5.11,11.16-2.78,15.05-.14.6-.34,1.18-.63,1.69-.41.7-1.09,1.42-1.9,1.63-.64.16-1.34.03-1.83-.42-.19-.18-1.26-2.41.12-1.7.73.38,1.36-.36,1.06-1.06-.65-1.49-2.69-.77-3.31.39-.93,1.71.45,3.66,2.08,4.24,1.58.56,3.15-.08,4.22-1.25,0,2.31.62,4.55,1.85,6.61.32.54,1.11.67,1.56.2,1.64-1.72,2.17-5,1.13-7.3,2.72.72,6.61-.2,6.21-3.74-.32-2.86-4.33-4.5-5.71-1.59-.05.1,0,.26.14.25,2.5-.3,2.78,6.09-1.88,3.01-2.96-1.96-2.51-6.66-1.91-9.53.76-3.66,2.6-6.84,5.06-9.56-.58,3.37-.1,6.99,2.04,10.98.28.53.98.43,1.28,0,2.91-4.12,3.35-10.96-1.31-13.83.24-.71.52-1.41.83-2.11,2.41-2.59,4.45-5.66,6.38-8.48.8-1.16,1.59-2.34,2.35-3.55-1.35,4.84-1.13,9.84,4.54,11.53,5.78,1.72,12.28-6.84,6.36-10.68-5.58-3.63-8.21,6.1-3,5.53.04,0,.07-.02.11-.03-.06.19-.11.37-.17.56-.85.39-1.87.42-2.79-.03-.49-.24-.98-.61-1.45-1.04-.66-1.19-.98-2.68-.94-3.99,0-.26.03-.51.06-.76.69-5.85,4.1-11.53,7.13-16.81-.62,3.12-.18,6.32,2.92,8.15.32.19.77.08.95-.25,1.03-1.84,1.36-3.89.64-5.91-.37-1.04-1.03-1.9-1.61-2.82-.54-.84-.83-1.68-1-2.56.1-.18.19-.36.29-.54,2.55-4.88,4.69-9.62,6.29-14.59-.4,6,.47,12.09,4.33,16.91,3.34,4.17,10.31,7.98,14.09,2.15,2.25-3.46.73-10.51-4.51-9.54-3.5.65-4.14,5.46-.6,6.42.56.15.91-.65.4-.94.64-.19,1.29-.39,1.93-.58.15.26.29.52.41.81.25.64.21,1.43.43,2.07-.12.47-.24.93-.36,1.4-1.66,1.6-5.56.95-7.32-.17-2.81-1.8-4.67-4.72-5.86-7.76-2-5.11-1.77-10.54-1.51-15.91.01-.06.03-.11.04-.17.23,1.05.65,2.05,1.16,2.86.9,1.43,2.07,2.24,3.53,3.03,2.3,1.24,3.94,2.86,5.61,4.84.43.51,1.12.15,1.32-.35,1.05-2.57.54-5.45-1.59-7.31-1.07-.93-2.42-1.43-3.7-1.97-2.95-1.24-4.33-2.39-5.11-5.39.88-3.13,1.54-6.37,2.15-9.53.79-3.51,1.48-7.07,2.03-10.65.8-4.68,1.4-9.38,1.89-14.11.15-.16.27-.36.3-.62.2-1.6.23-1.51.03-2.5,0-.06,0-.12,0-.17,0-.23-.06-.4-.15-.55,0-.03-.01-.05-.02-.08-.08-.39-.4-.56-.72-.56,0-.18,0-.37-.01-.55,0-.28-.46-.37-.51-.07-.04.29-.08.58-.12.87-.04.05-.08.1-.11.16-.24.17-.42.42-.47.78-1.02,8.16-2.26,16.31-3.67,24.41-.15.89-.33,1.78-.52,2.67-.7,1.25-1.84,2-3.5,1.61-1.02-.24-2.07-.28-3.1-.08-2.97.58-4.25,3.06-6.65,4.57-.45.28-.51,1.01,0,1.28,4.04,2.08,9.21,1.17,12.03-2-.72,3.06-1.4,6.14-1.82,9.21-.19.47-.37.95-.58,1.41-.23.52-.49,1.03-.75,1.53-3.19,4.22-7.9,6.94-12.7,3.96-1.17-1.06-1.82-2.56-1.85-4.24-.02-.94.19-1.84.51-2.72.69-.41,1.63-.69,2.84-.84-.02.14-.07.27-.16.4-.44.59.05,1.38.64,1.58,4.27,1.43,4.91-6.75-1.14-5.29-6.97,1.69-6.84,12.22-.57,14.65,4.65,1.8,8.27-.04,10.97-3.22-1.92,4.61-3.99,9.13-6.22,13.61-.14.02-.27.11-.33.29-2.54,7.98-9.72,3.1-15.14,5.35-2.44,1.01-3.89,3.42-3.53,5.93-.09.23-.14.48-.13.75.01.39.43.65.78.45.94-.55,1.57-1.4,2.68-1.71.06-.02.12-.01.18-.03,1.94,1.68,5.82,1.53,7.94.76.57-.21,1.1-.49,1.61-.81-.21.34-.41.69-.61,1.03-3.06,3.64-8.03,5.25-12.7,3.68-2.74-.92-5.25-2.94-6.17-5.77-.45-1.35-.47-2.71-.06-4.07.66-3.01,2.14-3.42,4.44-1.22-.4.16-.44.71,0,.86,3.2,1.08,3.87-3.34,1.18-4.65-3.94-1.93-7.33,3.13-7.52,6.49-.3,5.16,4.18,9.42,9.01,10.32,4.37.82,8.15-.86,10.8-3.9-1.45,2.48-2.9,4.96-4.51,7.35-.26.38-.53.75-.8,1.13-1.6,1.84-3.11,3.72-4.38,5.65-.81,1.04-1.6,2.09-2.34,3.16-1.63-1.65-4.18-1.63-6.43-1.29-1.72.26-5.27.82-6.42,2.54-.1-.06-.21-.12-.31-.18-.7-.45-1.57.63-.91,1.18,2.21,1.81,6.23,2.82,9.52,2.12-.9,1-1.73,2.05-2.57,2.86-1.83,1.76-3.96,3.41-6.42,4.14-1.29.38-2.61.49-3.93.33-.74,0-1.44-.16-2.09-.52-1.63-.35-2.11-1.44-1.48-3.24,2.53,2.24,5.07-1.17,3.7-3.79-2.21-4.24-7.59-.86-7.67,2.99-.12,5.9,6.81,7.94,11.5,6.76.04-.01.09-.03.13-.04-5.14,4.04-9.78,6.17-16.62,3.19-2.82-1.23-5.1-2.93-6.56-5.71-.11-.22-.21-.44-.32-.65.02-.03.03-.06.03-.09-.06-.73-.4-1.41-.86-2.02-.22-.72-.38-1.45-.44-2.22-.3-1.09-.19-2.15.32-3.18.05-2.18,1.2-2.68,3.43-1.54-.15.04-.27.15-.31.31-1,4.04,5.59,2.04,5.47-1.83-.2-6.3-8.28-2.38-9.87,1.08-.79,1.71-1.03,3.51-.87,5.27-.06-.04-.12-.09-.18-.12-1.85-1.25-4.12-1.77-6.33-1.75-.73,0-1.13.78-.8,1.4,1.69,3.19,5.04,5.08,8.61,4.99,1.53,3.11,4.19,5.77,7.17,7.19,4.72,2.25,9.4,2.35,13.45.43-.14.12-.27.24-.41.36-2.14,1.86-4.44,3.62-6.59,5.51-.01-.08-.13-.14-.2-.07-1.2,1.18-2.42,2.35-3.75,3.38-.13-.03-.27-.04-.42,0-4.38,1.11-9.76-1.37-13.91-2.63-.41-.12-.91.15-1.01.57-1,4.3,3.25,6.89,7.1,6.94.36,0,.71-.01,1.06-.04-5.57,3.26-11.06,6.62-16.62,9.86-2.98,1.04-7.56,2.33-10.7,1.05,0,0,0-.02-.01-.02,1.59.25,3.55-.75,3.82-2.9.65-5.06-6.56-5.98-8.99-2.47-2.7,3.9.53,8.74,4.81,9.27.71.09,1.46.1,2.21.06-1.79.96-3.59,1.89-5.42,2.8-.54.24-1.07.5-1.58.78-.04.02-.08.04-.12.06-.22,0-.42,0-.63,0-.37-2.27-3.05-3.79-4.88-4.97-2.69-1.72-5.71-2.88-8.81-3.59-.81-.18-1.41.49-1.27,1.27.8,4.42,6.97,8.94,12.09,8.97-.15.07-.3.15-.46.22-4.16-.7-8.69.73-12.42,2.51-.13.06-.26.14-.39.21-.37-1.08-1.25-1.9-1.9-2.86-.97-1.44-1.58-3.02-1.39-4.77.17-1.6-1.97-1.76-2.72-.74-.94,1.29-1.58,2.86-1.66,4.46-.04.23-.07.46-.1.69-.36.69-.51,1.52-.4,2.27.03.19.07.37.12.55-.84-.35-1.77-.53-2.59-.53-1.58-.01-3.7.66-4.81,1.94-.36.22-.69.48-.99.79-.1.08-.18.17-.25.28-.26.32-.49.67-.69,1.08-.42.88.16,1.81.98,1.9Z"/>
        <path class="cls-1" d="M208.06,343.02c-.44-.29-1.09-.33-1.45.11-.26.31-.33.75-.25,1.14-.05.37.13.76.62.94,1.3.48,2.24-1.42,1.09-2.19Z"/>
        <path class="cls-1" d="M206.86,332.46c.4.23.84.13,1.17-.15.42-.35.73-.84.65-1.4-.02-.17-.1-.33-.2-.47-.26-.98-1.65-1.25-2.23-.32-.49.79-.21,1.88.6,2.34Z"/>
        <path class="cls-1" d="M198.57,339.13s.02,0,.03,0c.57.26,1.21.23,1.69-.3.52-.56.52-1.55-.07-2.06-.35-.3-.85-.42-1.27-.16-.03.02-.06.05-.09.07-.22,0-.39.06-.59.16-.97.52-.7,1.98.3,2.28Z"/>
      </g>
    </g>
  </g>
</svg>