<?xml version="1.0" encoding="UTF-8"?>
<svg id="Layer_2" data-name="Layer 2" xmlns="http://www.w3.org/2000/svg" viewBox="0 0 487.04 486.64">
  <defs>
    <style>
      .cls-1 {
        fill: #fff;
        stroke-width: 0px;
      }
    </style>
  </defs>
  <g id="Layer_1-2" data-name="Layer 1">
    <g>
      <g>
        <g>
          <path class="cls-1" d="M182.47,89.37l.85-.66s.06-.05.13-.1c1.11-.88,8.61-6.91,9.61-10.3.42-.99.76-3.2-1.07-4.36-.02-.01-.05-.03-.1-.06-.03-.02-.06-.04-.11-.07-.68-.37-2.37-.66-3.57.69-.15.09-3.35,2.6-5.52,13.81l-.22,1.06Z"/>
          <path class="cls-1" d="M161.58,58.75s-5.82-1.78-13.76,1.59c0,0,4.61-5.14,10.12-5.27,0,0-1.79-6.22,4.32-14.64,0,0-4.85,10.33-.69,18.32Z"/>
          <g>
            <path class="cls-1" d="M145.21,123.39s16.46-.61,27.17-15.39c3.78-4.94,6.57-11.57,6.75-18.86.27-4.17-.77-13.38-7.66-20.39-5.21-5.53-13.34-7.86-19.78-5.61-6.45,2.22-10.27,8.16-10.52,13.48-.33,5.42,2.43,9.74,5.13,11.78,2.75,2.08,6.24,2.93,9.48,2.45,1.62-.25,3.16-.85,4.52-1.71,1.37-.88,2.57-2.07,3.36-3.5,1.68-2.84,1.66-6.52.21-9.33-1.29-2.92-4.38-4.97-7.16-5.08-2.83-.2-5.19.98-6.63,2.54-1.47,1.63-1.8,3.55-1.66,4.94.14,1.42.7,2.39,1.13,2.94.43.56.78.74.86.68.27-.13-.6-1.43-.17-3.51.21-1,.83-2.12,1.9-2.81,1.08-.7,2.65-1.09,4.17-.73,1.52.36,3.02,1.13,4.09,2.85,1.04,1.69,1.56,4.01.87,6.38-.33,1.18-1.04,2.3-2.04,3.2-1.03.9-2.3,1.6-3.72,2-2.83.82-6.27.22-8.85-1.79-2.53-1.94-5.09-6.15-4.59-11.2.26-2.48,1.26-5.06,3.05-7.19,1.75-2.15,4.28-3.84,7.14-4.64,5.79-1.71,12.8.89,16.95,5.89,5.17,6.33,6.5,12.43,6.46,18.23.05,6.48-2.03,12.73-5.18,17.68-10.14,14.51-25.29,16.7-25.29,16.7Z"/>
            <path class="cls-1" d="M187.97,38.1c2.26,2.02,3.62,4.78,3.82,7.77.17,2.48-.46,4.87-1.8,6.87-.28.41-.58.81-.92,1.19-3.3,3.71-9.07,3.96-12.86.57-3.1-2.77-3.42-7.49-.73-10.52,2.21-2.48,6.07-2.65,8.61-.38,1.01.91,1.62,2.15,1.72,3.49.09,1.34-.34,2.63-1.22,3.62-.73.82-1.75,1.3-2.86,1.35-.81.04-1.6-.16-2.29-.55-.06.17,1.27,2.94,4.71,1.69,2.02-.73,3.67-2.43,4.28-4.49.59-2,.11-4.5-1.27-6.68-1.53-2.4-3.84-3.96-6.51-4.39-6.26-1.01-11.66,1.76-14.03,10.85-1.24,5.78,0,14.02,8.61,25.14,0,0-5.3-4.98-8.63-12.07-3.17-6.77-4.03-16.17,1.99-22.69,5.02-5.52,13.68-5.87,19.39-.76Z"/>
          </g>
          <path class="cls-1" d="M168.58,104.39s-7.02,8.43-20.59,13.21c-4.52,1.33-9.78,1.91-14.87.7-2.57-.51-4.96-1.73-7.16-3.18-2.08-1.61-4.04-3.55-5.44-5.77-2.78-4.46-2.94-10.43-.13-14.36,2.74-3.99,7.76-5.61,11.66-4.65,3.97.88,6.57,3.84,7.4,6.22.9,2.43.57,5.16-.72,7.12-.63.99-1.46,1.81-2.39,2.4-.92.59-1.98.88-3,.9-2.06.07-3.87-.88-5.04-2.13-1.18-1.27-1.52-2.81-1.36-4.18.14-1.37.93-2.53,1.82-3.19.9-.66,1.97-.8,2.82-.68,1.75.27,2.47,1.27,2.59,1.13.07,0-.33-1.26-2.37-2.08-.99-.36-2.44-.48-3.89.23-1.4.71-2.71,2.14-3.14,4.15-.48,1.97.26,4.5,2.03,6.1,1.68,1.64,4.28,2.54,6.73,2.05,1.22-.22,2.39-.74,3.37-1.52.97-.78,1.79-1.74,2.37-2.86,1.19-2.23,1.4-5.03.49-7.55-.86-2.49-3.47-5.57-7.61-6.6-4.05-1.09-9.4.34-12.56,4.54-3.2,4.17-3.37,10.67-.5,15.75,1.46,2.55,3.48,4.67,5.78,6.5,2.4,1.65,5.08,2.97,7.88,3.47,5.58,1.19,11.07.28,15.63-1.35,14.74-5.91,20.2-14.38,20.2-14.38Z"/>
          <path class="cls-1" d="M170.89,92.52s-1.83,9.04-7.68,14.6c-5.76,5.76-14.69,7.49-14.69,7.49,0,0,8.46-3,14.08-8.11,5.89-5.6,8.3-13.98,8.3-13.98Z"/>
          <path class="cls-1" d="M261.49,63.56s-.06-.42-.18-1.21c-.11-.79-.26-1.96-.66-3.42-.74-2.9-2.2-7.17-5.63-11.39-3.34-4.26-8.76-8.18-15.42-10.39-6.65-2.22-14.5-2.8-22.16-1.03-3.81.91-7.57,2.41-10.96,4.6-3.4,2.16-6.4,5.07-8.57,8.53-2.24,3.44-3.51,7.49-3.81,11.51-.17,2.02-.1,4.06.26,6.05.34,1.99.93,3.96,1.87,5.77,1.74,3.68,4.99,6.55,8.31,8.16,3.36,1.67,7.03,2.22,10.33,1.83,3.31-.38,6.25-1.7,8.41-3.46,2.17-1.76,3.66-3.79,4.57-5.84,1.8-4.07,1.44-8.86-.57-12.58-1.01-1.87-2.41-3.48-4.01-4.72-1.6-1.26-3.59-2.18-5.55-2.47-3.96-.69-7.81.8-10.16,3.27-1.17,1.21-2.08,2.7-2.52,4.31-.42,1.59-.41,3.22-.07,4.67.72,2.94,2.69,5.08,4.76,6.14,2.16,1.1,4.31.91,5.74.36,1.46-.58,2.29-1.48,2.7-2.13.42-.66.45-1.1.32-1.19-.32-.28-1.3,1.04-3.59,1.4-1.12.15-2.55-.02-3.77-.9-1.25-.89-2.36-2.45-2.61-4.3-.12-.92-.03-1.89.3-2.8.34-.9.93-1.74,1.75-2.49,1.6-1.46,4.05-2.23,6.42-1.7,1.2.24,2.29.79,3.32,1.64,1.04.85,1.93,1.93,2.56,3.16,1.27,2.46,1.46,5.57.3,8.19-.56,1.28-1.62,2.76-3.12,4.02-1.49,1.25-3.53,2.23-5.91,2.57-4.69.75-11.16-1.51-14.09-7.05-2.98-5.49-2.73-13.5.86-19.54,3.52-6.28,10.21-10.55,17.23-12.53,7.08-1.96,14.58-1.75,21.02.1,6.46,1.84,11.84,5.37,15.26,9.35,3.52,3.95,5.15,8.09,6.02,10.94.46,1.43.67,2.59.81,3.37.15.78.23,1.2.23,1.2Z"/>
          <g>
            <path class="cls-1" d="M190.84,126.9s-.3.05-.87.15c-.57.1-1.41.33-2.45.75-1.01.46-2.22,1.17-3.36,2.29-1.15,1.11-2.21,2.67-2.8,4.64-1.25,3.83-.03,9.56,4.29,13.39,2.11,1.92,5.01,3.21,8.12,3.42,1.54.12,3.16-.08,4.77-.51,1.6-.41,3.17-1.07,4.59-2.01,2.88-1.82,5.25-4.71,6.41-8.19.59-1.73.88-3.59.85-5.48-.05-1.87-.5-3.9-1.1-5.8-1.33-3.81-3.8-7.39-7.24-9.92-3.38-2.61-7.68-4.05-12.04-4.12l-1.64.06c-.55.03-1.12.15-1.68.21-1.14.1-2.23.45-3.34.69-2.16.71-4.33,1.53-6.25,2.83-3.9,2.47-7.14,6.13-9.13,10.5-2,4.38-2.77,9.34-2.01,14.42.65,5.14,2.47,10.2,5.36,14.73,5.85,9.03,15.53,15.33,25.46,17.35,2.51.47,4.93.77,7.48.73,1.27.01,2.54,0,3.79-.14l1.88-.15,1.85-.27c4.92-.75,9.61-2.23,13.91-4.29,8.62-4.12,15.55-10.51,20.54-17.53,2.51-3.52,4.56-7.19,6.23-10.89,1.62-3.72,2.83-7.45,3.77-11.08,1.74-7.31,2.23-14.23,2.01-20.3-.22-6.09-1.14-11.32-2.07-15.56-.48-2.12-.95-4-1.46-5.6-.46-1.62-.87-2.98-1.28-4.06-.76-2.18-1.16-3.33-1.16-3.33,0,0,.51,1.1,1.49,3.2.51,1.04,1.05,2.37,1.67,3.95.66,1.57,1.3,3.42,1.98,5.52,1.33,4.2,2.72,9.47,3.43,15.73.72,6.25.75,13.51-.58,21.38-.74,3.91-1.77,7.98-3.27,12.08-1.55,4.08-3.54,8.19-6.07,12.18-5.03,7.96-12.37,15.46-21.97,20.53-4.78,2.53-10.1,4.42-15.75,5.45l-2.13.38-2.16.23c-1.44.19-2.9.25-4.37.27-2.93.12-6.06-.16-9.08-.68-6.08-1.07-11.99-3.55-17.33-7.04-5.32-3.52-10.14-8.12-13.71-13.72-3.58-5.58-5.83-11.93-6.55-18.28-.89-6.4.21-13.1,2.96-18.72,2.72-5.66,7.08-10.34,12.26-13.4,2.56-1.59,5.4-2.61,8.23-3.41,1.45-.29,2.87-.66,4.33-.75.73-.06,1.44-.17,2.17-.19h2.22c5.91.3,11.59,2.53,15.87,6.15,4.36,3.54,7.34,8.35,8.77,13.31.65,2.51,1.05,4.96.98,7.51-.09,2.52-.63,4.95-1.54,7.15-1.79,4.43-5.07,7.88-8.82,9.91-1.86,1.05-3.86,1.74-5.86,2.1-1.97.38-3.99.49-5.94.2-3.88-.55-7.28-2.43-9.62-4.9-2.38-2.44-3.78-5.39-4.31-8.16-.58-2.76-.29-5.46.59-7.54.86-2.12,2.17-3.68,3.5-4.75,1.33-1.08,2.66-1.68,3.74-2.05,1.11-.34,1.98-.47,2.56-.51.59-.04.89-.06.89-.06Z"/>
            <path class="cls-1" d="M305.61,100.05s.19-.03.56-.1c.37-.07.9-.21,1.56-.49,1.26-.57,3.16-1.89,3.92-4.44.79-2.44,0-6.1-2.77-8.52-1.35-1.21-3.2-2.03-5.18-2.15-1.95-.11-4.15.45-5.95,1.64-1.82,1.18-3.32,3.02-4.04,5.23-.37,1.1-.54,2.28-.51,3.49.03,1.19.33,2.48.72,3.68,1.61,4.88,6.69,8.91,12.31,8.83,5.71.03,11.49-3.56,13.94-9.19,1.24-2.8,1.71-5.94,1.2-9.18-.43-3.27-1.61-6.48-3.47-9.35-3.79-5.7-9.95-9.72-16.29-10.93-3.13-.61-6.42-.53-9.54-.02-3.13.52-6.1,1.52-8.83,2.87-5.47,2.71-9.87,6.81-13.08,11.28-3.25,4.47-5.27,9.36-6.41,14-2.25,9.38-.84,17.54.7,22.82.4,1.33.76,2.51,1.17,3.51.37,1.01.69,1.86,1.01,2.53.6,1.35.91,2.06.91,2.06,0,0-.39-.68-1.12-1.96-.39-.64-.79-1.46-1.26-2.44-.5-.97-.98-2.13-1.51-3.44-2.04-5.2-4.26-13.52-2.58-23.69.87-5.03,2.7-10.45,5.98-15.55,3.24-5.09,7.89-9.9,13.98-13.24,6.09-3.31,13.53-5.17,21.43-3.9,7.8,1.34,15.3,6.07,20.03,13.17,2.32,3.57,3.79,7.64,4.28,11.72.6,4.1-.07,8.42-1.81,12.05-1.73,3.65-4.51,6.68-7.83,8.67-1.65,1.02-3.46,1.7-5.28,2.22-1.86.41-3.67.71-5.6.62-3.81-.16-7.46-1.58-10.23-3.89-2.81-2.26-4.74-5.35-5.67-8.53-.43-1.61-.7-3.18-.65-4.82.05-1.62.39-3.18.96-4.6,1.14-2.86,3.24-5.07,5.65-6.39,1.19-.68,2.48-1.12,3.76-1.36,1.27-.25,2.56-.31,3.81-.13,2.5.34,4.68,1.55,6.19,3.13,3.07,3.19,3.53,7.4,2.4,10.07-1.13,2.75-3.29,3.9-4.64,4.36-.71.21-1.26.3-1.64.33-.38.02-.57.04-.57.04Z"/>
            <path class="cls-1" d="M255.28,100.08s3.26,9.57.72,22.36c-1.04,4.13-3.01,8.45-6.26,11.76-1.57,1.72-3.59,2.95-5.72,3.92-2.19.8-4.58,1.34-6.92,1.31-4.7-.08-9.35-2.92-11.08-7.03-1.81-4.08-.76-8.74,1.76-11.25,2.49-2.61,5.95-3.14,8.16-2.59,2.28.51,4.22,2.12,5.14,4.09.47.97.72,2.02.75,3.03.03,1-.23,1.95-.68,2.75-.89,1.61-2.45,2.53-3.94,2.81-1.52.28-2.85-.23-3.83-1.02-.99-.79-1.51-1.97-1.61-2.98-.09-1.02.29-1.92.76-2.5,1.01-1.21,2.11-1.27,2.05-1.43.03-.05-1.12-.37-2.68.79-.73.58-1.49,1.63-1.6,3.1-.09,1.42.4,3.14,1.75,4.47,1.29,1.35,3.57,2.04,5.61,1.47,2.02-.48,3.91-2.02,4.65-4.15.4-1.05.53-2.2.37-3.34-.15-1.13-.52-2.23-1.11-3.24-1.17-2.02-3.22-3.57-5.57-4.12-2.3-.58-5.86-.1-8.54,2.57-2.69,2.57-4.04,7.38-2.26,11.89,1.73,4.53,6.64,7.88,11.86,8.19,2.62.14,5.18-.35,7.63-1.21,2.36-1.03,4.6-2.42,6.27-4.32,3.46-3.69,5.28-8.36,6.12-12.67,2.21-14.24-1.8-22.63-1.8-22.63Z"/>
            <path class="cls-1" d="M261.88,92.77s.49-1.43,1.36-3.99c.41-1.28,1.26-2.7,2.04-4.42.37-.87,1.02-1.66,1.57-2.57.6-.87,1.12-1.88,1.92-2.74,2.78-3.77,6.98-7.5,12.17-10.55,5.2-3.05,11.47-5.33,18.16-6.52,6.69-1.24,13.82-1.3,20.67-.32,6.85.99,13.53,2.97,19.78,4.69,6.25,1.75,12.15,3.31,17.38,4.29,2.62.46,5.04.87,7.32,1.09,2.26.22,4.32.24,6.1.12,3.55-.23,7.14-1.18,10.17-3.15,1.49-1,2.91-2.17,4.16-3.56,1.25-1.43,2.25-3.08,2.86-4.89,1.24-3.6.66-7.93-1.76-11.1-2.37-3.1-5.77-4.6-8.91-4.76-3.15-.24-6.07,1.23-7.51,3-1.51,1.75-2.02,3.65-2.1,5.14-.07,1.51.31,2.64.7,3.29.39.66.75.89.92.82.43-.13.1-1.61,1.17-3.36.5-.85,1.36-1.76,2.47-2.25,1.12-.51,2.24-.48,3.47.03,1.19.52,2.35,1.61,3.01,2.78.63,1.09,1.09,2.66,1.15,4.69.03,1.01-.08,2.14-.48,3.22-.42,1.1-1.12,2.2-2.12,3.06-1.94,1.81-4.64,3.14-7.69,3.69-1.52.29-3.37.43-5.48.34-2.09-.09-4.48-.43-7.03-.88-5.1-.9-10.92-2.38-17.19-4.08-6.29-1.63-13.01-3.53-20.14-4.46-7.1-.91-14.44-.73-21.32.65-6.87,1.36-13.27,3.88-18.52,7.19-5.25,3.31-9.41,7.31-12.07,11.28-.77.92-1.25,1.97-1.81,2.89-.51.95-1.12,1.78-1.45,2.68-.71,1.78-1.47,3.25-1.82,4.56-.74,2.6-1.15,4.06-1.15,4.06Z"/>
            <path class="cls-1" d="M309.46,34.88c-.42.07-.75.25-.96.43-.5.34-1.01,1-1.6,2.11-.61,1.12-1.22,2.7-2.87,5.11-1.31,1.88-3.24,4.74-6.09,6.78-3.02,2.22-6.2,4.43-8.44,5.81-.39.28-4.48,2.24-9.78,6-2.62,1.92-5.5,4.34-8.09,7.38-2.6,3.03-4.79,6.69-6.48,10.54-3.46,7.71-4.49,16.25-4.09,22.51.14,3.15.62,5.74.97,7.54.42,1.79.66,2.81.66,2.81,0,0-.21-1.02-.58-2.82-.29-1.81-.71-4.4-.76-7.53-.23-6.24,1.04-14.66,4.67-22.12,1.77-3.73,4.03-7.24,6.62-10.08,2.59-2.86,5.47-5.12,8.07-6.91,5.28-3.49,9.37-5.27,9.77-5.48,2.98-1.27,6.48-2.28,10.05-3.58,3.88-1.41,7.12-3.99,9.11-6.81,2.57-3.65,2.77-6.99,2.42-8.82-.37-1.9-1.14-2.53-1.62-2.74-.25-.12-.59-.19-.96-.13Z"/>
            <path class="cls-1" d="M229.43,77.24c-.79,2.93-.39,6.02,1.13,8.71,1.26,2.23,3.17,3.95,5.47,4.97.47.21.97.39,1.47.54,4.95,1.46,10.07-1.36,11.4-6.28,1.09-4.02-1.33-8.25-5.36-9.44-3.32-.98-6.74.91-7.64,4.2-.36,1.32-.18,2.71.51,3.91.69,1.21,1.79,2.09,3.12,2.48,1.1.32,2.25.2,3.24-.34.72-.39,1.28-.98,1.66-1.68.14.11.58,3.2-3.09,3.93-2.16.43-4.54-.16-6.24-1.62-1.65-1.41-2.66-3.81-2.71-6.42-.05-2.87,1.06-5.43,3.11-7.21,4.81-4.17,11.05-4.62,18.26,1.96,4.36,4.33,7.89,11.9,6.8,26.01,0,0,1.83-6.91.65-14.77-1.12-7.5-5.74-16.05-14.63-18.5-7.46-2.11-15.13,2.14-17.14,9.55Z"/>
            <g>
              <path class="cls-1" d="M249.47,55.06c-.17.98.1,2.01.72,2.76.51.63,1.21.99,1.96,1.01.64-.02,1.08.03,1.24.05.42.09.94.23,1.42.44.96.4,1.87,1.02,2.69,1.83.96,1.02,1.81,2.22,2.28,3.19.74,1.35,1.36,3.62,1.37,3.64l.53,1.95v-2c0-.13,0-3.18-.2-4.36-.12-1.46-.47-2.94-1.04-4.37-.51-1.27-1.99-4.4-4.56-5.88-.69-.39-1.8-.89-2.68-.99-1.75-.28-3.43.95-3.74,2.74Z"/>
              <path class="cls-1" d="M280.48,45.71c.41,1.1.09,2.49-.86,3.72-.79,1.02-1.93,1.81-3.2,2.22-1.09.3-1.84.59-2.11.69-.71.33-1.58.75-2.36,1.26-1.59.98-3.05,2.18-4.35,3.59-1.5,1.73-2.8,3.61-3.46,5.03-1.08,2.01-1.84,5.08-1.85,5.12l-.65,2.63-.27-2.44c-.02-.16-.42-3.87-.25-5.39,0-1.83.41-3.81,1.2-5.84.71-1.81,2.81-6.35,7-9.46,1.12-.83,2.95-1.99,4.44-2.57,2.96-1.23,5.97-.59,6.73,1.43Z"/>
            </g>
            <path class="cls-1" d="M255.88,103.51c-.57.02-1.04.48-.97,1.01.06.44.28.86.3,1.17,0,.31-.16.75-.17,1.19,0,.54.52.97,1.09.95h.26s2.26-.21,3.02-.24c.76-.02,3.04.03,3.04.03h.26c.57-.03,1.04-.48.97-1.02-.06-.44-.28-.86-.3-1.17-.01-.31.16-.75.17-1.19,0-.54-.52-.97-1.09-.95h-.26s-2.26.21-3.02.23c-.76.03-3.04-.02-3.04-.02h-.26Z"/>
            <path class="cls-1" d="M256.32,109.66c-.57.02-1.04.48-.97,1.01.06.44.28.86.3,1.17.01.31-.16.75-.16,1.18,0,.54.52.96,1.08.95h.26s2.26-.21,3.01-.23c.75-.03,3.02.02,3.02.02h.26c.57-.03,1.04-.48.97-1.02-.06-.44-.28-.86-.3-1.17,0-.31.16-.75.16-1.18,0-.54-.52-.96-1.08-.95h-.26s-2.26.21-3.01.23c-.75.02-3.02-.02-3.02-.02h-.26Z"/>
          </g>
          <path class="cls-1" d="M173.66,106.19s.32-.47.88-1.31c.57-.83,1.43-2.01,2.58-3.34,2.27-2.67,5.98-5.82,10.71-7.3,4.67-1.56,10.05-1.5,14.34-.22,2.16.63,3.98,1.49,5.69,2.41,1.69.9,3.24,1.74,4.48,2.28,2.48,1.11,5.21,1.87,7.84,1.79,2.62-.03,5.08-1.07,6.5-2.46,1.47-1.37,2.12-2.98,2.18-4.09.07-1.13-.28-1.72-.61-1.75-.73-.07-1.39,1.79-3.76,2.9-1.18.58-2.58.86-4.33.69-1.74-.16-3.72-.79-5.86-1.75-1.13-.51-2.64-1.2-4.42-2.01-1.85-.84-4.25-1.74-6.85-2.21-5.2-1.02-11.31-.32-16.22,2.04-2.46,1.16-4.61,2.69-6.33,4.32-1.71,1.65-3.03,3.35-4.01,4.86-.98,1.51-1.67,2.8-2.13,3.72-.44.91-.69,1.43-.69,1.43Z"/>
          <path class="cls-1" d="M294.96,55.29s.52-.17,1.44-.46c.91-.31,2.26-.68,3.89-1.09,3.28-.78,7.84-1.5,12.68-1.34,4.85.11,9.91,1.01,14.38,2.01,2.2.49,4.41,1.02,6.37,1.28,1.96.28,3.67.37,4.97.34,2.67-.05,5.33-.66,7.49-1.92,2.17-1.22,3.72-3.17,4.35-4.93.68-1.78.63-3.41.3-4.41-.33-1.02-.83-1.44-1.17-1.37-.72.17-.79,2.06-2.39,3.97-.79.97-1.86,1.84-3.37,2.45-1.49.62-3.37.96-5.46,1-1.09.02-2.56.03-4.32-.09-1.77-.1-3.79-.38-6.16-.66-4.65-.54-10.11-.84-15.16-.28-5.06.51-9.61,1.91-12.77,3.17-1.58.66-2.86,1.22-3.71,1.66-.86.43-1.35.67-1.35.67Z"/>
          <path class="cls-1" d="M261.38,63.37s-.16-1.37-.11-3.53c.03-2.16.14-5.1.33-8.21.2-3.06.5-6.46,1.67-8.77,1.16-2.38,3.29-3.32,4.3-3.21,1.15.02,1.8.55,1.89,1.3.12.76-.4,1.36-1.05,1.57-.63.2-1.21,0-1.47-.27-.3-.28-.35-.6-.51-.65-.13-.07-.49.27-.31,1.03.17.77,1.22,1.63,2.57,1.53.66-.05,1.38-.31,1.97-.87.61-.57.98-1.47.96-2.4,0-.92-.46-1.99-1.3-2.65-.83-.67-1.84-.94-2.8-.94-.97-.02-2.26.33-3.36,1.15-1.12.81-2.08,2.06-2.7,3.54-.62,1.48-.88,3.13-.99,4.75-.11,1.6-.12,3.26-.06,4.84.1,3.15.29,6.1.48,8.27.17,2.17.47,3.53.47,3.53Z"/>
          <path class="cls-1" d="M321.3,66.8s14.32,8.41,10.98,30.2c0,0,8.84-11.36,6.25-18.63,0,0,12.81,6.65,29.93-.25,0,0-24.81-1.4-47.16-11.32Z"/>
        </g>
        <g>
          <path class="cls-1" d="M89.56,182.29l-.66.85s-.05.06-.1.13c-.88,1.11-6.91,8.62-10.3,9.61-.99.42-3.2.76-4.36-1.07-.01-.02-.03-.05-.07-.1-.02-.03-.04-.06-.07-.11-.37-.68-.66-2.37.69-3.57.09-.15,2.6-3.35,13.81-5.52l1.06-.21Z"/>
          <path class="cls-1" d="M58.94,161.4s-1.78-5.82,1.59-13.76c0,0-5.14,4.61-5.27,10.12,0,0-6.22-1.79-14.64,4.32,0,0,10.33-4.85,18.32-.69Z"/>
          <g>
            <path class="cls-1" d="M123.58,145.02s-.61,16.46-15.39,27.17c-4.94,3.78-11.57,6.57-18.86,6.75-4.17.27-13.38-.77-20.39-7.66-5.53-5.21-7.86-13.34-5.61-19.78,2.22-6.45,8.16-10.27,13.48-10.52,5.42-.33,9.74,2.43,11.78,5.13,2.08,2.75,2.94,6.24,2.45,9.48-.25,1.62-.85,3.16-1.71,4.52-.88,1.37-2.07,2.57-3.5,3.36-2.83,1.68-6.52,1.66-9.33.21-2.92-1.29-4.97-4.38-5.08-7.16-.2-2.83.98-5.2,2.54-6.63,1.63-1.47,3.55-1.8,4.94-1.66,1.42.14,2.39.7,2.94,1.13.56.44.74.78.68.86-.13.27-1.43-.6-3.51-.17-1,.22-2.11.83-2.81,1.9-.7,1.08-1.09,2.65-.73,4.17.36,1.52,1.13,3.02,2.85,4.09,1.69,1.04,4.01,1.56,6.38.87,1.18-.33,2.3-1.04,3.2-2.04.9-1.03,1.6-2.3,2-3.72.82-2.83.22-6.27-1.79-8.85-1.94-2.53-6.15-5.09-11.2-4.59-2.48.26-5.06,1.26-7.19,3.05-2.15,1.75-3.84,4.28-4.64,7.14-1.71,5.79.89,12.8,5.89,16.95,6.33,5.17,12.43,6.5,18.23,6.46,6.48.05,12.73-2.02,17.68-5.18,14.51-10.14,16.7-25.28,16.7-25.28Z"/>
            <path class="cls-1" d="M38.29,187.78c2.02,2.26,4.78,3.62,7.77,3.82,2.48.17,4.87-.46,6.87-1.8.42-.28.81-.59,1.19-.92,3.71-3.3,3.96-9.07.57-12.86-2.77-3.1-7.49-3.42-10.52-.73-2.48,2.21-2.65,6.07-.38,8.61.91,1.01,2.15,1.62,3.49,1.72,1.34.09,2.63-.34,3.62-1.22.82-.73,1.3-1.75,1.35-2.86.04-.81-.16-1.6-.55-2.29.17-.06,2.94,1.27,1.69,4.71-.73,2.02-2.43,3.67-4.49,4.28-2,.59-4.5.12-6.68-1.27-2.4-1.53-3.96-3.84-4.39-6.51-1.01-6.26,1.76-11.66,10.85-14.03,5.78-1.24,14.02,0,25.14,8.61,0,0-4.98-5.3-12.08-8.63-6.77-3.17-16.17-4.02-22.69,1.99-5.52,5.02-5.87,13.68-.76,19.39Z"/>
          </g>
          <path class="cls-1" d="M104.57,168.39s8.43-7.01,13.21-20.59c1.33-4.52,1.91-9.78.7-14.87-.51-2.57-1.73-4.96-3.18-7.16-1.61-2.08-3.55-4.04-5.77-5.44-4.46-2.78-10.43-2.94-14.36-.13-4,2.74-5.61,7.76-4.65,11.66.88,3.97,3.84,6.57,6.22,7.4,2.43.9,5.16.57,7.12-.72.99-.63,1.81-1.46,2.4-2.39.59-.92.88-1.98.9-3,.07-2.06-.88-3.87-2.13-5.04-1.27-1.18-2.81-1.52-4.18-1.36-1.37.14-2.53.93-3.19,1.82-.66.9-.8,1.98-.68,2.82.27,1.75,1.27,2.47,1.13,2.59,0,.07-1.26-.33-2.08-2.37-.36-.99-.48-2.44.23-3.88.71-1.4,2.14-2.71,4.15-3.14,1.97-.48,4.51.26,6.1,2.03,1.64,1.68,2.54,4.28,2.05,6.73-.21,1.22-.74,2.39-1.52,3.37-.78.97-1.74,1.78-2.86,2.37-2.23,1.19-5.03,1.4-7.55.49-2.49-.86-5.57-3.47-6.6-7.61-1.09-4.05.34-9.4,4.54-12.56,4.17-3.2,10.67-3.37,15.75-.5,2.55,1.46,4.67,3.48,6.5,5.78,1.65,2.4,2.97,5.08,3.47,7.88,1.19,5.58.28,11.07-1.35,15.63-5.91,14.74-14.38,20.19-14.38,20.19Z"/>
          <path class="cls-1" d="M92.71,170.7s9.04-1.83,14.6-7.68c5.76-5.76,7.49-14.69,7.49-14.69,0,0-3,8.46-8.11,14.08-5.6,5.89-13.98,8.29-13.98,8.29Z"/>
          <path class="cls-1" d="M63.75,261.3s-.42-.06-1.2-.18c-.79-.11-1.96-.26-3.42-.66-2.9-.74-7.17-2.2-11.39-5.63-4.26-3.34-8.18-8.76-10.39-15.42-2.22-6.65-2.8-14.5-1.03-22.15.91-3.82,2.41-7.57,4.6-10.97,2.16-3.4,5.07-6.4,8.53-8.56,3.44-2.24,7.49-3.52,11.51-3.81,2.02-.17,4.06-.1,6.05.26,1.99.34,3.96.93,5.77,1.87,3.68,1.74,6.55,4.99,8.16,8.31,1.67,3.36,2.22,7.03,1.83,10.33-.38,3.31-1.7,6.25-3.46,8.41-1.76,2.17-3.79,3.66-5.84,4.57-4.07,1.8-8.86,1.45-12.58-.57-1.87-1.01-3.48-2.4-4.72-4.01-1.26-1.6-2.18-3.59-2.47-5.55-.69-3.96.8-7.81,3.27-10.16,1.21-1.17,2.7-2.08,4.31-2.52,1.59-.42,3.22-.41,4.67-.07,2.94.72,5.08,2.69,6.14,4.76,1.1,2.16.91,4.31.36,5.74-.58,1.46-1.48,2.29-2.13,2.7-.66.42-1.1.44-1.19.32-.28-.32,1.04-1.3,1.4-3.59.15-1.12-.02-2.55-.9-3.77-.89-1.25-2.45-2.36-4.3-2.61-.92-.12-1.89-.03-2.8.3-.9.34-1.74.93-2.49,1.75-1.46,1.6-2.23,4.05-1.7,6.42.24,1.2.79,2.29,1.64,3.32.85,1.04,1.93,1.93,3.16,2.56,2.46,1.27,5.57,1.46,8.19.3,1.28-.56,2.76-1.62,4.02-3.11,1.25-1.49,2.23-3.53,2.57-5.92.75-4.69-1.51-11.16-7.05-14.09-5.49-2.98-13.5-2.73-19.54.85-6.28,3.52-10.56,10.21-12.53,17.23-1.96,7.08-1.75,14.58.1,21.02,1.84,6.46,5.37,11.84,9.35,15.26,3.95,3.52,8.09,5.15,10.94,6.02,1.43.46,2.59.67,3.37.81.78.15,1.2.23,1.2.23Z"/>
          <g>
            <path class="cls-1" d="M127.09,190.65s.05-.29.15-.87c.1-.57.33-1.41.75-2.44.46-1.01,1.17-2.22,2.29-3.36,1.11-1.15,2.67-2.21,4.64-2.8,3.83-1.25,9.56-.03,13.39,4.29,1.92,2.11,3.21,5.01,3.42,8.11.12,1.54-.08,3.16-.51,4.77-.41,1.6-1.07,3.17-2.01,4.59-1.82,2.88-4.71,5.25-8.19,6.41-1.73.59-3.59.88-5.48.85-1.87-.05-3.9-.5-5.8-1.1-3.81-1.33-7.39-3.8-9.92-7.24-2.61-3.38-4.05-7.68-4.12-12.04l.06-1.64c.03-.55.15-1.12.21-1.68.09-1.14.45-2.23.69-3.34.71-2.16,1.53-4.33,2.83-6.25,2.47-3.9,6.13-7.14,10.51-9.13,4.38-2,9.34-2.77,14.42-2.01,5.14.65,10.2,2.47,14.73,5.36,9.03,5.85,15.33,15.53,17.35,25.46.47,2.51.77,4.93.73,7.49.01,1.27,0,2.54-.14,3.79l-.15,1.88-.28,1.85c-.74,4.92-2.23,9.61-4.29,13.91-4.12,8.62-10.51,15.54-17.53,20.53-3.51,2.51-7.19,4.56-10.89,6.23-3.72,1.62-7.45,2.83-11.08,3.77-7.31,1.74-14.23,2.23-20.3,2.01-6.09-.22-11.32-1.14-15.55-2.07-2.12-.48-4-.95-5.6-1.46-1.62-.46-2.98-.87-4.06-1.28-2.18-.76-3.33-1.16-3.33-1.16,0,0,1.1.51,3.2,1.49,1.04.51,2.37,1.05,3.95,1.67,1.57.66,3.42,1.3,5.52,1.98,4.2,1.32,9.47,2.72,15.73,3.43,6.25.72,13.51.75,21.38-.57,3.91-.74,7.98-1.77,12.08-3.27,4.08-1.55,8.19-3.54,12.18-6.07,7.96-5.03,15.46-12.37,20.53-21.97,2.53-4.78,4.42-10.1,5.45-15.75l.38-2.13.23-2.16c.19-1.44.25-2.9.27-4.38.12-2.93-.16-6.06-.68-9.08-1.07-6.08-3.55-11.99-7.04-17.33-3.52-5.32-8.12-10.14-13.71-13.72-5.58-3.58-11.93-5.83-18.28-6.55-6.4-.89-13.1.21-18.72,2.95-5.66,2.72-10.34,7.08-13.4,12.26-1.59,2.56-2.61,5.4-3.41,8.23-.29,1.45-.66,2.87-.75,4.33-.06.73-.17,1.44-.19,2.17v2.22c.3,5.91,2.53,11.59,6.15,15.87,3.54,4.36,8.35,7.33,13.31,8.77,2.51.65,4.96,1.05,7.51.98,2.52-.09,4.95-.63,7.15-1.54,4.43-1.79,7.88-5.07,9.92-8.82,1.05-1.86,1.74-3.86,2.1-5.86.38-1.97.49-3.99.2-5.94-.55-3.88-2.43-7.28-4.9-9.62-2.44-2.38-5.39-3.78-8.16-4.31-2.76-.58-5.46-.29-7.54.59-2.12.85-3.68,2.17-4.75,3.5-1.08,1.33-1.68,2.65-2.05,3.74-.33,1.11-.47,1.98-.51,2.56-.04.59-.06.89-.06.89Z"/>
            <path class="cls-1" d="M100.24,305.42s-.03.19-.1.56c-.07.37-.21.9-.49,1.56-.57,1.26-1.89,3.16-4.44,3.92-2.44.79-6.1,0-8.52-2.77-1.21-1.35-2.03-3.2-2.15-5.18-.11-1.95.45-4.15,1.64-5.95,1.18-1.82,3.02-3.32,5.23-4.04,1.1-.37,2.28-.54,3.48-.51,1.19.03,2.48.33,3.69.72,4.88,1.61,8.91,6.69,8.83,12.3.03,5.71-3.56,11.49-9.19,13.94-2.8,1.24-5.94,1.71-9.18,1.2-3.27-.43-6.48-1.61-9.35-3.47-5.7-3.79-9.72-9.95-10.93-16.28-.61-3.13-.53-6.42-.02-9.54.52-3.12,1.52-6.1,2.87-8.83,2.71-5.47,6.81-9.87,11.28-13.08,4.47-3.25,9.36-5.27,14-6.41,9.38-2.25,17.54-.84,22.82.7,1.33.4,2.52.76,3.51,1.17,1.01.37,1.86.69,2.53,1.01,1.35.6,2.07.91,2.07.91,0,0-.68-.39-1.97-1.12-.64-.39-1.46-.79-2.44-1.26-.97-.5-2.13-.98-3.44-1.51-5.2-2.04-13.52-4.26-23.69-2.58-5.03.87-10.45,2.7-15.55,5.98-5.09,3.24-9.9,7.89-13.24,13.98-3.31,6.09-5.17,13.53-3.9,21.43,1.34,7.8,6.07,15.3,13.17,20.03,3.57,2.32,7.64,3.79,11.72,4.28,4.1.59,8.42-.07,12.05-1.81,3.65-1.73,6.68-4.51,8.67-7.83,1.02-1.65,1.7-3.46,2.22-5.28.41-1.86.71-3.67.62-5.6-.16-3.81-1.58-7.46-3.89-10.23-2.26-2.82-5.35-4.74-8.53-5.67-1.61-.42-3.18-.7-4.82-.65-1.62.05-3.18.39-4.6.96-2.86,1.14-5.07,3.24-6.39,5.65-.68,1.19-1.12,2.48-1.36,3.76-.25,1.27-.32,2.56-.14,3.81.35,2.5,1.55,4.68,3.13,6.19,3.19,3.07,7.4,3.53,10.07,2.4,2.75-1.13,3.9-3.29,4.35-4.64.21-.71.3-1.27.33-1.64.02-.37.04-.57.04-.57Z"/>
            <path class="cls-1" d="M100.27,255.09s9.56,3.26,22.36.72c4.13-1.04,8.45-3.01,11.76-6.26,1.72-1.57,2.95-3.59,3.92-5.72.8-2.19,1.34-4.58,1.31-6.92-.08-4.7-2.92-9.35-7.03-11.08-4.08-1.81-8.74-.76-11.25,1.76-2.61,2.49-3.14,5.95-2.59,8.16.51,2.28,2.12,4.22,4.09,5.14.97.47,2.02.72,3.03.75,1,.03,1.96-.23,2.75-.68,1.61-.89,2.53-2.45,2.81-3.94.28-1.52-.23-2.85-1.02-3.83-.79-.99-1.97-1.51-2.98-1.61-1.02-.09-1.91.29-2.5.76-1.21,1.01-1.27,2.11-1.43,2.05-.05.04-.37-1.12.79-2.68.58-.73,1.63-1.49,3.1-1.6,1.42-.09,3.14.4,4.47,1.75,1.35,1.29,2.04,3.57,1.47,5.61-.48,2.02-2.02,3.91-4.15,4.65-1.05.39-2.2.52-3.34.37-1.13-.15-2.23-.52-3.24-1.11-2.02-1.17-3.56-3.22-4.12-5.57-.58-2.3-.1-5.86,2.57-8.54,2.57-2.69,7.38-4.04,11.89-2.26,4.52,1.73,7.88,6.64,8.19,11.86.14,2.62-.36,5.18-1.21,7.63-1.03,2.36-2.42,4.6-4.32,6.27-3.69,3.47-8.36,5.28-12.67,6.12-14.24,2.2-22.63-1.8-22.63-1.8Z"/>
            <path class="cls-1" d="M92.95,261.7s-1.43.49-3.99,1.36c-1.28.41-2.71,1.26-4.42,2.04-.87.37-1.66,1.02-2.57,1.57-.87.6-1.88,1.12-2.74,1.92-3.77,2.78-7.5,6.98-10.55,12.17-3.05,5.2-5.33,11.47-6.52,18.16-1.24,6.69-1.3,13.82-.32,20.67.99,6.85,2.97,13.53,4.69,19.78,1.75,6.26,3.31,12.15,4.29,17.38.46,2.62.87,5.04,1.09,7.31.22,2.26.24,4.32.12,6.1-.23,3.55-1.18,7.14-3.15,10.17-1,1.49-2.16,2.92-3.56,4.16-1.43,1.25-3.08,2.25-4.89,2.86-3.6,1.24-7.93.66-11.1-1.76-3.1-2.37-4.6-5.77-4.76-8.91-.23-3.15,1.23-6.07,3-7.51,1.75-1.51,3.64-2.02,5.14-2.1,1.51-.07,2.64.31,3.29.7.66.39.89.75.82.92-.13.43-1.61.1-3.36,1.17-.85.5-1.76,1.36-2.25,2.47-.51,1.11-.48,2.24.03,3.47.52,1.19,1.61,2.35,2.78,3.01,1.09.63,2.66,1.09,4.69,1.15,1.01.03,2.14-.08,3.22-.48,1.1-.42,2.2-1.12,3.06-2.12,1.81-1.94,3.14-4.64,3.69-7.69.29-1.52.43-3.37.34-5.48-.09-2.09-.43-4.48-.88-7.02-.9-5.1-2.38-10.92-4.08-17.19-1.63-6.29-3.53-13.01-4.46-20.14-.91-7.1-.73-14.44.65-21.32,1.36-6.87,3.88-13.27,7.19-18.52,3.31-5.25,7.31-9.41,11.28-12.07.92-.77,1.97-1.25,2.89-1.81.95-.51,1.78-1.12,2.68-1.45,1.78-.71,3.25-1.47,4.56-1.82,2.6-.74,4.06-1.15,4.06-1.15Z"/>
            <path class="cls-1" d="M35.07,309.27c.06-.42.25-.75.43-.96.33-.5,1-1.01,2.11-1.6,1.11-.61,2.7-1.22,5.11-2.87,1.88-1.31,4.74-3.24,6.78-6.09,2.22-3.02,4.43-6.2,5.81-8.44.28-.39,2.24-4.48,6-9.78,1.92-2.62,4.34-5.5,7.38-8.09,3.03-2.6,6.69-4.79,10.54-6.48,7.71-3.47,16.25-4.49,22.51-4.09,3.15.14,5.73.62,7.53.96,1.79.42,2.81.66,2.81.66,0,0-1.03-.21-2.82-.59-1.81-.29-4.4-.71-7.53-.76-6.24-.23-14.66,1.04-22.12,4.67-3.73,1.77-7.24,4.03-10.08,6.62-2.86,2.59-5.12,5.47-6.9,8.07-3.49,5.28-5.27,9.37-5.48,9.77-1.27,2.98-2.28,6.48-3.58,10.05-1.41,3.88-3.99,7.12-6.81,9.11-3.65,2.57-6.99,2.77-8.82,2.42-1.9-.37-2.53-1.14-2.74-1.62-.12-.25-.19-.59-.13-.96Z"/>
            <path class="cls-1" d="M77.43,229.25c2.93-.8,6.02-.39,8.71,1.13,2.22,1.26,3.95,3.17,4.97,5.47.21.48.39.97.54,1.47,1.46,4.95-1.36,10.07-6.28,11.41-4.02,1.09-8.25-1.33-9.44-5.36-.98-3.32.91-6.74,4.2-7.64,1.32-.36,2.71-.18,3.91.51,1.21.69,2.09,1.79,2.48,3.12.32,1.1.2,2.25-.34,3.24-.39.72-.98,1.28-1.68,1.66.11.14,3.2.58,3.93-3.09.43-2.16-.16-4.54-1.62-6.24-1.41-1.65-3.81-2.66-6.42-2.71-2.87-.05-5.43,1.05-7.21,3.11-4.17,4.81-4.62,11.05,1.96,18.26,4.33,4.36,11.9,7.9,26.01,6.8,0,0-6.91,1.83-14.77.65-7.5-1.12-16.05-5.74-18.5-14.63-2.11-7.46,2.14-15.13,9.55-17.14Z"/>
            <g>
              <path class="cls-1" d="M55.24,249.28c.98-.17,2.01.1,2.76.72.63.51.99,1.21,1.01,1.96-.02.64.03,1.08.05,1.24.1.42.23.94.44,1.42.4.96,1.02,1.87,1.83,2.69,1.02.96,2.22,1.81,3.19,2.28,1.35.74,3.62,1.36,3.64,1.37l1.95.53h-2c-.13,0-3.18,0-4.36-.19-1.46-.12-2.94-.47-4.37-1.04-1.27-.52-4.4-1.99-5.88-4.56-.39-.69-.89-1.8-1-2.68-.28-1.76.95-3.43,2.74-3.74Z"/>
              <path class="cls-1" d="M45.9,280.29c1.1.41,2.49.09,3.72-.86,1.02-.79,1.81-1.93,2.22-3.2.3-1.09.59-1.84.69-2.11.33-.71.75-1.58,1.26-2.36.98-1.59,2.18-3.05,3.59-4.35,1.73-1.5,3.61-2.8,5.03-3.46,2.01-1.07,5.08-1.84,5.11-1.85l2.64-.65-2.44-.27c-.16-.02-3.87-.42-5.39-.25-1.83,0-3.81.41-5.84,1.2-1.81.71-6.35,2.81-9.46,7-.83,1.12-1.99,2.95-2.57,4.44-1.23,2.96-.59,5.97,1.43,6.73Z"/>
            </g>
            <path class="cls-1" d="M103.69,255.69c.02-.57.48-1.04,1.02-.97.44.06.86.28,1.17.3.31.01.75-.16,1.19-.17.54,0,.97.52.95,1.09v.26s-.21,2.26-.24,3.02c-.02.76.02,3.04.02,3.04v.26c-.03.57-.48,1.04-1.02.97-.44-.06-.86-.28-1.17-.3-.31-.01-.75.16-1.19.16-.54,0-.97-.52-.95-1.08v-.26s.21-2.26.24-3.02c.02-.76-.02-3.03-.02-3.03v-.26Z"/>
            <path class="cls-1" d="M109.84,256.14c.02-.57.47-1.04,1.01-.97.44.06.86.28,1.17.3.31,0,.75-.16,1.19-.16.54,0,.96.52.94,1.08v.26s-.21,2.26-.23,3.01c-.02.75.03,3.02.03,3.02v.26c-.03.57-.48,1.04-1.02.97-.44-.06-.86-.28-1.17-.3-.31-.01-.75.16-1.19.16-.54,0-.96-.52-.94-1.08v-.26s.21-2.26.23-3.01c.03-.75-.02-3.02-.02-3.02v-.26Z"/>
          </g>
          <path class="cls-1" d="M106.38,173.48s-.47.32-1.31.88c-.83.57-2.01,1.43-3.34,2.58-2.67,2.27-5.82,5.98-7.3,10.71-1.56,4.67-1.5,10.06-.22,14.34.62,2.16,1.49,3.98,2.41,5.69.9,1.7,1.74,3.24,2.28,4.48,1.11,2.48,1.87,5.21,1.79,7.84-.03,2.62-1.08,5.08-2.46,6.5-1.37,1.47-2.98,2.12-4.09,2.18-1.13.07-1.72-.28-1.75-.61-.07-.73,1.79-1.39,2.9-3.76.58-1.18.86-2.58.69-4.33-.16-1.74-.79-3.72-1.75-5.86-.52-1.13-1.2-2.64-2.01-4.42-.84-1.85-1.74-4.25-2.21-6.85-1.02-5.2-.32-11.31,2.04-16.22,1.16-2.46,2.69-4.61,4.33-6.33,1.65-1.72,3.35-3.03,4.86-4.01,1.51-.98,2.8-1.67,3.72-2.13.91-.44,1.43-.69,1.43-.69Z"/>
          <path class="cls-1" d="M55.48,294.78s-.17.52-.46,1.44c-.31.91-.68,2.26-1.09,3.89-.78,3.28-1.5,7.84-1.34,12.69.11,4.84,1.01,9.91,2.01,14.38.49,2.19,1.02,4.4,1.28,6.36.28,1.96.37,3.67.34,4.97-.05,2.67-.66,5.33-1.92,7.49-1.22,2.17-3.17,3.72-4.93,4.35-1.78.68-3.41.63-4.41.3-1.02-.33-1.44-.83-1.37-1.17.17-.72,2.06-.79,3.97-2.39.97-.79,1.84-1.86,2.45-3.37.62-1.49.96-3.37,1-5.46.02-1.09.03-2.56-.09-4.32-.1-1.77-.38-3.79-.66-6.16-.54-4.65-.84-10.11-.28-15.16.5-5.06,1.91-9.61,3.17-12.77.66-1.58,1.21-2.86,1.66-3.71.43-.86.67-1.35.67-1.35Z"/>
          <path class="cls-1" d="M63.56,261.19s-1.37-.15-3.53-.1c-2.16.03-5.1.14-8.21.33-3.06.2-6.46.5-8.77,1.67-2.38,1.16-3.32,3.29-3.21,4.3.02,1.15.55,1.8,1.3,1.89.76.12,1.36-.4,1.57-1.05.2-.63,0-1.21-.27-1.47-.28-.3-.6-.35-.65-.51-.06-.13.27-.49,1.03-.31.77.17,1.64,1.22,1.53,2.57-.04.66-.3,1.38-.87,1.98-.57.61-1.47.98-2.4.96-.92,0-1.99-.46-2.65-1.3-.67-.83-.94-1.84-.94-2.8-.02-.97.33-2.26,1.15-3.36.81-1.12,2.06-2.08,3.53-2.7,1.48-.62,3.13-.88,4.75-.98,1.61-.11,3.26-.12,4.84-.06,3.15.1,6.1.29,8.27.48,2.17.17,3.53.47,3.53.47Z"/>
          <path class="cls-1" d="M66.99,321.12s8.41,14.32,30.2,10.98c0,0-11.36,8.84-18.63,6.25,0,0,6.65,12.8-.25,29.93,0,0-1.4-24.81-11.32-47.16Z"/>
        </g>
      </g>
      <polygon class="cls-1" points="171.35 21.72 186.81 6.26 486.84 6.26 486.84 0 184.24 0 152.41 31.83 31.98 152.25 21.91 162.33 .34 183.86 .34 486.64 6.6 486.64 6.6 186.46 21.91 171.16 21.91 486.64 31.98 486.64 31.98 161.08 161.24 31.83 487.04 31.83 487.04 21.72 171.35 21.72"/>
      <path class="cls-1" d="M0,.13v116.86h31.98V31.83h84.87V.13H0ZM106.84,21.72H21.91v85.25h-11.89V10.14h96.83v11.58Z"/>
    </g>
  </g>
</svg>