<?xml version="1.0" encoding="utf-8"?>
<!-- Generator: Adobe Illustrator 28.4.1, SVG Export Plug-In . SVG Version: 6.00 Build 0)  -->
<svg version="1.1" id="Layer_2_00000103949014731805937980000012374735266144732328_"
	 xmlns="http://www.w3.org/2000/svg" xmlns:xlink="http://www.w3.org/1999/xlink" x="0px" y="0px" viewBox="0 0 474.8 474.8"
	 style="enable-background:new 0 0 474.8 474.8;" xml:space="preserve">
<g id="Layer_1-2">
	<g>
		<g>
			<path d="M140.1,141.6l-1.3-2.8l2.7,1.3c0.1,0.1,0.2,0.1,0.4,0.2c3.6,1.7,28,13.6,32.9,22.3c1.8,2.4,4.2,8.2-0.1,12.5
				c-0.1,0.1-0.1,0.1-0.2,0.2c-0.1,0.1-0.1,0.1-0.3,0.3c-1.6,1.4-6,3.2-10.2,0.2C163.7,175.7,153.3,170.8,140.1,141.6L140.1,141.6z"
				/>
			<path d="M134,133.9c0,0,46.4,26,73.1-1.6c0,0,3.2-3.3,3.7-6.8c0.5-3.7-1.6-9.3-8-10.3C192.1,113.5,183.5,139.3,134,133.9
				L134,133.9z M150,137.7c31.3-1.1,38.6-11.6,46-12.7c2.7-0.4,4.6,2.3,4.4,3.9c-0.1,1.8-2.1,3.3-2.1,3.3
				C181.5,147.4,150,137.7,150,137.7L150,137.7z"/>
			<path d="M115.4,203c1,6.4,6.6,8.5,10.3,8c3.5-0.5,6.8-3.7,6.8-3.7c27.5-26.8,1.6-73.4,1.6-73.4
				C139.4,183.6,113.7,192.2,115.4,203L115.4,203z M129.1,200.6c-1.6,0.1-4.3-1.7-3.9-4.5c1.1-7.4,11.5-14.7,12.6-46.2
				c0,0,9.7,31.6-5.4,48.5C132.3,198.5,130.9,200.5,129.1,200.6z"/>
		</g>
		<path d="M54.9,52.7l1.8,3.9l-3.9-1.8c-0.1-0.1-0.3-0.2-0.6-0.3C47.1,52,12.6,35.1,5.7,22.9C3.1,19.4-0.2,11.2,5.7,5.2
			c0.1-0.1,0.2-0.2,0.3-0.3c0.1-0.1,0.2-0.2,0.4-0.4c2.3-2,8.5-4.5,14.4-0.3C21.5,4.4,36.1,11.4,54.9,52.7z"/>
		<g>
			<g>
				<path d="M95.4,25.9c0.6,0,1.2-0.4,1.5-1c0.4-0.5,0.8-1.5,0.8-3.1c-0.1-1.6-0.6-4-2.8-6.5c-1.1-1.2-2.7-2.4-4.8-3.2
					c-1-0.4-2.2-0.7-3.4-0.8c-1.2-0.1-2.5-0.1-3.8,0.1c-2.7,0.4-5.5,1.6-8.1,3.8c-2.5,2.2-4.7,5.5-5.3,9.5c-0.5,3.2-0.2,6.4,1,9.8
					c1.3,3.2,3.5,6.3,6.5,8.4c3,2.2,6.7,3.5,10.5,3.6c3.6,0.1,7.2-0.8,10.3-2.4c6.3-3.2,10.4-9.4,11.2-15.4c0.9-6-0.7-11.2-2.7-15
					c-0.4-0.6-2.1-4.6-7.3-8.5c-2.6-1.9-6.1-3.7-10.3-4.5c-4.2-0.8-9.2-0.7-14.1,1c-4.9,1.8-9.6,5.1-13.2,9.8
					c-1.7,2.4-3.2,5-4.3,7.9c-1,2.9-1.7,5.9-1.9,9.1c-0.3,6.3,1.3,12.8,3.7,18.8c2.4,6.1,5.6,11.9,9.2,17.4
					c7.1,11.1,15.6,21.2,24.1,30c8.5,8.8,17.2,16.3,25,22.2c3.9,2.9,7.7,5.4,11,7.4c3.4,2,6.5,3.6,9.1,4.6c1.3,0.6,2.5,0.9,3.6,1.3
					c1.1,0.3,2,0.5,2.7,0.7c1.5,0.2,2.3,0.3,2.3,0.3s-0.8-0.1-2.3-0.3c-0.7-0.2-1.6-0.4-2.7-0.7c-1-0.4-2.2-0.8-3.5-1.3
					c-2.6-1.1-5.7-2.7-9.1-4.7c-3.4-2.1-7-4.6-10.9-7.6c-7.7-5.9-16.3-13.5-24.6-22.5C84.3,85.1,76,75,69.1,63.9
					c-3.4-5.5-6.5-11.3-8.8-17.3c-2.2-6-3.6-12.2-3.3-18.1c0.3-3,0.9-5.8,2-8.5c1-2.7,2.5-5.1,4.1-7.2c3.3-4.3,7.8-7.3,12.2-8.8
					c4.5-1.4,9-1.5,12.8-0.6c3.8,0.9,6.9,2.5,9.1,4.2c4.5,3.6,5.8,7.1,6.1,7.6c1.8,4.1,2.2,9.5,0.5,13.8c-1.7,4.4-5.6,7.8-9.9,8.9
					c-2.1,0.6-4.4,0.6-6.4,0.2c-1.9-0.4-3.6-1.3-4.9-2.6c-1.3-1.2-2.2-2.8-2.7-4.3c-0.5-1.5-0.6-3.3-0.4-4.5
					c0.6-3.3,3.1-5.2,5.3-5.8c0.6-0.2,1.1-0.2,1.6-0.3c0.4,0,0.9,0,1.3,0c0.8,0.1,1.5,0.4,2.2,0.7c2.4,1.5,3.2,3.2,4,3.8
					C94.3,25.6,94.8,25.9,95.4,25.9L95.4,25.9z"/>
				<path d="M472.5,16.8c-1.6,1.7-3.8,2.7-6.1,2.9c-4,0.2-7.4-3-7.6-7c-0.1-1.6,0.5-3.2,1.6-4.4s2.6-1.9,4.2-2
					c1.4,0,2.7,0.4,3.7,1.3c0.7,0.7,1.2,1.5,1.5,2.4c0.1,0,0.2-0.1,0.4-0.1c0,0,0.2-0.1,0.2-0.6c0.1-0.7-0.3-2.8-2.1-4.4
					c-1.8-1.5-4.7-3-9.7-0.8c-2.9,1-12.3,8.6-22.3,19c-18.2,19.1-29.5,17.3-34.2,17.1c-11.9-1.5-20.5-12.2-19.1-24.2
					c0.5-4.7,2.9-8.9,6.6-11.9c3.1-2.5,6.8-3.8,10.6-3.9c0.8,0,1.6,0,2.4,0.1c7.9,0.9,13.6,8.1,12.8,16c-0.7,6.5-6.6,11.1-13,10.4
					c-5.3-0.6-9.1-5.4-8.5-10.7c0.2-2.1,1.3-4,3-5.4s3.8-1.9,5.9-1.7c1.8,0.2,3.3,1.1,4.4,2.4c0.8,1,1.3,2.2,1.4,3.4
					c0.3-0.1,0.5-0.2,0.8-0.4c0.4-0.3,0.5-0.8,0.5-1.6c-0.1-2.1-1.3-4.1-3.4-5.6c-2.8-2-6.6-2.5-9.9-1.4c-3.2,1.1-6,3.9-7.5,7.7
					c-1.7,4.1-1.6,8.5,0.4,12.3c4.5,8.9,13.7,13.8,27.7,8.6c4.9-2.4,10.5-6,17.5-12.9c18.8-18.6,24.7-21.3,28.8-21.5
					c0.2,0,0.4,0,0.5,0c0,0,0,0,0,0c5.8-0.1,10.7,4.4,10.9,10.2C474.9,12.8,474.1,15.1,472.5,16.8L472.5,16.8z"/>
				<g>
					<path d="M132.5,126.9c8.7,4.8,18.7,5.9,28.2,3.1c7.9-2.3,14.6-7,19.4-13.5c1-1.3,1.9-2.8,2.7-4.2c8-14.6,2.7-32.9-11.9-40.9
						c-11.9-6.6-26.9-2.2-33.4,9.7c-5.4,9.8-1.8,22,7.9,27.4c3.9,2.1,8.4,2.6,12.7,1.4c4.3-1.2,7.8-4.1,9.9-8
						c1.8-3.2,2.2-7,1.2-10.5c-0.7-2.6-2.2-4.8-4.1-6.5c0.5-0.4,10.5,0.6,10.2,12.8c-0.1,7.2-3.6,14.2-9.4,18.5
						c-5.6,4.1-13.9,5.5-22.1,3.6c-9.1-2.1-16.4-7.5-20.5-15.4c-9.8-18.5-6.9-38.5,18.8-56.3c16.6-10.5,42.9-15.8,86.6-1.5
						c0,0-20.5-11.1-46-13.5c-24.4-2.2-54.5,5.8-68.3,32.1C102.5,87.3,110.6,114.8,132.5,126.9L132.5,126.9z"/>
					<path d="M363.9,1.6c-6.4-2.4-13.2-2.2-19.4,0.7c-5.1,2.3-9.2,6.2-11.8,11.1c-0.5,1-1,2.1-1.4,3.1c-4,10.7,1.4,22.6,12.1,26.6
						c8.7,3.3,18.5-1.2,21.7-9.9c2.7-7.1-1-15.1-8.1-17.8c-2.9-1.1-6-1-8.7,0.3c-2.8,1.3-4.9,3.5-6,6.4c-0.9,2.4-0.8,4.9,0.2,7.2
						c0.8,1.7,2,3.1,3.5,4c-0.3,0.3-7.2,0.6-8.2-7.7c-0.6-4.9,1.1-10,4.5-13.5c3.4-3.4,8.9-5.1,14.6-4.6c6.4,0.5,11.8,3.5,15.5,8.4
						c8.5,11.5,9.2,26.3-6.5,40.9c-10.2,8.7-27.9,13.3-59.3,8.7c0,0,60.2,19.8,75.7-23.9C388.1,25.5,379.9,7.7,363.9,1.6L363.9,1.6z
						"/>
					<path d="M230.7,41.4c7.6,2.5,14.7,7,19.5,14.3c3.8,5.7,7.1,14.2,5.3,21l0,0c0,0-3.1,11.2-12.7,4.6c0,0-0.4,2.7,0.6,4.5
						c-5.3-0.6-8.6-4.6-8.8-10.2c-0.2-8,11.7-10.9,14.3-1.4c0.6-11.5-12.9-12.6-18.4-5.2c-1.3,1.7-3.3,5.5-1.8,9.3
						c0,0-3.9-1.7-4.6,2.9c0,0,2.3-1,5.1,2.5c1.5,1.8,4.6,4.1,7.1,5.2c7.9,3.2,17.3-0.2,20.6-8.1c1.6-4.2,2.9-11.9-2.9-22.1
						c1.1-0.2,2.4-1.1,1.8-3.9c0,0-2.7,0-5.7-2.7c-2.6-2.4-6.2-5-9.7-6.7l0,0C237.6,43.6,234.3,42.2,230.7,41.4L230.7,41.4z"/>
					<path d="M124.5,1c-0.5,0.1-0.8,0.5-0.9,0.9c-0.4,0.7-0.8,2.1-0.1,5c0.4,1.4,1,3.2,2.2,5.3c1.2,2.1,3,4.6,5.8,6.9
						c2.3,1.8,5.3,3.6,8.6,4.6c3.4,1,7.1,1.6,10.6,1.7c7.2,0.3,13.9-1.5,18.4-1.9c0.8-0.1,8.8-0.6,20.2,0.6
						c11.4,1.1,26.3,3.8,40.1,9.5c13.8,5.7,27.1,12.1,37.1,16.9c5,2.4,9.2,4.3,12.1,5.6s4.7,1.8,4.7,1.8s-1.7-0.6-4.7-1.9
						c-3-1.3-7.1-3.3-12-5.8c-9.9-5-23.1-11.7-36.9-17.6c-13.8-5.9-28.8-9-40.3-10.3c-11.5-1.4-19.6-1.1-20.5-1.1c-1.5,0-3,0-4.6,0
						c-1.5,0-3,0-4.6-0.1c-1.5-0.1-3.1-0.2-4.6-0.4c-1.5-0.3-3.1-0.4-4.5-0.8c-3-0.6-5.7-1.7-8.1-2.8c-2.4-1.2-4.4-2.6-6.2-4
						c-4.3-3.7-6.2-7-7.8-9c-1.5-2-2.4-2.8-3.1-3.1C125.4,0.9,124.9,0.8,124.5,1L124.5,1z"/>
					<path d="M134.9,29.4c0,0-14.5-2.2-18.3-21.1c0,0-7.1,14.6,2.5,23.9c0,0-22.9,9.6-15,36.5C104.2,68.7,107.2,43.9,134.9,29.4
						L134.9,29.4z"/>
					<path d="M384.9,45.7c0,0-0.4,0.9-1.3,2.7c-0.9,1.8-2.3,4.3-4.4,7.4c-2.2,3.1-5.2,6.6-9.5,9.9c-4.3,3.2-9.8,6.2-16.4,8
						c-6.5,1.9-14.1,2.6-22,2.3c-8-0.2-16.4-1.6-25.1-3.7c-17.4-4.3-35.6-11.6-53.9-20.8c-39.1-20.6-71.9-26.7-99.3-19.3
						c-12.9,3.1-22.3,8.8-28.2,13.2c-3,2.2-5.1,4.2-6.5,5.6c-1.4,1.4-2,2.2-2,2.2s0.6-0.9,1.9-2.3c1.3-1.5,3.3-3.6,6.2-6
						c5.7-4.8,15-11,28.1-14.8c29.8-8.4,62.9-3.3,101.7,17.6c18.1,9.1,36,16.6,52.9,21.2c16.8,4.6,32.9,6,45.7,2.8
						c6.4-1.5,11.8-4.1,16.1-7.1c4.3-3,7.5-6.3,9.8-9.2c2.3-2.9,3.8-5.4,4.8-7.1C384.4,46.6,384.9,45.7,384.9,45.7L384.9,45.7z"/>
				</g>
				<path d="M261.1,62.3c0,0,6.1,17.7-2.7,23.2c0,0,13.3-5.3,9.5-14.7c0,0,16.9,19.7,56,9.7C324,80.6,285.3,79.8,261.1,62.3
					L261.1,62.3z"/>
			</g>
			<g>
				<path d="M25.9,95.4c0,0.6-0.4,1.2-1,1.5c-0.5,0.4-1.5,0.8-3.1,0.8c-1.6-0.1-4-0.6-6.5-2.8c-1.2-1.1-2.4-2.7-3.2-4.8
					c-0.4-1-0.7-2.2-0.8-3.4c-0.1-1.2-0.1-2.4,0.1-3.8c0.4-2.7,1.6-5.5,3.8-8.1c2.2-2.5,5.5-4.7,9.5-5.3c3.2-0.5,6.4-0.2,9.8,1
					c3.2,1.3,6.3,3.5,8.4,6.5c2.2,3,3.5,6.7,3.6,10.5c0.1,3.6-0.8,7.2-2.4,10.3c-3.2,6.3-9.4,10.4-15.4,11.2c-6,0.9-11.2-0.7-15-2.7
					c-0.6-0.4-4.6-2.1-8.5-7.3c-1.9-2.6-3.7-6.1-4.5-10.3c-0.8-4.2-0.7-9.2,1-14.1c1.8-4.9,5.1-9.6,9.8-13.2c2.4-1.7,5-3.2,7.9-4.3
					c2.9-1,5.9-1.7,9.1-1.9c6.3-0.3,12.8,1.3,18.8,3.7c6.1,2.4,11.9,5.6,17.4,9.2c11.1,7.1,21.2,15.6,30,24.1
					c8.8,8.5,16.3,17.2,22.2,25c2.9,3.9,5.4,7.7,7.4,11.1c2,3.4,3.6,6.5,4.6,9.1c0.6,1.3,0.9,2.5,1.3,3.6c0.3,1.1,0.5,2,0.7,2.7
					c0.2,1.5,0.3,2.3,0.3,2.3s-0.1-0.8-0.3-2.3c-0.2-0.7-0.4-1.6-0.7-2.7c-0.4-1-0.8-2.2-1.3-3.5c-1.1-2.6-2.7-5.7-4.7-9.1
					c-2.1-3.4-4.6-7-7.6-10.9c-5.9-7.7-13.5-16.3-22.5-24.6C85.1,84.3,75,76,63.9,69.1c-5.5-3.4-11.3-6.5-17.3-8.8
					c-6-2.2-12.2-3.6-18.1-3.3c-3,0.3-5.8,0.9-8.5,2c-2.7,1-5.1,2.5-7.2,4.1C8.5,66.5,5.5,70.9,4,75.4c-1.4,4.5-1.5,9-0.6,12.8
					c0.9,3.8,2.5,6.9,4.2,9.1c3.6,4.5,7.1,5.8,7.6,6.1c4.1,1.8,9.5,2.2,13.8,0.5c4.4-1.7,7.8-5.6,8.9-9.9c0.6-2.1,0.6-4.4,0.2-6.4
					c-0.4-1.9-1.3-3.6-2.6-4.9c-1.2-1.3-2.8-2.2-4.3-2.7c-1.5-0.5-3.3-0.6-4.5-0.4c-3.3,0.6-5.2,3.1-5.8,5.3
					c-0.2,0.6-0.2,1.1-0.3,1.6c0,0.4,0,0.9,0,1.3c0.1,0.8,0.4,1.5,0.7,2.2c1.5,2.4,3.2,3.2,3.8,4C25.6,94.3,25.9,94.8,25.9,95.4
					L25.9,95.4z"/>
				<path d="M16.8,472.5c1.7-1.6,2.7-3.8,2.9-6.1c0.2-4-3-7.4-7-7.6c-1.6-0.1-3.2,0.5-4.4,1.6c-1.2,1.1-1.9,2.6-2,4.2
					c0,1.4,0.4,2.7,1.3,3.7c0.7,0.7,1.5,1.2,2.4,1.5c0,0.1-0.1,0.2-0.1,0.4c0,0-0.1,0.2-0.6,0.2c-0.7,0.1-2.8-0.3-4.4-2.1
					s-3-4.7-0.8-9.7c1-2.9,8.6-12.3,19-22.3c19.1-18.2,17.3-29.5,17.1-34.2c-1.5-11.9-12.2-20.5-24.2-19.1
					c-4.7,0.5-8.9,2.9-11.9,6.6c-2.5,3.1-3.8,6.8-3.9,10.6c0,0.8,0,1.6,0.1,2.4c0.9,7.9,8.1,13.6,16,12.8c6.5-0.7,11.1-6.6,10.4-13
					c-0.6-5.3-5.4-9.1-10.7-8.5c-2.1,0.2-4,1.3-5.4,3s-1.9,3.8-1.7,5.9c0.2,1.8,1.1,3.3,2.4,4.4c1,0.8,2.2,1.3,3.4,1.4
					c-0.1,0.3-0.2,0.5-0.4,0.8c-0.3,0.4-0.8,0.5-1.6,0.5c-2.1-0.1-4.1-1.3-5.6-3.4c-2-2.8-2.5-6.6-1.4-9.9c1.1-3.2,3.9-6,7.7-7.5
					c4.1-1.7,8.5-1.6,12.3,0.4c8.9,4.5,13.8,13.7,8.6,27.7c-2.4,4.9-6,10.5-12.9,17.5C3.1,453.3,0.4,459.2,0.2,463.3
					c0,0.2,0,0.4,0,0.5c0,0,0,0,0,0c-0.1,5.8,4.4,10.7,10.2,10.9C12.8,474.9,15.1,474.1,16.8,472.5L16.8,472.5z"/>
				<g>
					<path d="M126.9,132.5c4.8,8.7,5.9,18.7,3.1,28.2c-2.3,7.9-7,14.6-13.5,19.4c-1.3,1-2.8,1.9-4.2,2.7c-14.6,8-32.9,2.7-40.9-11.9
						c-6.6-11.9-2.2-26.9,9.7-33.4c9.8-5.4,22-1.8,27.4,7.9c2.1,3.9,2.6,8.4,1.4,12.7c-1.2,4.3-4.1,7.8-8,9.9
						c-3.2,1.8-7,2.2-10.5,1.2c-2.6-0.7-4.8-2.2-6.5-4.1c-0.4,0.5,0.6,10.5,12.8,10.2c7.2-0.1,14.2-3.6,18.5-9.4
						c4.1-5.6,5.5-13.8,3.6-22.1c-2.1-9.1-7.5-16.4-15.4-20.5c-18.5-9.8-38.5-6.9-56.3,18.8c-10.5,16.6-15.8,42.9-1.5,86.6
						c0,0-11.1-20.5-13.5-46c-2.2-24.4,5.8-54.5,32.1-68.3C87.3,102.5,114.8,110.5,126.9,132.5L126.9,132.5z"/>
					<path d="M1.6,363.9c-2.4-6.4-2.2-13.2,0.7-19.4c2.3-5.1,6.2-9.2,11.1-11.8c1-0.5,2.1-1,3.1-1.4c10.7-4,22.6,1.4,26.6,12.1
						c3.3,8.7-1.2,18.5-9.9,21.7c-7.1,2.7-15.1-1-17.8-8.1c-1.1-2.9-1-6,0.3-8.7c1.3-2.8,3.5-4.9,6.4-6c2.4-0.9,4.9-0.8,7.2,0.2
						c1.7,0.8,3.1,2,4,3.5c0.3-0.3,0.6-7.2-7.7-8.2c-4.9-0.6-10,1.1-13.5,4.5c-3.4,3.4-5.1,8.9-4.6,14.6c0.5,6.4,3.5,11.8,8.4,15.5
						c11.5,8.5,26.3,9.2,40.9-6.5c8.7-10.2,13.3-27.9,8.7-59.3c0,0,19.8,60.2-23.9,75.7C25.5,388.1,7.7,379.9,1.6,363.9L1.6,363.9z"
						/>
					<path d="M41.4,230.7c2.5,7.6,7,14.7,14.3,19.5c5.7,3.8,14.2,7.1,21,5.3l0,0c0,0,11.2-3.1,4.7-12.7c0,0,2.7-0.4,4.5,0.6
						c-0.6-5.3-4.6-8.6-10.2-8.8c-8-0.2-10.9,11.7-1.4,14.3c-11.5,0.6-12.6-12.9-5.2-18.4c1.7-1.3,5.5-3.3,9.3-1.8
						c0,0-1.7-3.9,2.9-4.6c0,0-1,2.3,2.5,5.1c1.8,1.5,4.1,4.6,5.2,7.1c3.2,7.9-0.2,17.3-8.1,20.6c-4.2,1.6-11.9,2.9-22.1-2.9
						c-0.2,1.1-1.1,2.4-3.9,1.8c0,0,0-2.7-2.7-5.7c-2.4-2.6-5-6.2-6.7-9.7l0,0C43.6,237.6,42.2,234.3,41.4,230.7L41.4,230.7z"/>
					<path d="M1,124.5c0.1-0.5,0.5-0.8,0.9-0.9c0.7-0.4,2.1-0.8,5-0.1c1.4,0.4,3.2,1,5.3,2.2c2.1,1.2,4.6,3,6.9,5.8
						c1.8,2.3,3.6,5.3,4.6,8.6c1,3.4,1.6,7.1,1.7,10.6c0.3,7.2-1.5,13.9-1.9,18.4c-0.1,0.8-0.6,8.8,0.6,20.2
						c1.1,11.4,3.8,26.3,9.5,40.1c5.7,13.8,12.1,27.1,16.9,37.1c2.4,5,4.3,9.2,5.6,12.1s1.8,4.7,1.8,4.7s-0.6-1.7-1.9-4.7
						c-1.3-3-3.3-7.1-5.8-12c-5-9.9-11.7-23.1-17.6-36.9c-5.9-13.8-9-28.8-10.3-40.3c-1.4-11.5-1.1-19.6-1.1-20.5c0-1.5,0-3,0-4.6
						c0-1.5,0-3-0.1-4.6c-0.1-1.5-0.2-3.1-0.4-4.6c-0.3-1.5-0.4-3.1-0.8-4.5c-0.6-3-1.7-5.7-2.8-8.1c-1.2-2.4-2.6-4.4-4-6.2
						c-3.7-4.3-7-6.2-9-7.8c-2-1.5-2.8-2.4-3.1-3.1C0.9,125.4,0.8,124.9,1,124.5L1,124.5z"/>
					<path d="M29.4,134.9c0,0-2.2-14.5-21.1-18.3c0,0,14.6-7.1,23.9,2.5c0,0,9.6-22.9,36.5-15C68.7,104.2,43.9,107.2,29.4,134.9
						L29.4,134.9z"/>
					<path d="M45.7,384.9c0,0,0.9-0.4,2.7-1.3c1.8-0.9,4.3-2.2,7.4-4.4c3.1-2.2,6.6-5.2,9.9-9.5c3.2-4.3,6.2-9.8,8-16.4
						c1.9-6.5,2.6-14.1,2.3-22c-0.2-8-1.6-16.4-3.7-25.1c-4.3-17.4-11.6-35.6-20.8-53.9c-20.6-39.1-26.7-71.9-19.3-99.3
						c3.1-12.9,8.8-22.3,13.2-28.2c2.2-3,4.2-5.1,5.6-6.5c1.4-1.4,2.2-2,2.2-2s-0.9,0.6-2.3,1.9c-1.5,1.3-3.6,3.3-6,6.2
						c-4.8,5.7-11,15-14.8,28.1c-8.4,29.8-3.3,62.9,17.6,101.7c9.1,18.1,16.6,36,21.2,52.9c4.6,16.8,6,32.9,2.8,45.7
						c-1.5,6.4-4.1,11.8-7.1,16.1c-3,4.3-6.3,7.5-9.2,9.8c-2.9,2.3-5.4,3.8-7.1,4.8C46.6,384.4,45.7,384.9,45.7,384.9L45.7,384.9z"
						/>
				</g>
				<path d="M62.3,261.1c0,0,17.7,6.1,23.2-2.7c0,0-5.3,13.3-14.7,9.5c0,0,19.7,16.9,9.7,56C80.6,324,79.8,285.3,62.3,261.1z"/>
			</g>
		</g>
	</g>
</g>
</svg>
