<?xml version="1.0" encoding="UTF-8"?>
<svg id="Layer_2" data-name="Layer 2" xmlns="http://www.w3.org/2000/svg" viewBox="0 0 323.91 268.61">
  <defs>
    <style>
      .cls-1 {
        fill: #fff;
        stroke-width: 0px;
      }
    </style>
  </defs>
  <g id="Layer_2-2" data-name="Layer 2">
    <path class="cls-1" d="M320.65,146.87c-1.17-1-2.5-1.8-3.7-2.76-.65-.52-.97-1.05.03-1.77.69-.49,1.49-1.27.92-2.43-.53-1.06-.42-1.19,1.02-1.4-.32-.28-.64-.56-.9-.79.28-.67.92-1.43.82-2.09-.2-1.3-.53-2.72-1.28-3.76-2.86-3.97-7.02-6.03-11.7-6.86-2.45-.43-5.01-.24-7.52-.34-.48-.02-.95-.06-1.26-.08,1.86-1.55,3.91-2.89,5.49-4.66,2.22-2.49,3.29-5.45,1.82-8.82-.94-2.16-2.43-3.92-4.25-5.37-.76-.6-.94-1.22-.68-2.05.9-2.88.83-5.76-.11-8.6-.92-2.76-2.38-5.18-5.25-6.26-1.77-.67-3.64-1.03-5.57-1.56.16-.47.42-1.05.55-1.66.44-2.09.71-4.19-.77-6.03-2.13-2.65-4.86-4.2-8.3-4.27-.99-.02-1.27-.37-1.15-1.28.11-.83.14-1.67.23-2.51.25-2.38.12-4.76-.83-6.94-1.77-4.08-5.22-5.97-9.45-6.5-3.72-.47-7.39.04-11.02.95-.83-1.51-1.36-3.17-3.37-4.03.27.42.38.54.42.68.08.29.13.59.19.89-.3-.11-.63-.16-.89-.33-.18-.12-.26-.39-.37-.61-.63-1.21-1.6-1.82-2.98-1.61-1.77.27-3.55.48-5.28.9-1.29.31-2.5.9-3.78,1.37-.28-1.21-.49-2.33-.8-3.44-.62-2.2-2.56-3.07-4.32-4.03-1.28-.69-1.79-1.72-1.99-3.03-.47-3.1-2.09-5.49-4.65-7.17-3.4-2.23-7.18-2.4-11.05-1.63-1.43.28-2.85.63-4.23.95-.1-.16-.16-.22-.18-.29-1.36-4.99-4.22-7.13-9.29-6.87-.8.04-.72-.41-.77-.87-.31-3.01-1.18-5.85-2.92-8.35-2.4-3.44-5.4-6.05-9.82-6.42-3.22-.27-6.19.8-9.2,1.8-.85-1.29-1.65-2.6-2.55-3.84-2.97-4.09-7.5-6.5-12.77-4.78-1.28.42-2.56.84-3.81,1.34-.73.29-1.29.27-1.76-.41-.72-1.03-1.44-2.08-2.21-3.07-2.28-2.96-5.4-4.67-8.92-5.57-3.13-.8-6.36-.96-9.37.53-2.51,1.24-4.9,2.7-7.37,4.02-.32.17-.85.12-1.21-.02-1.17-.44-2.27-1.18-3.48-1.42-3.18-.64-5.68.96-8.01,2.85-1.01.82-1.89,1.79-2.94,2.55-1.78,1.3-3.88.83-5.82.62-3.34-.36-6.02.57-8.13,3.21-.19.24-.83.33-1.15.2-1.92-.76-3.76-1.72-5.71-2.38-2.86-.97-5.81-1.09-8.68.02-6,2.32-9.04,6.83-9.44,13.17-.09,1.48-.01,2.97-.01,4.15-3.12-.86-6.14-1.84-9.22-2.5-6.71-1.43-13.35-.69-19.86,1.23-6.93,2.04-10.75,6.85-11.97,13.86-.21,1.2-.44,2.39-.66,3.61-3.87-.25-7.38.54-10.65,2.25-3.83,2-6.89,4.71-7.52,9.3-.13.92-.48,1.14-1.34,1.21-3.09.26-6.21.45-9.26.98-5.96,1.02-11.82,9.43-6.68,16.44,1.21,1.65,2.63,3.13,4.02,4.77-.42.34-.87.7-1.33,1.06-4.54,3.52-6.02,9.72-3.2,14.74,1.92,3.41,5.23,4.95,8.72,6.17,1.52.53,3.09.94,4.73,1.44-.41.54-.73.94-1.02,1.36-4.27,5.99-2.94,12.76,3.97,16.44.47.25,1.35.03,1.16,1.12-.09.5.23,1.07.42,1.79-.59-.21-.93-.34-1.25-.46-.47,1.15.11,1.93.6,2.81.32.57.32,1.32.43,1.99.09.58.06,1.18.23,1.73.14.46.5.85.77,1.3-.36.26-.64.48-.94.66-4.9,2.98-8.85,6.84-11.02,12.26-1.47,3.67-1.64,7.33.26,10.96,1.42,2.72,3.58,4.67,6.07,6.36.37.25.83.8.78,1.14-.45,2.74.52,5.04,2.22,7.04.67.79.5,1.35.23,2.2-.53,1.69-1.01,3.43-1.2,5.19-.27,2.5.71,4.75,1.75,6.45-1.23,2.81-2.45,5.29-3.41,7.87-.84,2.27-.57,4.61.61,6.72,2.13,3.77,5.56,5.64,9.76,6.19,2.89.38,5.69-.12,8.61-1.03,1.11,4.71,3.5,8.12,8.6,9.08,4.96.93,8.74-1.04,12.13-4.51,3.28,5.43,7.99,5.84,13.45,3.95.09.61.19,1.11.23,1.61.28,3.95,2.72,6.99,6.44,7.99,0,1.03,0,2.07,0,3.1.02,2.16-.08,4.32.11,6.46.31,3.35,1.53,6.36,4.69,7.95,1.92.97,4.08,1.56,6.2,1.98,1.18.23,1.46.62,1.52,1.7.15,2.69.74,5.27,2.41,7.5,2.43,3.24,5.91,4.69,9.65,5.6,2.56.62,4.8-.19,6.54-2.21.73-.84,1.44-1.69,2.13-2.56.89-1.13,1.73-2.29,2.62-3.46,3.63,3.39,7.57,5.38,12.51,3.91.48,1.65.84,3.16,1.36,4.61.81,2.26,2.22,3.99,4.56,4.85,4.09,1.5,7.79.64,11.09-1.95,1.75-1.37,3.22-3.08,4.95-4.77,2.39,2.16,5.42,1.74,8.46,1.55.13.46.25.87.36,1.29.5,2,.85,4.06,1.53,6,1.24,3.56,3.74,5.72,7.6,6.12,4.6.48,7.84-1.74,10.32-5.31,1.37-1.97,2.53-4.09,3.79-6.14,5.38,4.27,12.89,3.62,17.92.37.78-.51,1.34-.42,2.02.21,4.12,3.8,8.83,5.46,14.47,4.14,2.97-.69,5.91-.49,8.64,1.19,1.44.89,3,1.62,4.57,2.28,4.83,2.02,9.81,1.34,14.73.49,3.72-.64,6.96-2.55,10.18-4.43,4.05-2.37,8.13-4.62,13.01-4.86,1.78-.08,3.57-.45,5.29-.93,7.39-2.04,13.21-6.28,17.32-12.79.42-.67.72-1.42,1.14-2.09.83-1.35,1.58-2.85,3.27-3.31,1.34-.37,2.72-.66,4.1-.82,2.91-.35,5.55-1.34,7.81-3.22,6.26-5.22,7.76-12.14,6.88-19.84-.23-2.05-.79-4.07-1.17-6.1-.52-2.77.83-4.87,2.41-6.96,3.04-4.03,3.98-8.44,1.9-13.23-.52-1.21-1.22-2.34-1.86-3.55.25-.11.43-.22.61-.25,2.91-.39,5.04-2.11,6.84-4.22,2.88-3.37,3.12-7.34,1.96-11.39-.71-2.5-.56-4.45,1.56-6.28,4.62-3.99,3.77-11.29-.11-14.63ZM241.3,64.58c.72-.55,1.5-1.02,2.18-1.6.48-.41.8-.95,1.59-.66.15.05.52-.46.76-.75.3-.36.55-.74.83-1.11.08.16.15.33.23.49.33.04.68.19.98.11,1.83-.52,3.36.02,4.31,1.58-1.39.92-1.01,3.17.73,4.05.62.31,1.34.44,2.12.68-1.85,1.88-3.78,3.77-4.68,6.37.15.14.31.28.46.42.09-.25.14-.52.27-.76,2.28-4.15,5.99-6.3,10.43-7.42,1-.25,2-.51,2.99-.82,2.2-.68,4.26-.31,6.15.9,1.2.76,1.66,1.96,1.64,3.47-1.67,0-3.24.19-4.49,1.47.28-.05.57-.08.84-.14.43-.1.84-.26,1.27-.32,2.24-.31,2.66.12,2.33,2.3-.12.79-.23,1.58-.26,2.38-.05,1.16-.48,1.79-1.76,1.88-2.66.19-4.83,1.43-6.54,3.46-.27.33-.5.69-.75,1.04.07.08.14.16.21.24.28-.19.59-.34.83-.58,1.77-1.77,3.94-2.62,6.4-2.86.76-.07,1.15.03,1.26.93.37,2.85,2.1,3.87,4.99,3.3,1.31-.26,2.7-.18,4.05-.08.94.07,1.46.88,1.13,1.73-.36.92-.88,2.04-1.66,2.48-2.24,1.27-2.47,3.76-1.67,6.1-2.58,1.25-5.18,2.51-7.78,3.77.04.09.07.18.11.26.86-.29,1.72-.59,2.59-.88,1.8-.62,3.6-1.26,5.4-1.87.26-.09.55-.11.83-.11,2.18.02,4.37.06,6.55.09.56,0,1.12-.02,1.68,0,3.37.18,5.17,1.97,5.06,5.32-.05,1.6-.38,3.25-.91,4.76-.54,1.53-.83,2.9.32,4.56-5.38-1.23-10.21-.77-14.57,2.98.86-.27,1.51-.48,2.16-.69,1.09-.37,2.16-.84,3.27-1.1,3.97-.94,7.78-.3,11.37,1.49.96.48,1.76,1.35,2.49,2.16.87.97.86,1.85-.19,2.66-1.4,1.08-2.96,1.95-4.46,2.9-1.37.86-2.85,1.58-4.09,2.6-3.17,2.59-6.61,4.67-10.53,5.84-1.8.54-3.64.72-5.63.36-2.44-.44-4.99-.24-7.49-.3-.94-.02-1.88,0-3.23,0,.62-1.33,1-2.39,1.57-3.34,1.75-2.95,1.8-5.4-.85-7.96-.57-.55-1.11-1.14-1.58-1.76-1.33-1.74-.76-3.44.21-5.1.84-1.43,1.7-2.86,2.56-4.28,1.79-2.96,1.72-6.03.64-9.19-.48-1.39-.79-2.84-1.32-4.21-1.46-3.81-3.77-4.35-7.08-3.3-1.56.5-3.02,1.37-4.41,2.26-1.12.71-2.18.82-3.25.21-1.75-.99-3.44-2.1-5.19-3.18.74-1.35,1.45-2.63,2.14-3.92.59-1.11.66-2.27.29-3.48-.21-.68-.31-1.41-.56-2.07-.6-1.57-.24-3.04.32-4.53.35-.92.61-1.9.76-2.87.38-2.39-.96-4.97-4.7-5.81.12-.2.18-.44.33-.56ZM267.9,144.37c1.23.99,2.05,2.15,2.07,3.92.02,1.65.63,3.29.77,4.95.12,1.44.02,2.91-.12,4.35-.04.44-.5.84-.75,1.22-1.41-2-2.74-3.89-4.07-5.78-.08.04-.16.08-.24.12.88,2.03,1.76,4.07,2.76,6.39-2.02.1-3.68.2-5.34.24-.2,0-.5-.27-.59-.48-1.41-3.41-4.42-4.87-7.53-6.15-1.56-.64-3.21-1.07-4.82-1.6-.04.1-.08.2-.12.29.93.39,1.86.78,2.78,1.18,2.49,1.07,4.87,2.29,6.69,4.38.08.09.16.17.24.27,1.46,1.9,1.46,2.51-.55,3.72-2.12,1.28-4.27,2.68-6.6,3.39-4.46,1.35-8.83.76-12.74-2.01-1.84-1.3-3.67-2.62-5.55-3.96.59-.83,1.32-1.63,1.79-2.56,1.41-2.79.49-5.37-1.01-7.77-1.89-3.03-4.85-4.94-7.69-6.96-.29-.2-.57-.41-1.02-.72,1.88-1.61,3.93-2.29,6.13-2.49,2.58-.24,5.18-.29,7.78-.44,1.1-.06,1.92.34,2.49,1.29.27.44.63.82.91,1.25,2.07,3.2,4.72,3.24,7.62,1.47,2.36-1.44,4.46-3.28,6.76-4.82,2.1-1.4,3.45-3.12,3.32-5.75-.03-.59.23-.83.88-.79,2.19.11,4.39.13,6.59.21,2.64.09,4.85,1.23,6.7,3,1.94,1.85,1.79,4.29-.22,6.2-.57.54-1.22,1.01-1.85,1.49-.6.46-1.28.82-1.81,1.34-.53.51-.91,1.16-1.35,1.74-2.06-1.12-4.14-2.25-6.22-3.38-.04.08-.08.16-.13.24,1.35,1.01,2.72,1.98,4.03,3.03ZM250.08,176.05c2.38,1.92,4.82,3.79,6.42,6.46.47.77.81,1.64,1.09,2.5.29.91-.12,1.61-1.02,1.82-.99.24-2.03.39-3.05.42-1.92.06-3.82.1-5.53,1.51-.89-1.89-1.72-3.68-3.56-4.73.6.96,1.24,1.9,1.8,2.88.89,1.56,1.22,3.13.18,4.81-.34.55-.42,1.27-.61,1.92-.71,2.36-2.42,3.43-4.76,3.66-1.86.18-3.72.34-5.73.53.28-2.26-.85-4.13-2.3-5.76-1.37-1.53-2.95-2.88-4.43-4.31-.11.11-.21.22-.32.34,1.04,1.08,2.13,2.13,3.12,3.26,1.87,2.12,3.23,4.56,2.26,7.41-.8,2.36-1.67,4.8-3.48,6.66-2.07,2.13-4.85,2.18-7.08-.08-1.25-1.27-2.1-2.94-3.05-4.49-.13-.21.14-.76.36-1.07.87-1.22,1.98-2.3,2.66-3.62,1.71-3.29.71-6.21-1.78-8.63-1.72-1.67-3.77-3.01-5.51-4.66-3.13-2.98-6.16-6.09-9.2-9.17-.26-.26-.47-.48-.73-.57-.79-.93-2.62-1.83-2.72-1.78-.48-.81-.96-1.59-1.53-2.54.53-.28,1.21-.63,1.88-.98.76-.4,1.51-.8,2.28-1.19.25-.13.51-.29.77-.3,1.04-.02,2.09.15,2.96-.71.15-.15.89.06,1.16.31.6.56,1.09,1.25,1.66,1.94-.73.53-1.35.98-2.08,1.5.1,3.37,1.89,5.78,4.95,7.37,4.46,2.32,9.73.3,11.8-3.86.53-1.06.65-2.35.83-3.56.19-1.26.16-2.54.35-3.8.18-1.25,1.05-1.76,2.21-2.14,2.24-.72,3.77.33,5.37,1.62,5.82,4.68,12.41,5.48,19.48,3.76,1.91-1.55,3.62-.68,5.33.41.53.34,1.16.54,1.69.88,1.66,1.07,1.94,2.23.95,3.94-.36.61-.76,1.22-1.22,1.75-1.38,1.61-2.33,3.37-2.47,5.54-.05.75-.3,1.48-.52,2.49-2.21-3.91-5.61-6.21-9.27-8.29.13.19.21.42.38.56ZM206.96,194.27c-2.52-.57-4.57-.12-6.62,1.39.24-4.38-.7-8.17-3.73-11.22,1.74,2.84,2.58,5.89,2.42,9.25-.21,4.2-2.34,7.26-5.65,9.57-2.11,1.48-3.83,1.1-5.49-.97-.91-1.14-1.88-2.23-2.71-3.43-.2-.28-.07-.98.15-1.33,1.09-1.66,1.68-3.43,1.4-5.43-.06-.41-.2-.81-.3-1.21-.25,2.5-1.09,4.68-2.81,6.46-.43.44-1.08.72-1.68.94-.43.16-.95.09-1.42.14-2.59.3-3.79-1.19-3.09-3.79.43-1.61.9-3.22,1.18-4.86.45-2.69-.16-5.28-1.01-7.85.28,2.94-.02,5.81-.83,8.82-3.49-2.69-7.03-1.03-10.54-.54-.51.07-1.01.15-1.67.24,0-.81-.1-1.53.02-2.21.64-3.78.05-7.41-1.4-10.89-.77-1.86-.36-3.7-.26-5.55.01-.24.21-.56.42-.68,2.35-1.33,3.66-3.58,4.98-5.77,2.17-3.61,2.16-3.65,6.38-3.52,2.63.08,4.72.94,6.1,3.42,1.54,2.77,4.29,3.61,7.26,3.89,1.55.15,3.11.38,4.66.38,2.61,0,4.77,1,6.77,2.57.76.6,1.64,1.06,2.68,1.72,0-.02-.01-.04-.02-.06.51.39.99.8,1.19,1.34.2.54.41,1.13.78,1.56,3.65,4.35,7.64,8.35,12.32,11.62,1.36.95,2.66,2.1,3.07,3.84.53,2.25-.68,3.83-2.24,5.16-1.7,1.45-3.6,2.62-5.97,1.99-2.14-.57-2.58-2.55-3.31-4.32-.7-1.71-1.58-3.34-2.4-4.99-.05-.1-.23-.14-.43-.26.61,1.52,1.17,2.93,1.82,4.57ZM114.46,174.91c-.76,2-1.53,3.99-2.22,6.02-.45,1.33-1.76,2-3.01,1.35-1.63-.85-3.27-1.09-5.07-.56-1.39.41-2.81.11-3.99-.72-1.72-1.2-3.58-1.23-5.5-.89-1.25.22-2.49.54-3.74.82-2.43.54-4.41-.51-5.17-2.83-.15-.45,0-1.11.23-1.54,1.16-2.07,2.74-3.76,4.77-5.03.15-.1.28-.24.46-.4-1.27-.17-2.39.57-6.55,4.27-1.04-1.18-2.14-2.32-3.1-3.56-.93-1.2-.48-2.44.11-3.69.7-1.49,1.47-3,1.81-4.59.39-1.82.07-3.61-1.91-4.78,1.82-.33,3.64-.63,5.45-1,.4-.08.75-.41,1.12-.62-.42-.18-.88-.57-1.25-.49-1.97.39-3.97.76-5.86,1.41-2.79.96-5.64,1.83-8.09,3.63-.95.7-2.06,1.19-3.15,1.65-3.1,1.31-5.32.11-5.75-3.23-.31-2.36-.66-4.79-.37-7.12.32-2.54,1.85-4.69,3.8-6.45.52-.47.98-.99,1.32-1.63-2.65,1.46-4.52,3.67-6.06,6.18-2.88-1.65-4.22-3.73-3.65-6.06.37-1.52,1.15-2.94,1.71-4.43.81-2.17.52-4.18-1.14-5.86-1.1-1.11-2.6-1.35-4.07-1.51-1.63-.18-3.26-.27-4.9-.37-2.68-.16-3.53-1.76-2.08-4.01.55-.86,1.17-1.7,1.88-2.43,1.19-1.23,1.7-2.6,1.13-4.24-.65-1.86-2.1-2.74-3.96-2.97-1.11-.13-2.23-.09-3.35-.13-2.38-.09-3.28-.98-2.85-3.3.41-2.25.16-4.33-.67-6.43-.62-1.59-.06-2.94,1.54-3.8,1.46-.78,3.01-1.4,4.47-2.19.56-.31,1.17-.79,1.43-1.34.44-.93,1.08-1.04,1.93-.94,1.73.21,3.45.42,5.18.63.07-.08.14-.16.21-.24-.62-.3-1.2-.72-1.85-.89-1.42-.36-2.88-.57-4.31-.89-.39-.09-.92-.24-1.08-.53-.98-1.74-2.45-2.97-4.02-4.12-.38-.28-.75-.58-1.1-.9-1.35-1.25-1.25-1.93.2-3.01,4.93-3.68,9.73-2.59,14.49.31,1.4.86,2.77,1.76,4.27,2.72-.17-1.04-4.9-4.63-7.35-5.79-3.02-1.43-6.13-1.58-9.29-.63-.28-1.21-.61-2.31-.79-3.45-.4-2.55.8-4.47,2.61-6.06,2.2-1.95,4.94-2.84,7.69-3.63,4.55-1.31,9.18-1.44,13.88-1.19,2.79.15,5.38,1.09,8.08,1.48,2.46.36,3.21,2.09,4.15,3.83.08.16.16.48.1.53-1.29.91-.94,2.65-1.99,3.75-1.55,1.62-1.35,3.51-.03,5.2,1.82,2.35,3.21,5.17,6.27,6.27,2.01.73,4.05,1.36,6.08,2.04.49.16.98.3,1.47.45-.38.91-.81,1.77-1.1,2.67-.62,1.93.02,3.84,1.56,5.15,1.43,1.22,3.04,1.82,4.91,1.83.79,0,1.63.03,2.35.3.58.21,1.42.82,1.41,1.24-.02.84-.35,1.86-.92,2.41-.33.32-1.44.02-2.12-.22-3.73-1.36-7.49-2.64-11.12-4.22-4.37-1.9-8.96-2.47-13.62-2.71-3.68-.18-7.32.05-10.85,1.34-5.17,1.89-7.03,7-5.84,11.46.51,1.9,2.11,2.99,3.93,3.68.3.11.61.19.91.29,2.08.7,2.57,1.18,2.31,3.37-.35,2.9,1.05,4.79,3.27,6.11,2.65,1.57,4.17,3.88,5.36,6.6.86,1.96,1.92,3.85,4.09,4.72.03.01.06.02.08.02,2.67.7,7.42,1.87,10.46,1.25-.4.75-.71,1.27-.96,1.82-2.04,4.57-.09,7.42,4.53,8.52.54.13,1.09.24,1.63.39,1.37.37,2.31,1.49,2.39,2.9.04.72.12,1.47-.05,2.15-.48,1.96.23,3.46,1.48,4.9,1.74,2,3.39,4.04,4.78,6.34,1.98,3.3,7.53,3.25,10.31.12.52-.59.99-1.24,1.4-1.91,1.35-2.19,3.65-3.08,6.04-2.24,1.1.39,1.87,1.22,1.94,2.34.08,1.21.03,2.5-.33,3.65-2.06,6.7,3.06,12.51,10.02,11.42,1.87-.29,3.44-1.06,5.01-2.01.44-.27,1.02-.39,1.55-.45,3.24-.36,5.63,1.11,7.62,3.53.59.72,1.43,1.23,2.16,1.85-.31,1.48-1.84,2.74-3.74,2.64-2.29-.11-4.65-.26-6.84-.89-3.88-1.13-7.76-2.07-11.81-2.24-3.1-.12-5.9-1.02-8.28-3.17-.8-.72-2.02-.96-3.4-1.57.47-1.76,1-3.75,1.6-5.99-.34.26-.61.36-.68.53ZM88.19,91.88c2.89-2.17,7.53-4.58,9.56-4.93.39,1.22.78,2.45,1.18,3.68.02.08.04.16.05.23.02.74-2.93,3.32-3.64,3.14-2.22-.58-4.43-1.2-6.64-1.82-.17-.05-.31-.19-.5-.3ZM104.99,136.44c2.51.43,5.08.45,7.63.67,1.34.12,2.68.37,4.03.41.98.03,1.97-.14,2.94-.32.63-.11,1-.18,1.39.56,1.27,2.44,3.29,4,6.04,4.53,1.71.33,1.48,1.88,1.79,3.01.73,2.64,1.19,5.36,2,7.98.83,2.67,2.91,4.47,4.98,6.22,1.81,1.53,3.66,3.03,5.48,4.55.22.19.48.48.5.74.3,3.26-.18,6.25-2.78,8.61-1.57,1.43-2.88,3.15-4.53,4.47-1.96,1.57-4.23,2.48-6.88,1.81-2.34-.59-4.11-3.11-3.49-5.45.59-2.21,1.41-4.37,2.2-6.53,1.28-3.48,1.46-7,.63-10.59-.01-.06-.1-.11-.41-.45.46,3.18-.03,5.94-1.16,8.9-2.74-4-6.28-5.52-10.89-4.2,1.19-2.32,2.29-4.47,3.4-6.62-.16-.09-.31-.18-.47-.27-2.09,3.08-4.29,6.1-6.23,9.28-.83,1.36-1.74,2.52-3.06,3.37-1.14.74-2.36.62-3.15-.48-.85-1.19-1.64-2.46-2.21-3.79-.19-.45.18-1.38.58-1.82,1.59-1.76,3.29-3.41,4.95-5.1.41-.41.8-.84,1.11-1.36-2.96,1.9-6.02,3.66-8.01,6.81-1.58-1.2-2.06-2.82-1.54-4.57,1.23-4.15-1.8-7.21-5.49-7.4-1.01-.05-2.03-.39-2.99-.76-1.31-.51-1.78-1.73-1.02-2.92,1.07-1.66,2.35-3.18,3.49-4.8,2.04-2.89,1.15-5.79-.8-8.33-.15-.19-.81-.29-.95-.14-.53.52-1.06,1.03-1.71.35-.68-.7.07-1.21.44-1.74.04-.06.03-.14.09-.43-.49.13-.89.23-1.28.33.04-.09.08-.18.13-.26-.5-.2-1.01-.61-1.49-.57-2.82.25-4.88,1.71-6.18,4.22-.15.28-.25.59-.4.86-1.28,2.37-2.36,2.43-3.78.13-.58-.95-1.12-1.94-1.53-2.97-.79-1.95-2.06-3.49-3.8-4.61-2.26-1.46-3.27-3.57-3.49-6.17-.06-.75-.24-1.48-.38-2.33,2.79-1.12,5.58-2.09,8.61-2.29,3.03-.2,5.77.39,8.07,2.56-.85-1.62-2.14-2.61-3.74-3.23-2.92-1.13-5.88-.92-8.83-.19-1.65.41-3.26,1.01-4.89,1.52-.22.07-.5.16-.69.09-1.51-.59-3.09-1.06-4.48-1.87-2.33-1.35-1.94-5.08.58-6.7,2.25-1.45,4.81-1.6,7.36-1.75,5.12-.29,10.07.54,14.91,2.25,3.71,1.31,7.45,2.57,11.26,3.49,1.8.43,2.79.8,2.79,2.88,0,1.04.69,2.22,1.39,3.08,1.67,2.04,1.61,4.22.93,6.53-.43,1.45-.96,2.86-1.35,4.32-1.01,3.74.86,5.87,4.36,6.47ZM142.87,118.92c1.54-.01,3-.15,4.42,0,.95.11,1.2,1.02.8,2.24-.42,1.31-.69,2.6-.18,3.97.75,2.03,2.43,2.9,4.32,3.34,1.34.31,2.77.34,4.16.33.96,0,1.71.25,2.34.94.27.29.6.56.78.9,1.78,3.31,5.08,3.72,8.27,4.42,1.46.32,2.95.69,4.29,1.32,1.97.93,2.74,2.96,2.33,5.11-.56,2.93-2.22,5.21-4.24,7.29-.16.17-.31.36-.48.55-6.47-3.66-12.59-7.65-18.28-12.31-2.25-1.84-5.01-2.68-7.88-3.08-.43-.06-.85-.11-1.49-.19,1.99-4.81,1.82-9.65.85-14.85ZM162.44,90.13c.43-.3,1.15-.49,1.6-.33.27.1.48,1.01.36,1.46-.61,2.37-1.31,4.72-2.02,7.06-.26.87-.63,1.7-1.05,2.82-1.59-1.46-3.01-2.76-4.49-4.11,1.63-2.58,3.09-5.18,5.6-6.91ZM156.76,89c-.63,1.77-1.46,3.47-2.31,5.44-1.11-1.41-2.38-2.61-3.09-4.09-.35-.72.2-2,.58-2.93,1.03-2.49,2.28-4.88,4.32-6.73.06-.05.11-.14.18-.16.65-.18,1.52-.69,1.89-.45.43.28.71,1.3.57,1.88-.6,2.37-1.32,4.72-2.14,7.03ZM251.17,105.19c1.88,0,3.74.13,5.46,1.02.91.47,1.18.88.55,1.91-1.62,2.61-1.82,5.38-.26,8.26-2-.15-3.88-.29-5.76-.43,0,.04,0,.09,0,.13,1.99.79,3.99,1.56,5.97,2.37.36.15.69.37,1.01.6,1.92,1.42,2.04,2.06.89,4.07-.79,1.39-1.53,2.81-2.21,4.06-2.59-1.01-5.33-2.07-8.07-3.14-.04.1-.08.2-.12.31,1.68.92,3.4,1.77,5.02,2.79,1.06.67,2.04,1.51,2.9,2.42,1.14,1.2.99,2.73-.3,3.76-1.8,1.42-3.65,2.78-5.5,4.14-.38.28-.82.48-1.26.65-1.5.57-2.42.2-3.06-1.26-.61-1.38-1.12-2.8-1.76-4.16-1.16-2.51-3.11-4.04-5.84-4.6-2.86-.59-5.66.02-8.49.43,1.61.1,3.23.16,4.84.3,2.5.22,4.94.72,6.72,2.64.95,1.03,1.63,2.31,2.38,3.5.08.12-.2.68-.33.68-1.01.04-1.28.63-1.27,1.51,0,.28-.09.55-.3.66q-.7-1.62,1.05-3.55c-1.36-.12-2.52-.4-3.65-.3-2.86.25-5.71.62-8.55,1.02-2.66.37-4.98,1.54-6.93,3.38-.54.51-.96.65-1.73.31-2.03-.88-4.14-1.58-6.24-2.37,1.41-1.8,2.87-3.62,4.27-5.48.73-.98,1.39-2.02,2.01-3.07.63-1.07.6-2.18.09-3.32-.13-.3-.03-.88.19-1.13,1.5-1.71,3.54-2.32,5.68-2.7,2.62-.47,5.29-.8,7.85-1.48,1.84-.49,3.55-1.48,4.09-3.59.4-1.55-.62-3.15-2.18-3.58-4.78-1.3-9.5-.82-14.17.51-2.04.58-4.03,1.34-6.13,1.88.68-.55,1.44-1.02,2.02-1.65,1.08-1.16,2.1-2.37,3.06-3.62,1.47-1.92.19-2.9-1.63-3.55-.43-.15-.9-.22-1.61-.39,2.6-2.07,4.79-4.04,6.2-6.83.48-.94,1.93-1.45,3.01-2.01,2.97-1.54,6.03-2.88,9.35-3.51,2.67-.5,5.1-.31,7.22,1.7,1.41,1.34,3.24,1.31,4.94.64,1.46-.57,2.84-1.39,4.21-2.18,1.86-1.07,3.42-.63,4.23,1.37.66,1.62,1.28,3.26,1.73,4.94.52,1.95-.29,3.68-1.3,5.3-.19.3-.4.58-.64.92-3.04-2.02-6.29-1-9.51-.42.61.03,1.21.07,1.82.08ZM188.79,106c-1.39-1.17-2.95-.9-4.5-.27-.1.04-.21.09-.46.19.46-1.8.97-3.42,1.25-5.09.18-1.03.01-2.13,0-3.19,0-.25-.07-.64.06-.74.9-.7,1.8-1.44,2.8-1.98.92-.49,1.76.1,2.04.9.59,1.67,1.04,3.4,1.38,5.14.21,1.04-.03,2.18.2,3.22.16.74.62,1.6,1.21,2,.73.49,1.55.04,2.24-.59.63-.58,1.37-1.17,2.16-1.43,2.03-.67,3.68.53,3.93,2.76.2,1.86-.47,3.39-2.05,4.4-1.32.85-2.69,1.64-4.1,2.31-2.91,1.37-5.2,3.42-7.11,5.97-.7.93-1.56,1.75-2.48,2.77-.5-1.03-.77-1.69-.19-2.6,1.88-2.94,3.67-5.94,4.52-9.38.41-1.63.51-3.2-.91-4.4ZM211.67,115.54c-1.33,1.17-2.48,2.53-3.72,3.8-.21.21-.47.56-.69.55-2.72-.18-4.7,1.4-6.9,2.68.46-.66.98-1.28,1.37-1.98.7-1.28,1.31-2.61,1.99-3.9.18-.34.41-.72.71-.92,2.88-1.88,5.75-3.78,8.69-5.57,1.91-1.16,3.94-2.09,6.49-1.71-.21.33-.3.63-.51.81-2.48,2.08-5.02,4.1-7.45,6.24ZM214.93,120c3.52-1.97,7.29-3.39,11.22-4.23,3.35-.72,6.75-1.16,10.19-.79.05.14.09.27.14.41-.89.32-1.77.74-2.69.93-2.49.52-5.02.9-7.51,1.42-2.8.58-5,2.12-6.77,4.34-.28.35-.76.65-1.2.75-2.86.64-5.25,2.17-7.57,3.86-.86.63-1.73,1.24-2.75,1.77.44-.8,1.19-1.56,1.28-2.39.37-3.5,3.15-4.65,5.66-6.06ZM185.18,131.6c.32-1.75.35-3.56.59-5.33.07-.51.37-1.05.71-1.44,1.02-1.16,2.17-2.21,3.17-3.38,1.92-2.24,4.4-3.71,6.93-5.1.8-.44,1.62-.84,2.46-1.19.32-.13.94-.21,1.06-.04.21.29.33.88.17,1.18-1.09,2.01-2.09,4.1-3.43,5.94-2.26,3.1-4.81,5.98-7.14,9.04-1.07,1.4-1.91,2.98-2.89,4.54-1.39-.95-1.93-2.63-1.64-4.21ZM200.74,126.83c1.2-1.16,2.76-1.97,4.18-2.89.29-.19.72-.16,1.08-.23-.02.41.1.91-.09,1.21-1.31,2.16-2.6,4.33-4.05,6.39-1.77,2.52-3.68,4.94-5.56,7.38-.22.28-.62.66-.89.63-1.8-.23-3.58-.56-5.37-.87-.08-.01-.14-.18-.33-.46,3.68-3.75,7.28-7.53,11.02-11.17ZM219.05,126.15c.11.12.23.24.34.35-.3.47-.56.98-.91,1.42-2.1,2.62-4.21,5.24-6.35,7.83-.25.3-.68.56-1.07.64-2.28.51-4.57.96-6.86,1.43-.35.07-.7.09-1.06.13,4.87-4.57,9.41-9.57,15.9-11.8ZM220.47,100.39c-1.63,1.56-3.46,2.89-5.14,4.38-3.28,2.92-7.28,4.85-10.65,7.64-.88.73-1.5.67-2-.19.59-1.2,1.14-2.33,1.69-3.46.03-.07.03-.19.08-.21,2.78-1.45,4.15-4.33,6.42-6.31,3.16-2.75,6.12-5.76,9.83-7.81.6-.33,1.38-.33,2.08-.49.11.64.34,1.29.3,1.92-.13,1.91-1.34,3.3-2.62,4.53ZM210.36,91.21c-.65,3.57-2.34,6.71-4.13,9.81-.61,1.05-1.23,2.09-1.79,3.05-1.24-1.38-2.35-2.61-3.67-4.09,2.1-2.64,4.34-5.49,6.62-8.31.44-.55,1.03-1,1.61-1.4.35-.24.82-.29,1.24-.43.05.46.2.94.12,1.38ZM201.18,89.34c-1.32,3.45-2.59,6.91-4.03,10.31-.26.61-1.22.91-2.02,1.46-.42-3.27-.86-6.26-3.04-8.67,3.47-4.13,5.56-9.28,10.15-12.86.13.66.28,1.04.27,1.42-.07,2.83-.3,5.65-1.33,8.33ZM191.17,86.16c-.69,1.33-1.29,2.72-1.99,4.05-.18.35-.59.86-.86.84-1.7-.13-2.84.87-4.02,1.81-.96.76-1.97.93-3.13.34,1.03-1.43,2.14-2.78,3.02-4.26,1.75-2.92,3.31-5.96,5.07-8.87.83-1.37,1.95-2.58,2.98-3.82.19-.22.68-.4.92-.3.22.09.38.56.4.87.27,3.39-.89,6.41-2.41,9.34ZM178.25,95.96c-1.17.83-2.33,1.65-3.25,2.3.17-2.22.18-4.64.62-6.99.23-1.26,1.19-2.39,1.85-3.56.19-.33.46-.62.69-.93.09.07.18.14.27.21-.34,1.43-.68,2.86-1.02,4.29-.05.19-.12.38-.2.56q-1.01,2.49,1.04,4.12ZM174.87,85.74c-.57.86-1.01,1.8-1.58,2.65-.18.27-.61.58-.89.54-1.59-.2-2.96.25-4.24,1.27-.35-1.09-.68-2.08-1.08-3.33,4.2-5.19,8.88-10.07,15.33-12.75.14.14.29.29.43.43-1.22,1.61-2.48,3.2-3.65,4.84-1.48,2.09-2.91,4.22-4.33,6.35ZM168.2,71.82c-1.2,3.61-2.44,7.21-3.68,10.82-.1.3-.32.59-.33.89-.12,1.82-1.06,2.87-2.86,3.09.34-1.48.74-2.93.99-4.41.28-1.65.1-3.25-.97-4.66-.15-.2-.21-.64-.1-.85,1.42-2.43,3.24-4.5,5.73-5.87.32-.18.79-.09,1.19-.13.01.37.14.78.03,1.11ZM164.2,102.81c1.46-3.12,2.77-6.33,5.37-8.75.09-.08.17-.18.27-.23.6-.3,1.21-.59,1.81-.89.06.71.33,1.49.13,2.11-.92,2.83-1.97,5.61-2.98,8.41-.28.78-.56,1.57-.95,2.68-1.26-.96-2.41-1.83-3.54-2.72-.13-.1-.19-.45-.11-.61ZM173.6,104.77c1.96-1.9,4.05-3.67,6.14-5.44.33-.28.93-.23,1.41-.33.09.41.33.86.24,1.22-.46,1.84-.89,3.71-1.57,5.47-.85,2.22-1.92,4.35-2.97,6.67-1.97-1.33-3.89-2.64-6.02-4.08.97-1.25,1.74-2.52,2.77-3.52ZM183.83,110.54c.4-.43.84-.85,1.31-1.19.22-.16.6-.2.86-.12.12.03.22.49.17.72-.54,2.64-1.81,4.93-3.29,7.25-.83-.97-1.57-1.84-2.46-2.89.96-1.06,2.17-2.43,3.41-3.77ZM183.54,136.84c.75.87,1.41,1.76,2.19,2.52,2.29,2.24,5.18,3.26,8.27,3.53,3.83.33,7.64.02,11.31-1.3,7.53-2.69,14.29-1.05,20.42,3.78,1.62,1.27,3.16,2.65,4.65,4.07,2.15,2.06,2.25,4.22.21,6.37-1.63,1.72-3.42,3.28-5.25,5.02-.52-3.18-3.63-8.51-6.11-10.19.61,1.09,1.16,2.22,1.85,3.26,2.48,3.78,3.28,7.87,2.48,12.31-.17.94-.13,1.91-.15,2.87-.03,1.54-.56,2.27-2.1,2.28-1.33,0-2.67-.32-4-.53-.35-.06-.66-.31-1.01-.36-1.53-.23-2.22-1.12-2.34-2.65-.04-.44.1-1.29-.3-1.6-.61-.48-.61-1.08-.95-1.6-.02-.05-.04-.09-.06-.14-.24-.55-.47-1,.14-1.59.31-.29.26-1.05.23-1.59-.14-3.1-1.13-6-2.27-8.85-.05-.12-.16-.21-.23-.31.43,3.36.86,6.72,1.29,10.03-2.07-.35-3.89-.59-5.67-.97-1.32-.28-2-1.24-2.02-2.99-.05-4.35-2.29-7.66-5-10.78l3.65,7.68c-.11.09-.23.17-.34.26-.22-.1-.49-.15-.67-.3-1.2-.98-2.59-1.24-4.06-.97-3.43.64-4.75-.3-6.17-3.61-1.65-3.85-4.73-5.34-8.45-6.09-1.16-.23-2.34-.32-3.56-.48,1.36-2.38,2.69-4.71,4.04-7.07ZM210.79,164.44s-.06,0-.05-.02c.02,0,.03.02.05.02ZM188.56,153.1c.48.95,1.05,1.88,1.71,2.71,1.59,1.98,3.58,2.97,6.24,2.63,2.57-.33,2.99.12,3.81,2.5.47,1.36,1.13,2.66,1.72,4.02-.91.67-1.96,1.47-3.04,2.23-.19.13-.57.19-.75.09-2.55-1.4-5.36-1.57-8.13-1.54-3.33.04-5.82-1.09-7.51-4.05-1.67-2.93-4.46-3.48-7.55-3.14-1.14.13-2.28.28-3.25.4.07-1.97.12-3.86.21-5.75.01-.28.16-.6.34-.82.64-.75,1.42-1.38,1.96-2.19,1.14-1.71,2.92-1.98,4.68-2.1,4.37-.28,7.47.88,9.55,5ZM142.07,136.64c1.48.91,3.19,1.43,4.64,2.38,2.15,1.4,4.22,2.94,6.2,4.57,3.2,2.65,6.69,4.78,10.43,6.58,1.24.6,2.35,1.64,3.28,2.69,1.55,1.77,1.44,4.59-.02,6.4-.79.98-1.71,1.23-2.85.65-.81-.41-1.6-.88-2.32-1.42-3.04-2.26-6.02-4.59-9.08-6.83-1.82-1.33-3.94-1.63-6.14-1.4-2.15.22-3.85-.5-4.9-2.44-.41-.76-.78-1.59-.96-2.43-.68-3.23-2.71-5.01-5.85-5.66-1.25-.26-2.5-.47-3.75-.73-2.04-.42-4.05-.93-5.58-2.48-.5-.5-.93-1.06-1.39-1.58,2.68-2.92,5.79-3.24,9.24-2.36,3.26.83,6.2,2.31,9.06,4.06ZM85.12,135.77c-.14-.11-.29-.21-.43-.32-.43.24-.85.47-1.52.84.27-.46.38-.95.68-1.11.35-.19.86-.15,1.3-.13.42.01.86.05,1.25.18.5.17,1.07.35,1.42.71.74.75,1.36,1.61,2.29,2.75-2.11.29-3.89.54-5.77.8.34-1.4-.97-2.75.77-3.72ZM141.92,177.28c-.12,0-.23-.05-.34-.1-.06-.03-.11-.11-.21-.22,3.13-3.05,4.04-6.87,3.57-11.18,3,.43,5.32,1.98,7.72,3.43,1.58.96,3.3,1.67,4.94,2.53.29.15.61.49.68.79.29,1.4.5,2.81.72,4.22.33,2.08-2.16,5.3-4.27,5.81-2.8.68-5.07-.02-7.01-2.09-1.58-1.69-3.37-3.03-5.8-3.19ZM156.17,167.09c-2.51-1.42-4.86-3.25-7.53-4.23-4.97-1.81-8.95-4.94-12.91-8.25-1.72-1.44-2.63-3.26-3.22-5.28-.59-2.02-.95-4.1-1.43-6.24,3.47.22,5.12,1.51,5.69,4.26.63,3.02,4.09,6.33,7.36,6.64,4.06.38,7.4,2.13,10.51,4.58,2.1,1.65,4.25,3.26,6.48,4.74.86.57,1.99.73,2.99,1.08-1.61,3.31-4.4,4.71-7.95,2.7ZM200.69,39.79c-.45,4.42-.9,8.77-1.35,13.13.16.03.31.07.47.1.32-1.43.69-2.85.96-4.29.56-2.96.56-6.05,2.02-8.8.77-1.46,2.2-2.03,3.68-2.27.42-.07,1.19.61,1.42,1.12.4.85.52,1.83.71,2.77.51,2.52.5,2.53,1.92,4.16-.77,1.68-1.54,3.34-2.31,5.01.13.07.26.14.4.21.3-.51.61-1.02.9-1.54,1.21-2.17,3.01-3.56,5.43-4.2,1.95-.51,3.85-1.23,5.81-1.65,1.89-.41,3.81-.04,5.38,1.03.84.58,1.48,1.67,1.85,2.66.51,1.36.68,2.84,1.01,4.31-4.82,2.61-7.4,6.97-9.57,11.65.11.08.22.16.33.24.63-1.05,1.22-2.13,1.91-3.13,2.02-2.93,4.28-5.6,7.69-7.02.64-.26,1.05-.28,1.6.19.74.64,1.6,1.14,2.41,1.7.91.62,1.41,1.43,1.04,2.54-.51,1.54-1.07,3.07-1.62,4.6-.01.04-.05.07-.05.11.08,1.9-1.47,2.2-2.72,2.87-1.93,1.04-3.43,2.55-4.38,4.56-.12.25-.09.57-.14.86.1.03.19.07.29.1.24-.29.52-.55.71-.87,1.41-2.36,3.82-3.1,6.22-3.86.15-.05.36.06.52.13,1.34.58,2.65,1.21,4.01,1.72.25.1.8-.15.99-.4.4-.54.89-.5.93.02.12,1.4,1.08,1.24,1.98,1.29.2.01.39,0,.59,0,.39.85-.68,2.19.63,2.52-.6,1.28-1.31,2.52-1.79,3.85-.49,1.39-.79,2.86.22,4.5-2.42-.42-4.62-.37-6.76.24,0,.13,0,.25,0,.38.48,0,.96.03,1.44,0,1.89-.12,3.61.4,5.28,1.25.67.34.92.8.63,1.43-.79,1.69-1.62,3.36-2.5,4.99-.18.34-.66.56-1.05.72-2.56,1.07-5.13,2.1-7.69,3.16-1.2.49-2.38,1.02-3.52,1.52-.13-.12-.22-.17-.24-.23-1.12-3.55-3.9-3.54-6.67-2.41-2.2.89-4.2,2.29-6.27,3.46.13-.93.45-2.05.39-3.15-.07-1.36-.25-2.79-.76-4.03-.77-1.86-2.65-2.33-4.37-1.22-1.22.78-2.33,1.75-3.57,2.7.3-1.31.61-2.58.88-3.87.39-1.88.77-3.76.18-5.68-.56-1.83-1.68-2.68-3.6-2.66-1.49.01-2.76.63-3.93,1.49-.28.21-.57.41-.71.51,0-1.31.04-2.66-.01-4-.07-1.79-1.15-2.84-2.96-2.94-2.26-.12-4.07.9-5.64,2.41-2.52,2.44-4.17,5.48-5.81,8.52-.4.74-.82,1.48-1.29,2.33-.59-2.33.24-4.03,1.48-5.74.89-1.23,1.5-2.69,2.1-4.1.5-1.16.46-2.37-.49-3.34-.98-.99-2.24-1.1-3.45-.66-1.47.54-2.88,1.27-4.29,1.97-3.04,1.51-5.7,3.53-7.96,6.07-.07.07-.22.07-.42.13.63-1.84,1.29-3.61,1.84-5.41.54-1.76,1.01-3.55.26-5.38-.37-.9-.96-1.62-1.99-1.62-.97,0-1.91.04-2.44,1.26-.24.55-1.26,1.07-1.92,1.06-.92,0-1.46.41-1.9.99-1.24,1.64-2.43,3.33-3.59,5.02-.49.72-.98,1.14-1.96,1.27-1.71.23-3.02,1.35-4.12,2.64-1.68,1.98-2.96,4.2-3.76,6.69-.08.25-.24.48-.68.75-.3-1.64-.67-3.27-.87-4.92-.05-.47.29-1.11.65-1.47,1.79-1.8,3.67-3.5,5.46-5.29,1.73-1.73,3.33-3.59,3.56-6.17.08-.93-.1-1.9-.21-2.84-.01-.12-.27-.22-.71-.55.82,3.35-.92,5.34-2.8,7.22-1.44,1.44-3,2.75-4.58,4.06.48-1.74,2.62-2.62,2.5-4.77-3.96,1.61-7.82,7.2-7.5,11.02.34,4.15,1.75,7.98,4.15,11.41,3.65,5.23,8.49,9.27,13.53,13.05,3.41,2.56,7.07,4.79,10.6,7.21,2.89,1.99,5.57,4.19,7.36,7.32,1.65,2.88,1.74,5.97,1.1,9.05-.42,2.04-1.36,3.97-2.09,5.94-.12.31-.37.57-.71,1.09-1.46-4.14-4.75-5.49-8.75-6.3,1.01-1.54,1.94-2.96,2.87-4.37-.05-.07-.1-.14-.15-.2-.35.24-.76.42-1.03.72-.78.89-1.47,1.86-2.25,2.75-.26.3-.69.65-1.04.65-2.25,0-4.21-.59-5.37-2.79-.52-.99-1.28-1.86-2.03-2.93,1.13-2.55,3.51-4.24,5.74-6.09-2.01.7-3.69,1.87-5.22,3.27-.23.21-.46.44-.67.67-.56.64-1.07,1.79-1.68,1.85-1.84.17-3.74.07-5.58-.22-1.22-.19-1.59-1.22-1.21-2.41.16-.49.32-.99.58-1.44,1.43-2.46-.32-5.61-3.81-5.82-1.15-.07-2.32.19-3.46.11-1.12-.08-2.32-.2-3.32-.65-1.14-.51-1.39-1.79-.52-2.71,1.12-1.19,2.46-2.2,3.78-3.19.82-.61,1.77-1.04,2.65-1.58,1.3-.79,2.06-2.54.25-3.88-1.3-.96-2.75-1.37-4.33-1.53-2.23-.21-3.06-1-3.48-3.2-.49-2.58-2.35-4.38-4.95-5.03-1.33-.33-2.63-.85-3.9-1.4-.92-.4-1.05-1.12-.64-2.07.61-1.4,1.71-2.04,3.11-2.23,1.54-.2,3.1-.26,4.64-.42.88-.09,1.74-.26,2.61-.39,0-.11-.02-.22-.02-.33-.19-.02-.38-.06-.57-.07-1.11-.03-2.23-.08-3.34-.05-1.81.04-3.63.15-5.44.22-.26.01-.62.14-.75.02-2.09-1.87-4.74-1.84-7.27-2.22-.67-.1-1.34-.2-2-.36-1-.25-1.45-1.01-1.16-1.99.8-2.71,5.2-8.41,9.28-8.24,1.49.06,2.96.44,4.44.68.29.05.58.12.92.03-1.68-1.47-3.67-2.16-5.88-2.19-2.29-.04-3.97,1.34-5.62,2.7-2.57-4-1.14-8.61,3.03-10.47,2.29-1.02,4.68-1.23,7.12-1.2,1.88.02,3.76.08,5.63.16,4.65.19,6.74-2.85,7.97-6.48,1.2-3.53.28-6.95-.19-10.41-.26-1.9.05-3.66,1.03-5.29,1.62-2.69,3.94-3.09,6.37-.98,1.4,1.22,2.64,2.64,3.91,4.01,1.39,1.5,2.79,2.99,4.08,4.57,1.49,1.83,2.54,3.86,2.05,6.39.11.02.21.04.32.06.14-.33.33-.65.4-1,.51-2.4-.27-4.59-1.65-6.39-1.31-1.7-.96-2.91.3-4.23.74-.78,1.42-1.63,2.26-2.28,1.43-1.1,2.56-.78,3.37.84.37.74.69,1.51.98,2.29.87,2.33,2.88,3.3,4.98,4.11,2.63,1.02,4.23,2.8,4.98,5.59,1.05,3.91,1.05,7.79.46,11.74-.08.54.29,1.28.68,1.72.48.55,1.07.29,1.69-.12,1.8-1.19,2.56-3.1,3.5-4.85,2.82-5.24,3.98-10.85,3.74-16.81-.06-1.56.27-3.17.62-4.72.47-2.08,2.24-3.18,4.32-2.74,1.67.35,3.3.86,4.94,1.3ZM136.55,110.82c-2.31-1.64-4.55-3.57-5.73-6.52-.53-1.34-.52-2.62-.14-3.97.37-1.3.66-2.61,1.01-4.04.88.29,1.82.56,2.73.91,1.73.66,2,2.28,2.25,3.79.32,1.91,2.19,3.94,4.18,3.88.61-.02,1.22.22,1.73.33-1.98,1.84-3.94,3.66-6.04,5.61ZM164.38,16.78c.17-.07.37-.08.49-.11-.37,2.94-.74,5.84-1.11,8.73.09.02.17.03.26.05.49-1.96.91-3.94,1.5-5.87.36-1.16.79-2.42,1.57-3.3,1.07-1.2,2.7-1.27,4.21-.9,2.03.5,3.25,2.05,4.24,3.75.62,1.06.99,2.27,1.62,3.32.53.88,1.27,1.63,2.09,2.66-.62,1.43-1.53,3.15-2.11,4.97-.58,1.84-.83,3.78-1.22,5.68.12.03.23.06.35.09.49-1.44.87-2.93,1.48-4.32.92-2.1,1.98-4.13,3.03-6.17.16-.31.58-.56.93-.7,1.77-.7,3.56-1.35,5.34-2.03,5.18-1.99,8.59,1.14,10.13,5.46.75,2.1.92,4.27.65,6.7-.93-.12-1.77-.15-2.57-.34-4.12-.99-6.54,2.21-7.42,4.76-.95,2.73-1.03,5.58-.82,8.41.26,3.53-.27,6.91-1.39,10.23-.11.32-.29.62-.47,1-.3-1.74-.53-3.37-.88-4.98-.83-3.72-2.72-6.73-6.29-8.33-2.17-.97-3.51-2.57-4.59-4.59-.82-1.52-1.68-3.05-3.35-3.89-2.07-1.04-4.05-.93-5.76.56-.89.78-1.66,1.71-2.4,2.63-.5.62-.8.74-1.36.05-.85-1.05-1.74-2.08-2.71-3.01-3.64-3.52-10.29-2.56-13.15,2.3-1.72,2.92-1.67,6.09-1.23,9.29.34,2.45.88,4.9.26,7.37-.62,2.46-1.57,3.18-4.14,3.23-1.39.03-2.78,0-4.35,0,1.14-3.51,1.12-7,.77-10.44-.22-2.1.34-3.78,1.16-5.6,1.9-4.23,2.19-8.59.64-13.04-.49-1.42-.83-2.9-1.08-4.38-.29-1.67.4-2.7,2.31-3.19,1.68-.44,3.46-.53,5.19-.77.55-.08,1.2.03,1.64-.23,1.24-.73,1.77,0,2.34.9,1.21,1.96,2.6,3.84,2.39,6.33-.01.14.18.29.39.62.54-2.11.07-3.85-.78-5.54-.43-.85-.77-1.75-1.3-2.53-.5-.75-.32-1.2.31-1.7,1.21-.95,2.31-2.06,3.61-2.85,1.42-.87,3.04-.61,4.51,0,2.44,1,4.76.59,7.09-.3ZM86.39,23c.73-3,2.56-5.14,5.52-6.21.8-.29,1.51-.22,2.11.54,1.6,2.02,3.34,3.93,4.83,6.03.71,1,.97,2.32,1.67,3.58.04-.45.18-.92.1-1.35-.48-2.78-1.89-5.1-3.68-7.23-.15-.18-.3-.37-.44-.57-.04-.05-.03-.14-.09-.59,1.87,1.11,3.55,2.1,5.22,3.1,1.13.67,2.21,1.4,3.64,1.2,1.07-.15,1.91-.67,2.44-1.54,1.56-2.56,3.81-3.14,6.58-2.52,1.89.42,3.78.62,5.62-.31.22-.11.76.11.98.34,1.9,2.03,3.67,4.16,4.45,6.92.06.2.24.36.37.54.13-.05.26-.1.4-.15-.39-1.16-.64-2.39-1.2-3.45-.8-1.5-1.77-2.91-2.78-4.28-.51-.69-.69-1.1.06-1.77,1.03-.92,1.87-2.06,2.88-3.01,1.78-1.68,3.08-1.63,4.83.08,1.23,1.2,3.03,1.56,4.36.82.9-.5,1.73-1.11,2.64-1.6,2.57-1.39,5.12-2.83,7.77-4.08,2.45-1.16,4.79-.49,6.81,1.12,1.21.97,2.23,2.18,3.56,3.5-2.69.28-4.68,1.11-6.36,2.73-2.45,2.35-5.46,3.3-8.82,3.31-.56,0-1.13.12-1.88.2-.09-.07-1.04.53-1.13.46-.52.54-1.43,1.06-1.47,1.63-.05.76-.39-.03-.05.76-.08.1-.35.25-.42.36-.72-.29-.3.98-1.08.67-.95.94.19,1.73.21,2.59-.12-.02-.23-.05-.35-.07-.17.6-.57,1.24-.48,1.8.26,1.6.63,3.2,1.13,4.75,1.05,3.24,1.33,6.46.21,9.89-.61-.97-1.12-1.87-1.71-2.71-1.72-2.49-4.06-4.32-6.47-6.08-.16-.12-.35-.27-.52-.26-.91.03-1.48-.36-1.9-1.17-.1-.19-1.01-.79-1.91-1.32-.42-.32-.86-.59-1.31-.75-2.49-.88-4.9-2.09-7.44-2.73-4.28-1.08-7.37,1.52-7.44,5.96,0,.6,0,1.19,0,1.94-2.01-.92-4.02-1.42-5.93-.32-1.94,1.11-1.95,3.32-2.4,5.33-3.32-1.65-6.49-3.36-10.33-3.19-.63-4.27-1.83-8.52-.77-12.89ZM127.17,34.26s0,0,0,0c.04.02.03.01,0,0ZM85.23,41.28c.47-1.2,1.78-1.47,2.95-1.4,2.41.15,4.63.89,6.62,2.36,1.51,1.13,3.24,1.98,4.7,3.16,1.21.98,2.17,2.27,3.24,3.42.1-.07.2-.13.3-.2-.98-1.44-1.96-2.88-3.02-4.43,1.31-.5,1.41-1.64,1.46-2.88.07-2.14,1.76-3.18,3.74-2.34.65.28,1.21.75,1.86,1.03.68.29,1.41.46,2.34.75-.1-.8-.15-1.2-.23-1.88.6.42.99.7,1.55,1.09,0-.55.07-.97-.01-1.35-.35-1.66-.92-3.29-1.1-4.96-.27-2.56,1.07-3.77,3.63-3.29,1.51.28,2.96.89,4.43,1.35.64.2,1.29.36,1.91.62.42.17.82.44,1.19.71.5.37,2.03,1.44,3.26,2.23.11.19.24.37.4.49,7.11,5.27,8.93,12.57,8.07,20.91-.1.93-.31,1.85-.46,2.78-3.19-.02-6.04.64-8.6,2.21-2.77,1.7-4.76,4.19-5.18,7.37-.26,2,.45,4.16.93,6.2.15.63.12.96-.22,1.46-.95,1.4-1.9,2.82-2.71,4.31-.77,1.42-.39,2.76.62,3.99,1.61,1.97,3.84,2.56,6.2,2.93,1.2.19,2.38.47,3.67.73-.15.49-.23.79-.33,1.08-.59,1.78-.22,3.56,1.31,4.6,1.25.85,1.2,1.87.91,3.01-.38,1.46-.84,2.9-1.32,4.33-.77,2.25-.1,4.2,1.13,6.09,1.7,2.62,4.11,4.48,6.49,6.4.9.73,1.65,1.67,2.45,2.51.35.37.61.89,1.04,1.1,1.05.53,1.24,1.32,1.2,2.42-.08,2.72.03,5.44-.05,8.15-.03,1.01-.37,2.01-.57,3-2.04-.76-3.91-1.5-5.8-2.15-3.88-1.33-7.51-.95-10.77,1.73-2.31,1.9-4.89,2.64-7.9,2.07-1.06-.2-2.22.1-3.33.1-1.62,0-3.27.11-4.85-.16-1.46-.25-2.11-1.43-1.78-2.88.35-1.5.89-2.96,1.41-4.42,1.03-2.87.88-5.55-1.23-7.91-1.88-2.1-1.4-3.22.16-4.94q2-2.2,2.45-5.19c3.12,1.9,5.37,4.6,7.66,7.29-.96-3.16-2.67-5.87-5.3-7.77-2.16-1.56-4.62-2.71-6.99-3.95-.61-.32-1.39-.32-2.1-.41-.63-.08-1.29,0-1.91-.12-2.15-.4-3.39-1.43-1.68-3.66,1.25-1.64,2.69-3.13,4.11-4.63,1.62-1.7,3.12-3.43,2.9-6.05.1-.05.21-.1.31-.16,1.67,1.63,3.33,3.27,5,4.9.07-.03.14-.07.21-.1-.58-1.07-1.11-2.18-1.77-3.21-.94-1.46-2.03-2.83-2.97-4.3-1.53-2.38-6.65-3-9.22-2.09-2.58.92-4.85,2.25-7.11,3.75-1.45.96-3.15.89-4.7.19-1.5-.67-1.83-2.07-.79-3.32,1.15-1.4,1.72-2.87,1.63-4.7-.06-1.28,1.33-1.3,2.15-1.71.85-.43,1.82-.61,2.75-.89-.04-.14-.07-.27-.11-.41-1.66.47-3.32.94-4.98,1.41h0s0,0,0,0c-1.46-3.68-1.84-5.51-.9-7.01.08-.13.17-.25.26-.37.19-.24.42-.48.69-.72.13-.12.28-.24.43-.36q-.62-1.05.78-1.7c-.23-.76-.47-1.54-.76-2.51.89.2,1.71.39,2.54.57.8.17,1.6.34,2.41.51.06-.11.12-.22.18-.33-.17-.17-.32-.43-.52-.5-1.28-.43-2.57-.86-3.87-1.22-1.09-.3-2.06.37-2.3,1.46-.05.25-.24.47-.43.83-.69-1.46-.5-2.14.81-3.23-.44-.88-1-1.75-1.34-2.7-.38-1.08-.68-2.21-.77-3.34-.1-1.3.61-1.88,1.92-1.85.47,0,.95.09,1.41.19.98.23,1.77-.01,2.16-.98.3-.76.78-.78,1.42-.53,3.49,1.43,6.45,3.55,8.75,6.56.28.37.65.68.97,1.02.16-.14.31-.29.47-.43-1.21-1.43-2.33-2.95-3.65-4.28-2.09-2.1-4.48-3.78-7.34-4.72-.28-.09-.64-.26-.74-.48-.92-2.07-2.04-4.1-2.56-6.27-.29-1.2.26-2.72.75-3.97ZM13.84,94.72c-2.01-.5-3.97-1.18-5.37-2.87-1.04-1.26-1.13-2.94-.22-4.33,1.16-1.77,2.81-2.94,4.79-3.56,2.14-.68,3.53-1.89,3.6-4.38,2.81.05,5.19,1.49,7.74,2.28.05-.13.11-.27.16-.4-2.11-1.06-4.11-2.49-6.34-3.09-2.76-.74-4.83-2.32-6.79-4.14-1.3-1.2-2.49-2.56-3.5-4.01-1.66-2.39.03-4.07,1.87-4.95,2.63-1.25,5.49-1.23,8.32-1.35,1.84-.08,3.77.19,5.48-.32,1.71-.51,2.94-.23,4.2.78.11.09.28.09.53-.01-.7-.62-1.4-1.24-2.13-1.88.83-1.3,1.06-2.53.58-4.02-.58-1.82.27-3.41,1.72-4.52,3.02-2.31,6.38-3.24,10.2-2.4,4.15.91,7.16,3.46,9.78,6.57.63.75.97,1.76,1.5,2.76.31-1.67-.43-2.96-1.38-4.05-1.37-1.57-2.91-2.99-4.37-4.48-.22-.22-.42-.47-.75-.85,1.61-1.05,1.23-2.72,1.19-4.29-.07-2.81,0-5.58,1.21-8.21,1.25-2.7,3.42-4.35,6.09-5.38,2.2-.85,2.25-.79,3.81,1.09,2.43,2.92,4.37,6.11,5.4,9.8-.62-4.37-2.31-8.32-5.13-12.09,1.43-.21,2.66-.46,3.9-.57,5.72-.48,11.3.01,16.61,2.45,2.3,1.05,4.63,2.02,7.14,3.12-1.62,2.01-3.17,3.92-3.19,6.63-.02,2.59,1.14,4.73,2.19,6.98-.9.24-1.8.34-2.57.71-2.83,1.32-4.17,4.99-2.77,7.84,1.1,2.23,2.42,4.36,3.68,6.5.38.65.29,1.01-.18,1.64-1.01,1.35-1.78,2.87-2.72,4.44-1.29-.38-2.72-.85-4.17-1.24-5.44-1.48-10.94-1.54-16.5-.76-3.79.53-7.36,1.66-10.59,3.71-3.41,2.17-5.8,5.15-6.63,9.17-.22,1.05.19,2.22.09,3.32-.08.86-.29,1.89-.84,2.48-1.16,1.25-1.81,2.58-1.62,4.37-3.82.92-7.56,1.74-10.87,3.72-1.4.83-2.66.04-3.92-.18-3.1-.53-6.16-1.26-9.21-2.02ZM70.48,203.26c-.17.39-.35.93-.67,1.07-1.74.78-3.52,1.63-5.5.93-.94-.33-2.24-.58-2.65-1.29-.63-1.1-.94-2.59-.85-3.87.32-4.28,1.77-8.12,5.06-11.1.82-.74,1.47-1.67,2.04-2.66-1.81,1.53-3.76,2.92-5.37,4.63-1.27,1.35-2.11,3.09-3.14,4.65-.85-.25-1.97-.58-3.11-.92v-5.16c-.05-.03-.1-.07-.16-.1-.22.55-.48,1.09-.65,1.66-.16.53-.36,1.1-.32,1.64.24,3.25-1.96,5.32-3.67,7.61-1.21,1.61-2.6,3.06-4.45,4.01-3.05,1.57-5.17.73-6.08-2.54-.47-1.68-1.11-3.4-1.12-5.11,0-1.18.79-2.45,1.5-3.51.8-1.2,1.9-2.21,2.75-3.44-.91.83-1.86,1.6-2.7,2.49-.86.92-1.61,1.94-2.31,2.8-1.16-.39-2.27-.77-3.51-1.19.22-.96.47-2.04.73-3.13-.07-.02-.15-.04-.22-.06-.29.77-.68,1.52-.85,2.31-.49,2.29-2.52,2.57-4.19,3.13-2.1.71-4.28.77-6.49.16-2.25-.62-3.36-2.26-2.39-4.39.9-1.96,2.08-3.82,3.39-5.54,1.11-1.46,1.87-2.81,1.17-4.68-.13-.36.06-.94.27-1.32,2.06-3.61,5.05-6.13,8.97-7.54.29-.11.56-.26.8-.53-1.61-.23-2.99.52-4.3,1.26-1.41.79-2.78,1.7-4.01,2.75-1.19,1.01-2.17,2.26-3.25,3.42-1.61-1.09-1.83-3.43-.52-4.82,1.14-1.2,1.96-2.72,3.18-3.81,2.02-1.82,4.25-3.41,6.38-5.1.11-.08.18-.21.27-.31-.07-.11-.15-.22-.22-.34-.74.41-1.49.81-2.22,1.24-.82.48-1.63.98-2.43,1.49-.8.51-1.57,1.05-2.34,1.56-.57-1.11-1.09-2.12-1.7-3.32,2.02-2.67,5.33-4.19,7.89-6.56-.07-.09-.14-.19-.21-.28-3.05,2.08-6.1,4.16-9.25,6.31-1.16-.68-1.2-1.99-.9-3.32,1.13-5.1,3.92-8.99,8.5-11.59,1.15-.65,2.2-1.48,3.3-2.23-.07-.11-.14-.22-.21-.33-2.14,1.31-4.27,2.63-6.42,3.92-2.21,1.33-3.99,3.09-5.22,5.31-1.75-.97-3.46-1.79-5.04-2.82-4.23-2.75-4.23-6.7-1.79-10.3,3.36-4.96,8.18-8,13.7-10.01,1.75-.64,2.66-2.21,2.64-3.95-.02-1.78-.82-2.6-2.83-3.11-1-.25-2.01-.49-2.95-.89-1.37-.58-1.75-1.7-1.45-3.13.2-.95.15-1.94.22-3.03.31.17.59.31,1.19.63-.15-.83-.26-1.38-.36-1.93.06,0,.11.01.17.02.02-.6.06-1.21.05-1.81,0-.13-.15-.36-.25-.38-1.47-.24-2.42-1.43-3.77-1.95-2.93-1.14-4.5-3.86-3.74-6.22.66-2.03,1.77-3.8,3.36-5.26,2.58-2.36,5.76-3.43,9.04-4.29,2.54-.66,5.09-1.27,7.61-2,.82-.23,1.38-.19,2.05.39.74.64,1.68,1.04,2.48,1.62.35.26.64.68.79,1.09.04.11-.52.52-.86.66-.96.38-1.93.78-2.94,1.01-3.51.8-4.39,4.11-3.81,6.65.65,2.78,1.02,5.54.86,8.39-.23,4.16,1.91,5.37,5.52,5.86.71.1,1.45-.02,2.15.08.54.08,1.06.36,1.84.64-.75.84-1.25,1.5-1.85,2.03-2.3,2.05-2.71,4.83-1.01,7.3,1.54,2.24,3.68,3.44,6.38,3.69,1.35.12,2.7.28,4.04.5,2.95.49,2.76,2.05,2.09,4.18-.3.98-.85,1.88-1.18,2.86-.99,2.91.14,5.36,1.78,7.68,1.09,1.55,2.48,2.95,2.74,4.94.15,1.1.07,2.24.24,3.34.43,2.85,2.4,4.53,4.67,5.96,3.55,2.23,6.74,1.05,9.89-.99,1.18-.76,2.49-1.34,3.77-1.92.29-.13.89-.05,1.06.16.17.21.06.76-.1,1.07-.44.84-1.02,1.6-1.45,2.45-.41.8-.82,1.63-1.02,2.5-.49,2.17.21,3.97,1.94,5.4,2.24,1.85,3.44,4.29,3.81,7.15.03.23.07.51.21.68,1.17,1.41.41,2.45-.63,3.43-3.98,3.71-7.03,8.16-9.91,12.71-.89,1.41-1.31,3.12-1.98,4.67ZM147.7,218.21c-.96,7.2-3.13,14.12-5.07,21.1-.5,1.8-.66,3.69-1.18,5.48-1.08,3.72-3.29,6.64-6.77,8.44-2.44,1.25-3.82.52-4.38-2.15-.24-1.17-.4-2.36-.68-3.52-.37-1.53.49-2.79.84-4.15.59-2.31,1.23-4.61,1.84-6.91.03-.13-.04-.28-.1-.67-1.12,2.6-2.14,4.97-3.18,7.39-1.02-.67-1.83-1.2-2.56-1.68.39-1.94.91-3.82,1.11-5.74.19-1.9.04-3.83-.14-5.71-.49,2.41-.93,4.83-1.48,7.23-.19.84-.93,1.64-.88,2.43.1,1.5-1.22,2.03-1.75,3.07-.15.3-.8.34-1.21.52-3.42,1.48-5.72-.25-7.66-2.76-1.26-1.63-2.56-3.05-5.09-2.88.43-2.11.83-4.05,1.22-5.99-.08-.02-.16-.04-.23-.05-.68,1.48-1.36,2.96-2.04,4.44-.08.18-.24.38-.22.55.32,2.09-1.25,3.21-2.35,4.56-1.6,1.96-3.25,3.89-4.84,5.86-.42.52-.77.6-1.41.38-3.71-1.26-5.16-3.8-5.1-7.89.08-4.59,1.74-8.58,3.78-12.52.64-1.24,1.04-2.61,1.3-4.01-2.13,3.72-4.26,7.45-6.36,11.12-.75-.16-1.61-.25-2.4-.55-.32-.12-.68-.69-.66-1.03.09-1.74.3-3.48.48-5.22.03-.26.07-.52-.04-.82-1.21,2.15-1.24,4.59-1.59,7.02-1.86.22-3.59-.13-5.15-1.06-1.02-.61-1.69-1.57-1.72-2.83-.06-2.11-.06-4.23-.16-6.34-.12-2.74-.25-5.48-.51-8.2-.15-1.5.45-2.76.88-4.1.09-.29.17-.59.31-1.09-1.48.79-1.8,1.46-1.57,2.74.05.26-.02.62-.18.84-.48.67-1,1.32-1.56,1.94-.66.73-2.19.74-2.91.03-.85-.83-1.86-1.57-2.47-2.56-.52-.85-.92-2.05-.78-3,.89-5.92,3.29-11.21,7.02-15.92,1.29-1.63,2.21-3.56,3.37-5.3.59-.89,1.31-1.7,2.04-2.47.25-.26.71-.37,1.1-.43,1.8-.28,3.6-.6,5.41-.74,1.76-.14,3.58-.36,5.3-.08,2.54.42,4.97,1.39,7.64,1.11.87-.09,1.81.27,2.69.51,2.69.73,4.94.06,6.8-2,.1-.11.23-.19.36-.3,1.02.88,1.87,1.99,3,2.51,1.78.81,3.7,1.35,5.62,1.78,5.17,1.14,10.35,2.19,15.54,3.21,1.4.28,2.85.38,4.28.42.78.02,1.18.26,1.34,1,1.18,5.32,2.62,10.6,3.44,15.98.45,2.94.08,6.06-.32,9.05ZM195.94,241.98c-.39-1.79-.8-3.64-1.2-5.48-.14.03-.28.06-.43.09.06.41.15.82.19,1.23.39,4.13-.02,8.13-2.4,11.66-1.78,2.63-5.84,4.08-8.51,3.23-1.32-.42-2.17-1.25-2.53-2.6q-1.08-4.08-5.16-4.3c0-1.65.08-3.32-.02-4.98-.1-1.65-.37-3.29-.57-4.94l-.34.02c0,.46-.06.94,0,1.39.5,3.42.09,6.79-.86,10.06-.41,1.41-1.4,2.64-2.11,3.96-1.2,2.22-2.26,4.54-3.63,6.65-.77,1.19-1.98,2.15-3.15,3-.99.72-1.99.49-2.51-.61-.76-1.59-1.33-3.29-1.81-5-.37-1.33-.52-2.74-.7-4.12-.26-2.04-.61-3.99-3.07-4.67,1.88-2.75,3.31-5.52,3.65-8.72.1-.94.02-1.89-.11-2.87-.22,4.45-2.54,7.86-5.24,11.11-1.06,1.27-2.49,1.81-4,2.16-.26.06-.88-.34-.9-.57-.45-3.88-1.21-7.78-1.11-11.66.11-4.48.94-8.95,1.52-13.42.53-4.09.76-8.17.38-12.3-.57-6.16-2.22-12.03-4.34-17.8-.22-.59-.08-.83.49-1.07,1.83-.76,3.1-2.11,4-3.88.17-.33.68-.69,1.03-.69,3.28.02,6.06-1.05,8.19-3.61.03-.04.15,0,.45,0-.04.84-.06,1.68-.12,2.52-.18,2.35-.42,4.69.84,6.88.6,1.04,1.35,1.61,2.6,1.44,2.05-.28,4.11-.54,6.17-.77.55-.06,1.12-.04,1.68.03.76.09,1.19.46,1.17,1.34-.03,1.11-.05,2.26.18,3.33.65,2.96,2.86,3.99,5.61,4.27.99.1,1.99.22,2.96.41,1.48.29,2.54,1.19,3.39,2.41,1.6,2.31,4.14,3.1,6.8,2.32,3.68-1.08,6.2-3.56,8.39-6.53.63-.86,1.35-1.67,2.15-2.37,1.13-.99,1.98-.75,2.61.62.3.65.57,1.3.87,1.95.08.18.17.4.33.49,2.32,1.32,2.62,3.92,3.84,5.95,2.07,3.46,4.2,6.88,6.45,10.22.93,1.38,2.36,2.41,3.32,3.78.96,1.38,2.41,2.26,3.35,3.61.4.58.67,1.26,1,1.9-.09.05-.18.11-.27.16-.39-.3-.78-.6-1.3-1.01.04.4.02.64.09.84.75,2.36,0,3.76-2.4,4.4-1,.27-2.03.41-3.03.66-.6.15-1.17.39-1.85.62-.31-4.15-2.91-7.05-5.88-9.74.62,1.03,1.3,2.02,1.83,3.08.82,1.66,1.63,3.34,2.27,5.08.72,1.95.24,3.89-.58,5.69-.54,1.18-1.74,1.19-2.82.98-1.29-.25-2.53-.7-3.81-.99-1.5-.34-3.03-.58-4.53-.9-.27-.06-.65-.23-.73-.44-1.39-3.65-3.87-6.59-6.31-9.58.71,1.18,1.49,2.32,2.11,3.55.93,1.84,1.91,3.68,2.57,5.61.83,2.41.12,4.02-2,5.46-.72.49-1.42.98-2.12,1.46ZM289.9,229.32c-.04.33-.47.84-.77.88-4.39.63-6.5,3.84-8.51,7.26-2.11,3.58-5.08,6.39-8.42,8.9.62-2.35.71-4.64.09-6.96-.61-2.23-1.54-4.29-3.12-6.3.59,1.8,1.17,3.33,1.6,4.91.76,2.8.75,5.58-.24,8.36-.46,1.3-1.3,2.04-2.58,2.26-1.93.32-3.87.75-5.8.77-4.73.05-9.03,1.27-12.85,4.08-.12.09-.27.15-.51.28.51-3.41.62-6.7-.85-9.86.03.37.02.74.09,1.1.65,3.48.03,6.74-1.67,9.8-.34.62-.96,1.16-1.57,1.54-2.5,1.55-5.27,2.35-8.16,2.77-.11.02-.23-.05-.43-.09,2.78-6.67,1.82-13.19-.71-19.65.37,2.14.84,4.27,1.07,6.42.48,4.46-.41,8.71-2.33,12.76-.33.69-.77.94-1.57.96-2.92.08-5.53-.9-8.06-2.21-2-1.03-4.01-2.03-6.07-3.06,2.16-2.43,2.95-5.21,1.3-8.21-.1,1.2-.04,2.56-.35,3.83-.61,2.48-3.19,4.43-5.7,4.6-1.03.07-2.06.2-3.09.31-2.98.34-5.71-.3-8.15-2.06-1.51-1.08-3.02-2.16-4.46-3.33-.28-.23-.42-.88-.33-1.27.54-2.27,1.96-3.9,3.83-5.24.67-.48,1.19-1.28,1.55-2.05.44-.94.98-1.16,1.85-.68.59.32,1.13.79,1.75.98,1.78.53,3.57,1.27,5.38,1.32,2.47.08,4.28-1.46,5.25-3.68.84-1.91,1.88-3.42,4.11-3.62,2.97-.27,4.49-2.29,5.09-4.81.7-2.93.39-5.9-1.7-8.37-.27-.32-.6-.67-.98-.82-.96-.38-.93-.8-.17-1.37-.22-.33-.42-.65-.64-.98,1.92-.87,3.87-.71,5.81-.58.27.02.73.11.8-.01.85-1.51,1.24-.25,1.88.22.95.7,2.04,1.2,2.99,1.89,2.21,1.63,3.6,3.96,5.11,6.19,1.53,2.24,3.15,4.39,5.61,5.72,4.7,2.55,8.04,1.69,11.52-1.77.62-.61,1.18-1.28,1.71-1.97,2.7-3.51,4.57-3.01,7.57-1.72,1.39.6,2.72,1.33,4.15,1.8,3.51,1.15,6.48-.08,9.09-2.39,1.9-1.68,3.7-3.48,5.64-5.31,3.79,1.36,5.37,4.83,4.96,8.48ZM303.37,196.88c-1.18,1.52-2.13,3.22-3.07,4.91-.34.61-.35,1.41-.51,2.17-1.32-.74-2.5-1.41-3.67-2.07l-.13.19c.73.65,1.44,1.32,2.19,1.95,1.08.91,1.64,2.01,1.81,3.46.37,3.09.96,6.14,1.38,9.22.95,7-2.86,11.53-9.82,12.78,0-4.34-1-8.1-6.03-9.53.8-.65,1.49-1.13,2.11-1.71,2.61-2.44,3.28-5.56,2.55-8.86-.58-2.61-1.65-5.12-2.56-7.65-.97-2.68-.49-4.1,1.94-5.63,2.77-1.74,4.17-4.16,3.68-7.52-.21-1.44-.15-2.87,1.34-3.64.68-.35,1.52-.44,2.29-.59,3.58-.66,5.73,1.39,7.54,4.04,2.08,3.04,1.79,4.84-1.01,8.46ZM316.27,155.15c-.54,1-1.18,1.99-1.93,2.84-1.55,1.77-3.2,3.45-3.27,6.08-2.14-3.26-4.61-6.09-7.94-8.13.95,1.12,1.91,2.24,2.86,3.37,3,3.57,4.71,7.78,5.9,12.22.68,2.54.09,3.56-2.59,4.43-2.6.84-5.26,1.5-8.04,2.27-.46-4.65-2.82-8.33-6.2-11.49,2.57,3.87,4.6,7.91,4.25,12.75-1.81.54-3.61,1.02-5.37,1.61-2.97,1-5.01,3.65-4.66,6.7.33,2.85-.86,4.52-3.16,5.78-.58.32-1.11.74-1.73,1.15-2.57-3.87-5.83-7.09-9.37-10.04-.08.06-.16.12-.24.18.17.25.31.53.51.74,2.73,2.74,5.08,5.77,7.14,9.03.49.78.77,1.45.43,2.51-.77,2.41-.04,4.72,1.06,6.9,1.2,2.38,2.42,4.73,2.53,7.5.07,1.85-.52,3.23-2.09,4.23-.83.53-1.61,1.13-2.58,1.82-.31-6.69-3.91-11.41-8.5-15.54-.99-.89-2.14-1.59-3.22-2.38-.09.11-.18.22-.27.33.15.18.28.38.46.53,3.23,2.69,6.01,5.75,7.79,9.61,1.33,2.88,1.94,5.89,1.5,9.07-.46,3.3-5.08,6.43-8.27,5.46-1.5-.46-2.94-1.19-4.34-1.93-.37-.2-.58-.88-.67-1.37-.28-1.49-.46-3-.69-4.5-.14.01-.28.03-.41.04.14,1.61.27,3.22.43,5.09-3-1.57-5.54-1.08-8.01,1.01-.16-5.28-1.75-9.82-4.86-13.79l-.31.14c.58,1.14,1.19,2.27,1.72,3.43,1.5,3.28,1.71,6.7,1.47,10.28-.17,2.5-1.33,4.18-3.13,5.6-1.98,1.57-4.2,1.56-6.23-.43-2.13-2.09-3.95-4.5-5.91-6.76-1.11-1.27-2.23-2.53-3.35-3.81-.56.4-.93.66-1.3.92-.08-.05-.15-.1-.23-.14.15-.42.29-.84.49-1.38-.6-.36-1.24-.74-1.82-1.08-.51.14-1.09,1.99-1.29-.08-1.08-.32-2.18-.95-3.24-.9-2.57.12-5.14.52-7.69.9-.7.1-1.2.1-1.69-.46-3.18-3.62-5.58-7.75-7.79-11.91,1.59-.48,3.18-.97,4.9-1.49.65,1.07,1.35,2.3,2.13,3.47,1.4,2.11,3.08,3.99,5.46,4.96,3.24,1.32,5.94.03,8.15-2.31.96-1.01,1.78-2.27,2.27-3.57,1.03-2.73,3.3-3.05,5.67-3.35,1.57-.2,3.22-.21,4.68-.72.98-.34,1.91-1.29,2.48-2.21.7-1.13,1.23-2.47,1.4-3.78.28-2.14,2.29-3.2,4.16-3.41,1.97-.22,3.96-.41,5.89-.85,2.1-.48,2.07-.59,2.32-2.62,1.26.12,1.24-.89,1.41-1.7.48-2.26.81-4.55,1.44-6.76.31-1.1,1.17-2.04,1.76-3.07.93-1.61,1.64-3.3,1.28-5.21-.4-2.13-2.08-3.19-3.73-4.23-.93-.59-1.93-1.06-2.96-1.62,1.35-1.27,2.98-1.37,4.6-1.49.72-.05,1.44-.1,2.16-.04,4.73.43,8.96-5.17,7.39-9.86-.5-1.5-.85-3.06-1.17-4.62-.46-2.29.54-3.98,2.27-5.42,1.02-.85,1.98-1.81,2.83-2.83,1.95-2.33,1.69-4.83.33-7.33-.26-.49-.58-.95-1.02-1.66,1.79-.25,3.45-.66,5.12-.69,4.43-.06,8.87-.06,13.29.12,2.82.11,5.66.41,8.42.95,1.57.31,3.13,1.12,4.48,2.02,2,1.34,2.09,2.96.68,4.92-.24.33-.46.94-.32,1.23.61,1.19.06,1.23-1.03.93-.21.91-.41,1.78-.62,2.69-2.08-.98-4.15-1.96-6.22-2.93-.03.06-.05.13-.08.19,2.96,2.07,5.92,4.15,8.89,6.22.54.38.81,1.39,1.81.8.02-.01.39.5.53.79.2.42.27.92.52,1.31.71,1.09,1.56,2.11,2.21,3.24.22.38.22,1.1,0,1.5Z"/>
  </g>
</svg>