<?xml version="1.0" encoding="utf-8"?>
<!-- Generator: Adobe Illustrator 28.4.1, SVG Export Plug-In . SVG Version: 6.00 Build 0)  -->
<svg version="1.1" id="_x32_" xmlns="http://www.w3.org/2000/svg" xmlns:xlink="http://www.w3.org/1999/xlink" x="0px" y="0px"
	 viewBox="0 0 512 512" style="enable-background:new 0 0 512 512;" xml:space="preserve">
<path d="M102.4,204.4c-10.2,4.9-15.7,15.5-13.7,26.6c1.7,9.5,6.3,17.5,13.3,24.1c1.8,1.7,1.8,2.5,0,4.2c-5.7,5.3-9.5,11.8-11.8,19.3
	c-4.3,13.8,1,25.7,14.2,31.8c7.7,3.5,9.9,8.9,6.9,16.9c-4.6,12.5-0.2,24.7,11.3,31.2c7.2,4.1,14.9,6.1,23.1,5.8
	c2.9-0.1,3.5,0.6,3.5,3.4c-0.1,8.8,2.3,17,7,24.5c6.3,10.1,18.4,14.1,29.6,10c9.7-3.6,14-1.8,18.6,7.7c4.9,10.1,15.5,15.6,26.6,13.6
	c9.2-1.7,17-6.1,23.4-12.8c1.9-2,2.9-2.4,5.1-0.2c5.9,6.2,13.1,10.1,21.4,12.2c12.1,2.9,23.5-2.6,28.7-13.9
	c4.2-9.1,8.7-10.9,18.3-7.6c11.5,4,23.5-0.3,29.7-10.7c4.5-7.5,6.7-15.6,6.4-24.2c-0.1-2.6,0.5-3.4,3.2-3.3
	c6.6,0.2,12.8-1.4,18.9-3.9c16.8-6.9,20.7-23,15-34.9c-2.9-6.1-0.2-12.3,6-15.2c3.6-1.7,6.9-3.8,10-6.3c3.1-4.2,5.6-8.6,6.4-14
	c0.9-5.8-1.2-11.1-2.8-16.4c-0.7-6-4.7-10.2-8.5-14.2c-2.4-2.6-2.4-3.9,0.1-6.3c3.8-3.7,7.4-7.8,8.1-13.5c4.4-11.3,4.2-22-4.7-31.3
	c-2.3-1.4-4.4-3.1-6.8-4.3c-9.5-4.6-11.3-8.8-7.9-18.5c4-11.5-0.3-23.4-10.8-29.7c-7.5-4.5-15.6-6.6-24.2-6.3
	c-2.7,0.1-3.3-0.5-3.3-3.1c0.1-8.8-2.2-17-6.9-24.6c-6.4-10.3-18.6-14.4-29.9-10.2c-9.4,3.5-14,1.6-18.3-7.5
	c-4.9-10.4-15.6-15.9-26.9-13.8c-9,1.7-16.7,6-23.1,12.5c-2,2.1-3,2.8-5.4,0.2c-5.7-6.1-12.9-10-21.1-12c-12.3-3-23.7,2.4-29,14
	c-4,8.8-8.9,10.8-18,7.5c-11.6-4.2-23.7,0.2-30,10.8c-4.4,7.3-6.6,15.3-6.3,23.8c0.1,3.2-0.9,3.6-3.7,3.6c-8.7,0-16.7,2.3-24.1,6.9
	c-10.2,6.3-14.2,18.4-10.2,29.6C113.5,195.5,111.7,199.9,102.4,204.4z M128.9,347.2c-6.2-3.3-8.1-8.8-5.8-15.4
	c5.3-15.2,0.4-26.7-14-33.4c-6.5-3-9.1-8.4-7-15.3c3.9-13.1,12.6-21.3,26.1-23.7c7.2-1.3,14.5-1.4,22.8-2.1
	c-2.4,3.2-4.2,5.2-5.4,7.5c-4.5,8-2.7,16.6,5.2,24c2.1,1.9,2.3,2.9,0.4,5.3c-6.6,8.4-9.3,18-7.4,28.6c1.7,9.6,8.9,16,18.6,16.8
	c2.2,0.2,5.5-0.4,6.2,1.6c0.6,2-2.6,3.2-4.4,4.4C152.8,353,140.9,353.6,128.9,347.2z M157.6,242.3c-2.6-2.4-2.1-5.3,0-8
	c4.5-5.9,13.2-9,20.5-6.6c16.3,5.3,32.6,11,48.9,16.5c1.8,0.6,2.4,1.3,1.7,3.3c-2,5.6-1.9,11.4,0,17c0.6,1.7,0.2,2.5-1.5,3.1
	c-16.6,5.6-33.1,11.3-49.7,16.8c-1.6,0.5-3.3,0.4-4.2,0.5c-7-0.2-12-2.7-15.9-7.5c-2.2-2.7-2.4-5.6,0.2-8
	C165.4,262.5,165.5,249.5,157.6,242.3z M214.5,343.4c0.3,2.3-0.4,3.8-1.8,5.2c-5,5.1-11.2,7.6-18.3,7.4c-6.3-0.2-8.8-2.7-9.3-9.1
	c-0.8-9.9-5.9-16.8-14.5-19.2c-2.1-0.6-4.5-0.7-6.7-0.9c-4.8-0.6-7.2-2.7-7.7-7.5c-0.9-8.1,1.9-15,7.8-20.6c1.3-1.2,2.7-1.6,4.6-1.4
	c5.8,0.8,11.5-0.1,17.1-2c14-4.9,28-9.6,42-14.4c1.4-0.5,2.8-1.4,5-1c-5.4,15.8-10.6,31.3-16,46.7
	C214.6,332.2,213.7,337.7,214.5,343.4z M247.9,398.8c-4.2,5.4-9.6,9.1-16.1,11.2c-7.8,2.5-13.1,0.2-16.6-7.2
	c-4.9-10.4-13.6-15.8-24.6-15.2c-3,0.2-5.8,1.2-8.6,2.2c-6.8,2.5-12.2,0.5-15.8-5.8c-2.5-4.4-3.9-9.1-4.4-14
	c-0.5-5.3-0.2-10.2,6.2-12c1.8-0.5,3.4-2,5-3c9.3,15.7,27.4,18.7,43.3,7c3.3-2.4,5-2.8,7.9,0.4c4.7,5.2,10.8,7.7,18,5.9
	c2.1-0.5,2.6,0.2,2.8,2.2c0.8,8.3,0.6,16.7,4,24.5C249.8,396.5,248.7,397.7,247.9,398.8z M242.4,354.3c-2.7,2.7-5.6,2.3-8.3-0.1
	c-6.2-5.4-8.9-12.4-6.4-20.2c5.2-16.5,11.1-32.8,16.6-49.3c1.2-3.5,3.1-1.3,4.9-0.7c0,0,0,0,0,0c0,0,0,0,0,0c5.4,0.7,10.7,1,15.9-1
	c1.9-0.7,2.2,0.5,2.6,1.7c5.6,16.4,11.4,32.7,16.6,49.2c2.4,7.6-0.2,14.5-6,19.9c-2.9,2.7-6,3.1-8.9,0.1c-1.9-1.9-4.3-3.1-6.5-4.6
	C255.1,347.3,248.2,348.5,242.4,354.3z M240,256c0-8.6,7.3-15.9,16-15.9c8.6,0,15.9,7.4,15.9,16c0,8.6-7.4,15.9-16,15.9
	C247.3,271.9,240,264.6,240,256z M297.4,168.5c-0.2-1.6-0.3-3.1,1.2-4.1c4.8-5.9,11.2-8.4,18.6-8.4c6.5,0,9.1,2.6,9.7,9.2
	c0.9,9.9,6,16.8,14.6,19.1c2.3,0.6,4.7,0.7,7.1,0.9c4.1,0.4,6.5,2.8,7.1,6.7c1.2,8.6-1.6,15.8-8,21.6c-1.3,1.2-2.7,1.5-4.2,0.7
	c-10.4-1.2-19.6,3.4-29.1,6.5c-10.2,3.4-20.3,7-30.4,10.4c-1.4,0.5-2.8,1.4-4.6,0.9c5.5-15.9,10.9-31.8,16.4-47.7
	C297.6,179.2,298.1,173.9,297.4,168.5z M283.1,247.3c-0.5-1.4-0.4-2.3,1.2-2.8c15.6-5.2,31.2-10.5,46.9-15.8c0,0,0,0,0,0
	c8.5-3.4,17-1.5,22.6,5.1c2.6,3,2.9,5.8,0.2,9c-7.8,9.1-7.8,17.4,0,26.4c2.7,3.2,2.4,6-0.1,9c-5.5,6.4-14.4,8.5-22.6,5.1
	c-15.6-5.3-31.2-10.5-46.9-15.8c-1.6-0.5-1.7-1.4-1.3-2.8C285.1,258.9,285.1,253.1,283.1,247.3z M346.8,383.8
	c-3.3,5.3-8.9,7.7-14.6,5.1c-14.5-6.5-29.7,1.8-34.1,14.2c-2.2,6.2-8.2,8.7-14.6,6.8c-13.2-3.9-21.7-12.5-24.1-26.2
	c-1.3-7.2-1.4-14.5-2-21.7c1.5-0.6,2.1,0.2,2.7,0.7c9.9,8.3,19.5,8,28.4-1.4c2.2-2.3,3.3-2.4,5.9-0.5c8.4,6.5,18.1,9,28.7,7.1
	c9-1.7,15.5-8.9,16.4-18.1c0.2-2.3-0.1-4.8,1.7-7.2C352.3,353.5,354.7,371.2,346.8,383.8z M347.8,326.9
	c-13.8,1.5-19.6,7.2-20.9,20.8c-0.5,5.3-2.7,7.8-7.9,8.2c-8.4,0.6-15.6-2-20.8-8.9c-1.5-0.9-0.8-2.2-0.7-3.4
	c0.6-5.9-0.1-11.5-2.1-17.1c-4.9-14-9.6-28-14.4-42c-0.5-1.4-0.9-2.9-1.3-4.3c1.8-0.7,3,0.3,4.3,0.7c13.8,4.7,27.5,9.3,41.2,14.2
	c5.7,2,11.4,3,17.4,2.7c2.4-1,4.3-0.3,6.1,1.5c5.4,5.5,8,11.9,7.3,19.6C355.4,324.1,353,326.3,347.8,326.9z M402.5,296.8
	c-10.2,4.8-15.6,13.5-15,24.3c0.2,3.1,1.2,6.1,2.3,9c2.4,6.6,0.4,12-5.6,15.5c-4.9,2.8-10.1,4.3-15.7,4.5c-2.5,0.1-5.7,0.7-7.3-1.1
	c-2.5-2.7-4.1-6.3-5.9-9.7c-0.7-1.2,0.7-1.3,1.3-1.6c8.8-4.3,12.1-11.7,12.3-21.5c-0.3-7.9-2.5-15.6-7.8-22
	c-2.2-2.6-1.7-3.8,0.5-5.9c5.5-5.1,8.5-11.2,6.6-19c-0.5-1.9,0.2-2.5,2-2.6c8.4-0.8,17-0.6,25-4c1.4-0.6,2.4,0.4,3.4,1.2
	c5.8,4.4,9.7,10.2,11.7,17.2C412.4,288.4,409.8,293.4,402.5,296.8z M382.1,164.3c7,3.7,9.2,9.1,6.5,16.5c-5.1,14,0.2,26.5,13.6,32.6
	c7.4,3.4,10,8.7,7.4,16.5c-4.5,13.3-13.8,21.1-27.6,23.1c-6.5,1-13.2,1-19.7,1.5c-0.9-1.5,0.2-2,0.8-2.7c8.1-9.7,7.8-19.4-1.4-28.1
	c-2.5-2.3-2.6-3.5-0.5-6.2c6.4-8.3,8.9-17.8,6.9-28.3c-1.7-9.3-9-15.8-18.3-16.6c-2.4-0.2-4.8,0-7.1-1.7
	C353.9,159.9,369.3,157.5,382.1,164.3z M266.1,110.7c4.2-4.2,9-7.3,14.7-8.9c7.3-2.2,12.7,0.3,15.9,7.3c3.5,7.9,9.3,13,17.8,14.9
	c5.1,1.2,10.1,0.4,14.9-1.5c7.5-2.9,12.9-0.9,16.7,6.1c2.7,4.9,4,10.2,4.2,17.8c0.2,2.3-0.6,5.8-5.5,7.2c-1.6,0.4-3,1.6-4.3,2.6
	c-1.5,1.2-2,0.6-2.7-0.8c-5.2-10.4-14.3-13-24.9-11.9c-7.2,0.7-13.7,3.4-19.3,8c-1.3,1.1-2.3,2.2-4,0.1c-5.4-6.3-11.9-9.9-20.6-7.7
	c-1.9,0.5-2-0.8-2.1-2.2c-0.4-4.9-0.8-9.8-1.4-14.7c-0.3-2.2-0.6-4.6-1.6-6.5C261.8,116.4,263.2,113.6,266.1,110.7z M262.7,162.6
	c2.4-1.5,4.8-2.9,6.8-4.9c2.5-2.5,5.2-2.2,8-0.1c5.9,4.4,9.1,13.2,6.7,20.5c-5.4,16.5-11.1,32.8-16.7,49.2c-0.4,1.2-0.7,2.4-2.6,1.7
	c-5.2-1.9-10.5-1.7-15.9-1c-3,2-4.3,1.2-5.4-2.3c-5-15.1-10.3-30.1-15.4-45.2c-3-8.7-0.7-17.5,5.8-22.7c2.8-2.2,5.7-2.7,8.3-0.1
	C248.2,163.5,255,164.7,262.7,162.6z M164.3,129.6c3.7-6.8,9.1-8.8,16.3-6.3c14.3,5.1,26.5,0,32.8-13.9c3.2-7,8.5-9.5,15.9-7.2
	c12.8,4,20.8,12.7,23.3,26c1.3,7.2,1.5,14.5,1.7,21.7c-1.6,0.3-2.2-0.6-2.9-1.2c-9.2-7.7-18.9-7.6-27.1,0.9c-3,3.2-4.6,2.8-7.9,0.5
	c-8.1-5.9-17.3-8.2-27.3-6.3c-9.4,1.7-15.8,8.8-16.7,18.2c-0.2,2.3,0.2,4.8-1.7,7.1C159.9,158.6,157.4,142.4,164.3,129.6z
	 M165.4,185.1c9.5-0.8,16.4-6,18.8-14.5c0.6-2.3,0.7-4.7,1-7.1c0.4-4.1,2.6-6.5,6.6-7.1c8.6-1.3,15.8,1.6,21.7,8
	c1.2,1.3,1.2,2.6,1,4.3c-0.7,5.8,0.1,11.5,2.1,17.1c4.9,14,9.7,28,14.4,42c0.5,1.4,1.4,2.7,1,4.8c-2.3-0.7-4.6-1.4-6.8-2.1
	c-13.3-4.6-26.7-9.1-40-13.8c-5.4-1.9-11-2.7-16.7-1.9c-2.3,0.3-3.8-0.4-5.2-1.9c-4.9-4.8-7.4-10.6-7.4-17.5
	C155.9,188.3,158.4,185.6,165.4,185.1z M124.4,191c-0.2-3.1-1.2-6.1-2.3-9c-2.5-6.5-0.5-12,5.5-15.6c4.3-2.6,9-3.9,14-4.5
	c5.5-0.6,10.4-0.3,12.4,6.3c0.5,1.8,2,3.3,3,5c-13.2,7.6-17.1,18.8-11.8,34c1.4,4.2,3.5,8.1,6.4,11.4c1.4,1.6,1.4,2.5-0.3,4
	c-6.1,5.4-9.7,11.8-7.5,20.2c0.5,1.8-0.4,2.1-2,2.3c-8.4,0.9-17,0.6-25,4c-1.6,0.7-2.7-0.5-3.8-1.3c-5.4-4.2-9.1-9.6-11.2-16.1
	c-2.5-7.8-0.1-13,7.3-16.5C119.5,210.4,124.9,201.7,124.4,191z"/>
</svg>
