<?xml version="1.0" encoding="utf-8"?>
<!-- Generator: Adobe Illustrator 28.4.1, SVG Export Plug-In . SVG Version: 6.00 Build 0)  -->
<svg version="1.1" id="_x32_" xmlns="http://www.w3.org/2000/svg" xmlns:xlink="http://www.w3.org/1999/xlink" x="0px" y="0px"
	 viewBox="0 0 512 512" style="enable-background:new 0 0 512 512;" xml:space="preserve">
<path d="M198.8,162.4c0.9-41.7,23.1-67,57.6-66.8c34.3,0.2,56.7,26.2,56.5,66.7c3.7,0.9,7.7,1.9,11.7,2.8
	c29.5,6.6,57.3,17.3,81.5,35.8c45,34.5,60.4,81.6,56.3,136.1c-1.3,17-12.5,28.1-28,35.1c-4.2,1.9-8.7,6-10.4,10.1
	c-8.6,20.9-26,33.9-48.8,33.9c-81.3,0.2-162.7,0.2-244,0c-23.2-0.1-40.6-13.5-48.9-35.3c-1.7-4.4-5.7-8.7-9.8-11.1
	c-15.2-9-23.3-21.7-23.7-39.4C47.1,246.1,91.5,189.6,177,167.5C184,165.7,191.1,164.2,198.8,162.4z M290.3,186.6
	c2.2,11.3,4.3,20.9,6,30.6c5.6,31.7,11.5,63.4,16.3,95.2c3.1,20.3-0.2,39.3-18.2,52.6c-17.8,13.2-54,14.4-73.6,2.1
	c-21.3-13.3-24.7-34.1-21.1-56.6c5.6-35.2,12.2-70.2,18.4-105.3c1.1-6.1,2.3-12.2,3.7-19.9c-28.5,11.2-46.8,30-59.9,54.4
	c-15,28-20.8,58.3-21.2,89.8c-0.2,20.7-10.2,34.7-29,42.9c-2.6,1.1-5.3,2.4-8.3,3.7c6.4,14.5,17.4,19.5,31.6,19.4
	c43.3-0.1,86.7,0,130,0c36.1,0,72.1,0.1,108.2-0.1c16.2-0.1,26-7.3,29.8-21.7c-24-9.1-31.9-27.5-32.4-52.4
	c-0.7-37.7-12.1-72.5-36.4-102.1C322.8,205.1,309.3,193.6,290.3,186.6z M256.2,354.4c27.7-0.1,39.8-12.5,35.5-39.4
	c-6.9-42.8-15.5-85.2-22.8-127.9c-1.5-8.7-6.8-8.7-13.2-8.9c-6.8-0.2-11.4,0.9-12.8,9.2c-7.3,42.3-15.7,84.4-22.6,126.8
	C215.9,341.9,228,354.5,256.2,354.4z M336.4,189.9c40,40.6,55.2,88.3,56,141.7c0.2,13.4,11.7,22.9,25.5,22.8
	c13.7-0.2,23.9-9.9,24.7-23.6C446.6,262,407.3,208.7,336.4,189.9z M171.2,191.7c-3.9,0.7-5.7,0.8-7.4,1.4
	c-63.1,21-97.7,71.2-94.4,137.3c0.7,13.8,10.5,23.6,24.3,24c14.1,0.5,25.8-9.4,26-23.4C120.4,279.2,133.3,232,171.2,191.7z"/>
</svg>
