<?xml version="1.0" encoding="UTF-8"?>
<svg id="Layer_2" data-name="Layer 2" xmlns="http://www.w3.org/2000/svg" viewBox="0 0 1695 75.74">
  <defs>
    <style>
      .cls-1 {
        fill: #fff;
        stroke-width: 0px;
      }
    </style>
  </defs>
  <g id="Capa_1" data-name="Capa 1">
    <path class="cls-1" d="M1677.12,28.75c-5.85-1.86-11.34-3.27-16.48-4.21-5.15-.93-9.71-1.98-13.68-3.16-3.98-1.16-6.66-3.86-8.06-8.07-.94,3.75-3.75,7.49-8.41,11.22-4.68,3.75-9.59,6.78-14.73,9.12,2.33-2.33,3.62-5.14,3.86-8.42.23-3.27-.82-6.07-3.15-8.42-2.81-3.74-4.8-6.66-5.96-8.77-1.17-2.1.11-4.79,3.86-8.06-4.68.94-7.6,3.51-8.77,7.71-1.17,4.21-.59,8.18,1.75,11.92,2.8,3.75,1.63,8.19-3.51,13.32-1.4-2.8-3.98-4.21-7.71-4.21-4.68,0-7.71,1.64-9.12,4.91H108c-2.34-3.28-5.37-4.91-9.12-4.91s-6.31,1.4-7.71,4.21c-5.14-5.15-6.31-9.59-3.51-13.32,2.35-3.75,2.92-7.71,1.75-11.92-1.16-4.21-4.09-6.78-8.77-7.71,3.75,3.26,5.03,5.96,3.86,8.07-1.16,2.1-3.15,5.02-5.96,8.77-3.26,4.21-3.74,9.12-1.4,14.73-5.14-3.28-9.7-6.9-13.68-10.87-3.96-3.98-6.42-7.13-7.36-9.47-1.4,4.21-4.09,6.89-8.06,8.06-3.97,1.16-8.53,2.33-13.68,3.51-5.14,1.16-10.75,2.57-16.83,4.21-6.07,1.63-11.92,5.02-17.53,10.17,6.08,4.67,12.04,7.94,17.88,9.82,5.85,1.86,11.34,3.27,16.48,4.21,5.15.93,9.71,1.98,13.68,3.16,3.98,1.16,6.66,3.86,8.06,8.07.94-3.75,3.75-7.49,8.41-11.22,4.68-3.75,9.59-6.78,14.73-9.12-2.33,2.33-3.62,5.14-3.86,8.41-.23,3.27.82,6.07,3.15,8.42,2.81,3.74,4.8,6.66,5.96,8.77,1.17,2.1-.11,4.79-3.86,8.06,4.68-.94,7.61-3.51,8.77-7.71,1.17-4.21.59-8.18-1.75-11.92-2.8-3.75-1.63-8.19,3.51-13.32,1.4,2.8,3.98,4.21,7.71,4.21,4.68,0,7.71-1.64,9.12-4.91h1479.01c2.34,3.28,5.37,4.91,9.12,4.91s6.31-1.4,7.71-4.21c5.14,5.15,6.31,9.59,3.51,13.32-2.35,3.75-2.92,7.71-1.75,11.92,1.16,4.21,4.09,6.78,8.77,7.71-3.75-3.26-5.03-5.96-3.86-8.07,1.16-2.1,3.15-5.02,5.96-8.77,3.26-4.21,3.74-9.12,1.4-14.73,5.14,3.28,9.7,6.9,13.68,10.87,3.97,3.98,6.42,7.13,7.36,9.47,1.4-4.21,4.09-6.89,8.06-8.06,3.97-1.16,8.53-2.33,13.68-3.51,5.14-1.16,10.75-2.56,16.83-4.21,6.07-1.63,11.92-5.02,17.53-10.17-6.08-4.67-12.04-7.94-17.88-9.82Z"/>
  </g>
</svg>