<?xml version="1.0" encoding="UTF-8"?>
<svg id="Layer_2" data-name="Layer 2" xmlns="http://www.w3.org/2000/svg" viewBox="0 0 1742.15 160.12">
  <defs>
    <style>
      .cls-1 {
        fill: #1d1d1b;
        stroke-width: 0px;
      }
    </style>
  </defs>
  <g id="Capa_1" data-name="Capa 1">
    <g>
      <g>
        <g>
          <path class="cls-1" d="M1024.03,158.44c-6.8,3.37-24.8,2.71-28.1-11.62-.43-1.89-.46-5.87,0-7.75,1.85-7.52,6.62-10.66,10.66-10.66h2.91c3.23,1.13,5.7,4.12,4.84,8.72-.81,4.35-6.78,3.88-6.78,3.88l-5.81-.97v3.88c1.78,3.23,4.36,4.84,7.75,4.84,9.53,0,15.34-6.14,17.44-18.41v-4.84c0-13.4-10.01-26.96-30.04-40.69l-13.56-11.62h-.97c1.29,2.58,1.94,6.46,1.94,11.62l-3.88,30.03c0,4.36,3.55,8.88,10.66,13.56v.97c-.64,1.94-2.58,2.91-5.81,2.91,0,0-5.13.37-6.78,0-9.73-2.15-13.56-10.01-13.56-17.44-2.42,0-6.31-1.29-7.75-5.81-.66-2.08-.8-6.69,0-8.72,5.08-12.92,9.69-27.93,9.69-31,0-6.46-3.88-12.27-11.63-17.44v.97c4.52,5.49,6.28,11.64,6.78,18.41.49,6.6.72,18.55-10.66,24.22,0,0-3.61.91-4.84.97-9.73.48-14.53-5.81-14.53-14.53,0-4.84,3.39-10.24,10.66-9.69,4.84.37,7.32,4.4,6.78,7.75-.65,4.03-3.88,6.02-7.75,5.81-4.49-.24-6.78-4.84-6.78-4.84,0,0-.41,4.42,0,5.81,1.52,5.16,6.78,6.78,11.63,6.78,7.11,0,13.56-5.65,13.56-17.44,0-4.42-3.48-16.47-3.48-16.47-2.74,4.84-6.5,8.45-12.99,8.72-7.85.34-11.63-5.17-11.63-11.63,0-8.56-7.43-16.63-22.28-24.22-5.17-2.58-9.36-3.88-12.59-3.88h-.97c-10.98,1.78-16.47,8.24-16.47,19.38,0,5.98,4.2,9.53,12.59,10.66,5.33,0,8.56-3.23,9.69-9.69,0,0,.12-2.19,0-2.91-.65-4.03-4.84-5.81-10.65-5.81v-.97s2.15-.85,2.9-.97c5.1-.83,9.68,3.36,10.66,10.66.64,4.8-2.15,13.67-14.53,12.59-7.88-.69-13.65-3.98-14.53-16.47-.36-5.15,2.26-10.33,6.78-15.5,6.46-4.68,12.27-7.27,17.44-7.75,0,0,7.27-.19,9.69,0,14.66,1.13,29.39,9.05,44.57,20.35h.97c9.69-1.78,13.77-4.11,14.66-8.71,2.21-11.48-7.87-11.63-7.87-11.63v.97s2.81,2.67,2.91,3.88c.3,3.9-1.94,5.81-5.81,5.81,0,0-5.21-1.12-4.84-6.78.28-4.32,4.84-5.81,8.72-5.81,6.46,1.13,8.84,4.43,9.69,9.69.91,5.65-4.2,10.66-5.81,10.66v1.94s21.75-18.11,31.97-18.41c2.42-.07,5.65,2.59,9.69,7.75l3.88-.97c7.27,0,14.41,4.01,16.47,13.56,1.13,5.27-1.94,9.69-1.94,9.69-5.01-5.17-9.2-7.75-12.6-7.75-5.49,0-12.84,4.5-24.22,8.72-3.25,1.2-13.56,2.91-13.56,2.91v1.94c7.59,3.55,16.31,6.46,26.16,8.72,0,0,12.09-1.35,15.5-2.91,7.07-3.23,8.26-7.45,13.56-7.75,6.45-.36,13.54,4.7,12.59,14.53-.73,7.64-9.69,10.66-20.34,10.66h-.97l-6.78-.97-.97,1.94c15.18,5.81,26.48,8.72,33.91,8.72,0,0,23.3,2.62,38.75-19.38,3.26-4.64,2.91-10.5,2.91-15.5v-.97c0-12.92-6.02-26.38-25.83-26.86-9.36-.23-18.61,5.83-19.7,18.14-1.1,12.4,3.79,21.15,20.35,18.41,6.56-1.09,9.21-7.13,8.72-11.62-.84-7.81-6.46-11.63-14.53-11.63v-.97l4.85-.97c3.87,0,9.73,1.58,11.62,7.75,4.61,15.04-6.16,22.84-18.41,21.31-11.61-1.44-16.47-10.82-16.47-20.35v-.97c0-5.01,1.15-11.74,6.78-17.44,5.54-5.61,12.92-6.78,19.38-6.78,15.83,0,27.92,9.69,30.03,30.03.17,1.69,0,6.78,0,6.78l-.97,6.78h.97c15.18-20.02,26.48-33.26,33.91-39.72,6.14-5.81,14.86-8.72,26.16-8.72,13.24,0,21.31,5.81,24.22,17.44,0,0,1.29,8.73.97,11.63-1.43,12.79-8.02,16.97-11.63,18.41-17.2,6.85-23.75-5.19-23.25-9.69.73-6.58,4.99-11.42,9.69-9.69,3.98,1.46,5.87,5.59,5.81,8.72-.02,1-.97,3.88-.97,3.88v1.94h.97c5.17-.32,7.75-2.91,7.75-7.75,0,0,2.24-21.55-23.25-21.31-15.5.14-30.68,10.98-45.54,32.94h.97c3.07-3.23,5.65-4.83,7.75-4.84,5.09-.04,7.75,3.88,7.75,3.88l8.72-1.94c18.92-.05,17.44,17.44,17.44,17.44,0,0-4.87-3.42-14.53-2.91-5.36.29-11.34,11.96-26.16,20.35-3.07,1.74-10.07,3.39-13.56,3.88-1.92.27-5.84.31-7.75,0-3.78-.61-14.53-4.84-14.53-4.84-2.1,1.29-8.56,2.26-19.38,2.91-14.37,0-30.19-5.17-47.47-15.5v.97c25.19,18.09,38.99,34.02,38.87,46.94-.08,8.52-.98,17.99-16.59,25.72ZM1110.25,84.81c-6.62,4.85-14.69,8.72-24.22,11.63v.97h.97c6.46-.48,13.89-4.04,22.28-10.66l.97-.97v-.97ZM991.09,47.99v-.97h-.97c-9.04,1.94-16.79,2.91-23.25,2.91v.97l4.84.97h.97c5.97,0,12.11-1.29,18.41-3.88ZM978.49,92.56v-5.81l-2.91-17.44h-1.94c1.94,6.46,2.91,13.56,2.91,21.31v3.88l1.94-1.94Z"/>
          <path class="cls-1" d="M701.54,132.71c-.12-12.92,13.68-28.85,38.87-46.94v-.97c-17.28,10.34-33.1,15.5-47.47,15.5-10.82-.64-17.28-1.61-19.38-2.91,0,0-10.75,4.23-14.53,4.84-1.91.31-5.83.27-7.75,0-3.49-.49-10.49-2.14-13.56-3.88-14.81-8.38-20.8-20.06-26.16-20.35-9.67-.52-14.53,2.91-14.53,2.91,0,0-1.48-17.49,17.44-17.44l8.72,1.94s2.66-3.91,7.75-3.88c2.1.02,4.68,1.62,7.75,4.84h.97c-14.86-21.96-30.04-32.8-45.54-32.94-25.5-.23-23.25,21.31-23.25,21.31,0,4.84,2.58,7.43,7.75,7.75h.97v-1.94s-.95-2.88-.97-3.88c-.06-3.13,1.83-7.26,5.81-8.72,4.7-1.73,8.96,3.11,9.69,9.69.5,4.49-6.05,16.53-23.25,9.69-3.6-1.43-10.2-5.62-11.62-18.41-.33-2.9.97-11.63.97-11.63,2.9-11.63,10.98-17.44,24.22-17.44,11.3,0,20.02,2.91,26.16,8.72,7.43,6.46,18.73,19.7,33.91,39.72h.97l-.97-6.78s-.17-5.1,0-6.78c2.11-20.35,14.21-30.03,30.04-30.03,6.46,0,13.83,1.17,19.38,6.78,5.64,5.7,6.78,12.43,6.78,17.44v.97c0,9.53-4.86,18.9-16.47,20.35-12.25,1.52-23.02-6.27-18.41-21.31,1.89-6.18,7.75-7.75,11.63-7.75l4.84.97v.97c-8.08,0-13.69,3.82-14.53,11.63-.49,4.49,2.16,10.54,8.72,11.62,16.55,2.75,21.45-6,20.35-18.41-1.09-12.31-10.34-18.37-19.7-18.14-19.82.48-25.83,13.95-25.83,26.86v.97c0,5.01-.35,10.86,2.91,15.5,15.45,22,38.75,19.38,38.75,19.38,7.43,0,18.73-2.9,33.91-8.72l-.97-1.94-6.78.97h-.97c-10.66,0-19.61-3.01-20.35-10.66-.94-9.84,6.15-14.9,12.6-14.53,5.31.3,6.49,4.52,13.56,7.75,3.41,1.55,15.5,2.91,15.5,2.91,9.85-2.26,18.57-5.17,26.16-8.72v-1.94s-10.31-1.7-13.56-2.91c-11.38-4.22-18.73-8.72-24.22-8.72-3.39,0-7.59,2.59-12.6,7.75,0,0-3.07-4.42-1.94-9.69,2.06-9.55,9.21-13.56,16.47-13.56l3.88.97c4.04-5.17,7.27-7.82,9.69-7.75,10.22.3,31.97,18.41,31.97,18.41v-1.94c-1.62,0-6.73-5.01-5.81-10.66.85-5.26,3.23-8.56,9.69-9.69,3.88,0,8.44,1.49,8.72,5.81.37,5.67-4.84,6.78-4.84,6.78-3.88,0-6.12-1.92-5.81-5.81.09-1.21,2.91-3.88,2.91-3.88v-.97s-10.09.15-7.88,11.63c.89,4.6,4.97,6.94,14.66,8.71h.97c15.18-11.3,29.9-19.21,44.57-20.35,2.42-.19,9.69,0,9.69,0,5.17.48,10.98,3.07,17.44,7.75,4.52,5.17,7.14,10.35,6.78,15.5-.88,12.49-6.65,15.78-14.53,16.47-12.39,1.08-15.18-7.79-14.53-12.59.98-7.3,5.56-11.49,10.66-10.66.75.12,2.9.97,2.9.97v.97c-5.81,0-10,1.78-10.66,5.81-.12.72,0,2.91,0,2.91,1.13,6.46,4.36,9.69,9.69,9.69,8.39-1.13,12.59-4.68,12.59-10.66,0-11.14-5.49-17.6-16.47-19.38h-.97c-3.23,0-7.43,1.29-12.59,3.88-14.86,7.59-22.28,15.66-22.28,24.22,0,6.46-3.78,11.96-11.63,11.63-6.49-.28-10.25-3.88-12.99-8.72,0,0-3.48,12.05-3.48,16.47,0,11.79,6.46,17.44,13.56,17.44,4.85,0,10.11-1.62,11.63-6.78.41-1.39,0-5.81,0-5.81,0,0-2.29,4.61-6.78,4.84-3.87.21-7.1-1.78-7.75-5.81-.54-3.35,1.94-7.38,6.78-7.75,7.26-.55,10.66,4.84,10.66,9.69,0,8.72-4.81,15.01-14.53,14.53-1.23-.06-4.84-.97-4.84-.97-11.38-5.67-11.14-17.62-10.66-24.22.5-6.77,2.26-12.92,6.78-18.41v-.97c-7.75,5.17-11.63,10.98-11.63,17.44,0,3.07,4.6,18.08,9.69,31,.8,2.03.66,6.64,0,8.72-1.44,4.53-5.33,5.81-7.75,5.81,0,7.43-3.83,15.29-13.56,17.44-1.65.37-6.78,0-6.78,0-3.23,0-5.17-.97-5.81-2.91v-.97c7.1-4.68,10.66-9.2,10.66-13.56l-3.88-30.03c0-5.17.64-9.04,1.94-11.62h-.97l-13.56,11.62c-20.02,13.73-30.03,27.29-30.03,40.69v4.84c2.1,12.27,7.91,18.41,17.44,18.41,3.39,0,5.97-1.62,7.75-4.84v-3.88l-5.81.97s-5.98.47-6.78-3.88c-.86-4.61,1.61-7.59,4.84-8.72h2.91c4.04,0,8.81,3.14,10.66,10.66.46,1.88.43,5.86,0,7.75-3.3,14.33-21.3,14.99-28.1,11.62-15.61-7.73-16.51-17.21-16.59-25.72ZM631.9,85.77l.97.97c8.39,6.62,15.82,10.17,22.28,10.66h.97v-.97c-9.53-2.91-17.6-6.78-24.22-11.63v.97ZM769.48,51.86h.97l4.84-.97v-.97c-6.46,0-14.21-.97-23.25-2.91h-.97v.97c6.3,2.59,12.43,3.88,18.41,3.88ZM765.6,94.5v-3.88c0-7.75.97-14.86,2.91-21.31h-1.94l-2.91,17.44v5.81l1.94,1.94Z"/>
        </g>
        <path class="cls-1" d="M911.54,146.81c-12.2-.83-19.78-5.82-22.74-14.97l-15.53-49.92c1.76-1.11,9.82,3.2,19.06,4.77,3.24,1.11,13.89,1.58,16.98,3,8.4,3.86,14.5,13.98,14.5,13.98,0,0-7.58,7.31-17.12,6.01-4.6-.63-9.06-3.66-20.12-12.79l-10.54-11.09v.55c13.5,15.72,24.12,24.3,30.51,28.29,10.14,6.34,13.87,14.98,13.87,22.19v8.88l-8.87,1.11ZM904.33,97.44v-.56c-2.22-4.07-7.59-4.36-15.53-6.1-1.94-.43-7.21-3.33-7.21-3.33,8.13,7.76,14.05,11.65,17.75,11.65h.55c2.96-.18,4.44-.74,4.44-1.66ZM894.35,116.3s-1.89-7.64-3.32-9.76c-4.21-6.22-11.65-14.09-11.65-14.09l-1.11,1.11c1.66,1.85,1.53,6.58,7.93,16.64.59.94,6.4,6.1,7.6,6.1h.55ZM871.05,160.12c-6.66,0-12.89-3.46-15.53-11.65-.48-1.47-.97-4.56-1.11-6.1-.27-3.04,16.64-59.35,16.64-59.35h1.66l12.76,42.71.55,1.66c2.13,6.47,3.24,11.65,3.33,15.53,0,10.07-6.1,15.81-18.3,17.19ZM878.26,115.75l-6.1-28.29h-.56c-3.7,17.47-5.54,27.45-5.54,29.95s2.03,5.18,6.1,7.77c4.07-2.4,6.1-5.55,6.1-9.43ZM831.11,146.81l-7.77-1.11s1.11-12.67,1.11-14.42c2.78-7.86,8.45-13.43,16.09-18.3,10.75-6.87,19.14-16.27,26.62-26.07v-.56c-14.51,16.64-18.64,19.43-24.96,22.33-1.7.78-4.19,2.31-11.8,2.47-5.91.13-12.06-9.09-12.06-9.09,3.61-6.84,10.98-10.45,16.42-12.45,6.4-2.35,17.3-2.05,22.98-3.25,3.3-.7,11.65-4.44,12.76-4.44v1.11s-11.32,37.93-16.57,50.04c-4.07,9.38-11.99,13.75-22.81,13.75ZM865.5,93.01h-1.11c-3.44,5.4-4.07,6.09-9.43,11.09-2.94,2.74-5.55,5.64-5.55,12.2h1.66c4.75-2.67,6.71-5.84,9.43-12.2,1.2-2.79,4.99-11.09,4.99-11.09ZM862.73,86.91s-10.75,2.75-16.08,4.44c-3.44,1.09-7.77,6.65-7.77,6.65,0,0,3.72.97,4.99,1.11,4.23.46,10.54-3.88,18.86-11.65v-.55Z"/>
      </g>
      <path class="cls-1" d="M1741.99,47.78c-2.19-12.68-9.02-16.47-12.7-17.69-17.58-5.81-23.4,6.6-22.64,11.05,1.12,6.52,5.66,11.1,10.25,9.1,3.89-1.7,5.53-5.93,5.28-9.05-.08-1-1.2-3.81-1.2-3.81l-.12-1.93.96-.06c5.18.01,7.91,2.44,8.2,7.28,0,0,3.52,21.38-21.95,22.66-15.48.78-31.28-9.14-47.41-30.18l.97-.06c3.26,3.04,5.93,4.48,8.03,4.38,5.09-.26,7.51-4.33,7.51-4.33l8.82,1.42c18.89-1.08,16.37-18.45,16.37-18.45,0,0-4.65,3.71-14.33,3.76-5.37.03-12.04-11.27-27.32-18.76-3.17-1.55-10.25-2.78-13.77-3.06-1.93-.15-5.85.04-7.74.46-3.74.84-14.22,5.7-14.22,5.7-1.97-1.06-7.5-1.63-16.58-1.73v-.02H136.68c-.12,0-17.39.61-19.52,1.75,0,0-10.48-4.86-14.22-5.7-1.89-.42-5.8-.61-7.74-.46-3.52.28-10.6,1.51-13.77,3.06-15.29,7.49-21.95,18.79-27.32,18.76-9.68-.06-14.33-3.76-14.33-3.76,0,0-2.52,17.37,16.37,18.45l8.82-1.42s2.42,4.07,7.51,4.33c2.09.11,4.77-1.33,8.03-4.38l.97.06c-16.13,21.04-31.93,30.96-47.41,30.18-25.46-1.28-21.94-22.66-21.94-22.66.29-4.83,3.02-7.26,8.2-7.28l.96.06-.12,1.93s-1.12,2.82-1.2,3.81c-.25,3.12,1.4,7.35,5.28,9.05,4.58,2,9.13-2.57,10.25-9.1.77-4.46-5.05-16.86-22.64-11.05-3.68,1.22-10.51,5-12.7,17.69-.5,2.88.28,11.66.28,11.66,2.21,11.78,9.92,18.06,23.14,18.85,11.28.67,20.16-1.71,26.63-7.15,7.8-6.01,19.87-18.55,36.21-37.64l.97.06-1.37,6.71s-.48,5.08-.4,6.77c.9,20.44,12.4,30.82,28.2,31.76,6.45.38,13.88-.35,19.74-5.62,5.96-5.36,7.51-12.01,7.81-17.01l.06-.97c.57-9.51-3.73-19.16-15.23-21.29-12.13-2.25-23.35,4.89-19.64,20.18,1.52,6.28,7.28,8.2,11.15,8.43l4.89-.68.06-.97c-8.06-.48-13.44-4.62-13.82-12.47-.22-4.52,2.78-10.39,9.4-11.09,16.69-1.76,21.05,7.27,19.22,19.58-1.82,12.23-11.42,17.72-20.75,16.94-19.75-1.66-24.96-15.46-24.19-28.35l.06-.97c.3-5,.24-10.9,3.82-15.3,15.68-19.28,39.62-17.76,39.62-17.76h1472.41s27.13-.98,37.36,17.76c2.72,4.98,3.53,10.3,3.82,15.3l.06.97c.77,12.89-4.44,26.69-24.19,28.35-9.33.78-18.92-4.71-20.75-16.94-1.83-12.32,2.53-21.34,19.22-19.58,6.62.7,9.61,6.57,9.4,11.09-.38,7.85-5.76,11.99-13.82,12.47l.06.97,4.89.68c3.87-.23,9.62-2.15,11.15-8.43,3.71-15.29-7.51-22.43-19.64-20.18-11.5,2.13-15.8,11.78-15.23,21.29l.06.97c.3,5,1.84,11.65,7.81,17.01,5.87,5.27,13.3,6,19.74,5.62,15.8-.94,27.3-11.33,28.2-31.76.07-1.69-.4-6.77-.4-6.77l-1.37-6.71.97-.06c16.34,19.08,28.41,31.63,36.21,37.64,6.47,5.44,15.35,7.82,26.63,7.15,13.22-.79,20.93-7.07,23.14-18.85,0,0,.77-8.79.28-11.66ZM99.7,6.14c-9.69,2.33-17.97,5.72-24.87,10.17l.06-.97,1.02-.91c8.78-6.11,16.4-9.21,22.88-9.31l.97.06-.06.97ZM1642.46,6.14l-.06-.97.97-.06c6.48.1,14.1,3.2,22.88,9.31l1.02.91.06.97c-6.9-4.44-15.19-7.83-24.87-10.17Z"/>
    </g>
  </g>
</svg>