<?xml version="1.0" encoding="UTF-8"?>
<svg id="Layer_2" data-name="Layer 2" xmlns="http://www.w3.org/2000/svg" viewBox="0 0 1689.27 99.33">
  <defs>
    <style>
      .cls-1 {
        fill: #1d1d1b;
        stroke-width: 0px;
      }
    </style>
  </defs>
  <g id="Capa_1" data-name="Capa 1">
    <path class="cls-1" d="M1688.76,61.6c-.63-2.56-2.14-4.76-4.54-6.59-3-2.05-6.41-3.41-10.23-4.07-3.82-.67-31.32-.72-34.75-.58l-.02.03h-443.55c-.87-3.36-2.24-6.46-4.14-9.3-3.61-5.58-8.77-8.77-15.49-9.59-6.71-.82-12.7.74-17.94,4.67-1.97,1.96-3.76,4.25-5.41,6.88-2.62-12.46-8.19-22.46-16.72-29.99-8.52-7.55-19.5-11.8-32.95-12.79-7.54-.66-15.25-.17-23.11,1.47-7.87,1.64-15.24,3.93-22.13,6.88-4.59,1.97-8.93,4.26-13.04,6.89-4.09,2.62-7.94,5.24-11.55,7.86-2.29-.98-4.5-1.96-6.64-2.95-2.13-.98-4.5-1.8-7.13-2.46-13.44-4.26-26.56-5-39.34-2.21-12.79,2.78-25.08,7.29-36.88,13.52-6.89,3.27-13.69,6.8-20.41,10.57-6.71,3.77-13.52,7.29-20.4,10.58h-125.39c-6.88-3.28-13.69-6.81-20.41-10.58-6.71-3.77-13.35-7.3-19.91-10.57-12.12-6.23-24.58-10.74-37.37-13.52-12.78-2.79-25.89-2.05-39.34,2.21-4.26,1.31-8.85,3.11-13.77,5.41-3.6-2.63-7.38-5.25-11.31-7.86-3.93-2.63-8.19-4.92-12.78-6.89-7.21-2.95-14.67-5.25-22.38-6.88-7.7-1.64-15.49-2.13-23.36-1.47-13.44.98-24.41,5.24-32.94,12.79-8.52,7.54-13.93,17.53-16.23,29.99-1.63-2.63-3.6-4.92-5.9-6.88-5.24-3.93-11.14-5.5-17.7-4.67-6.56.81-11.8,4.01-15.74,9.59-1.89,2.84-3.22,5.95-4.01,9.3H50.04v-.03c-3.44-.15-15.49-.17-22.83-.07-4.14.05-8.11-.02-11.93.65-3.82.66-7.23,2.02-10.23,4.07-2.39,1.84-3.91,4.03-4.54,6.59-.63,2.55-.68,5.08-.15,7.57.53,2.48,1.69,4.84,3.47,7.06,1.79,2.21,3.84,3.75,6.17,4.62,4.65,1.71,9.23,1.54,13.74-.53,4.51-2.08,7.04-5.71,7.59-10.92.08-1.7-.71-2.76-2.38-3.18-1.66-.42-2.54.21-2.62,1.92-.37,3.8-2.23,6.45-5.58,7.96-3.36,1.5-6.71,1.34-10.05-.51-1.73-1.07-3.08-2.52-4.05-4.35-.98-1.84-1.48-3.75-1.5-5.75-.03-2,.54-3.78,1.68-5.35,1.14-1.57,3.05-2.31,5.48-3.16,8.79-3.09,39.91-1.67,39.91-1.67h359.34c-.41.47-.8.97-1.15,1.51-1.48,2.29-2.37,4.75-2.7,7.38-.32,2.62,0,5.33.99,8.11.98,2.78,2.46,5,4.43,6.64,3.93,3.27,8.44,4.67,13.52,4.18,5.09-.49,8.78-3.2,11.06-8.11.66-1.65.17-2.95-1.48-3.94-1.63-.98-2.78-.66-3.44.99-1.64,3.6-4.26,5.57-7.87,5.9-3.6.32-6.71-.98-9.34-3.93-1.3-1.64-2.13-3.52-2.46-5.65-.33-2.14-.17-4.18.49-6.15.66-1.97,1.8-3.53,3.44-4.67,1.64-1.15,3.77-1.56,6.39-1.23,6.56.65,32.78,9.67,39.34,12.29,2.95,1.31,6.48,2.46,10.58,3.44,4.1.99,8.11,1.64,12.04,1.97,1.97,5.24,5.09,10.16,9.35,14.75,6.23,6.22,13.45,9.66,21.64,10.33,8.2.65,16.56-.25,25.08-2.71,8.53-2.46,16.72-5.98,24.59-10.57,7.87-4.6,14.75-8.85,20.65-12.78,3.61-2.63,7.38-5.41,11.31-8.36,3.93-2.95,7.71-6.07,11.31-9.34h67.37c1.64,1.31,3.2,2.54,4.67,3.69,1.47,1.15,3.03,2.37,4.67,3.69,7.86,5.57,16.06,10.73,24.59,15.49,8.53,4.75,17.54,8.6,27.04,11.55,11.8,3.6,24.02,5.32,36.63,5.16,12.63-.17,24.51-3.2,35.65-9.09,4.92-2.63,9.76-5.9,14.51-9.84,4-3.3,11.59-15.51,13.92-19.32,3.18,3.92,13.1,16.04,17.06,19.32,4.76,3.93,9.43,7.21,14.02,9.84,11.48,5.9,23.52,8.93,36.14,9.09,12.62.16,24.83-1.56,36.63-5.16,9.51-2.95,18.44-6.81,26.8-11.55,8.36-4.76,16.64-9.92,24.83-15.49l8.85-7.38h67.86c7.87,6.88,15.41,12.79,22.62,17.7,5.9,3.93,12.78,8.19,20.65,12.78,7.87,4.59,15.98,8.11,24.34,10.57,8.36,2.46,16.72,3.36,25.08,2.71,8.36-.66,15.66-4.1,21.88-10.33,3.93-3.93,6.88-8.85,8.85-14.75,3.93-.33,7.95-.98,12.05-1.97,4.1-.99,7.79-2.13,11.06-3.44,6.23-2.63,32.78-11.64,39.34-12.29,2.63-.33,4.75.08,6.39,1.23,1.64,1.15,2.79,2.71,3.44,4.67.66,1.96.82,4.01.49,6.15-.32,2.13-1.14,4.01-2.46,5.65-2.62,2.95-5.82,4.26-9.59,3.93-3.76-.33-6.47-2.3-8.11-5.9-.65-1.64-1.72-1.97-3.2-.99-1.48.99-1.88,2.29-1.23,3.94,2.3,4.91,5.98,7.62,11.06,8.11,5.09.49,9.59-.91,13.52-4.18,1.97-1.65,3.44-3.86,4.43-6.64.98-2.79,1.31-5.49.98-8.11-.32-2.62-1.23-5.08-2.7-7.38-.35-.54-.75-1.04-1.18-1.51h368.74s33.68.16,39.91,1.67c2.52.54,4.35,1.59,5.48,3.16,1.14,1.57,1.71,3.35,1.68,5.35-.02,2-.51,3.91-1.49,5.75-.97,1.83-2.32,3.28-4.05,4.35-3.34,1.84-6.69,2.01-10.05.51-3.35-1.5-5.21-4.16-5.58-7.96-.08-1.7-.96-2.34-2.62-1.91-1.67.42-2.46,1.48-2.38,3.18.55,5.2,3.08,8.84,7.59,10.92,4.52,2.07,9.09,2.24,13.74.53,2.33-.87,4.38-2.41,6.17-4.62,1.78-2.22,2.94-4.58,3.47-7.06.54-2.49.48-5.02-.15-7.57ZM471.89,66.42c-4.09-1.48-7.45-2.71-10.08-3.69-3.01-1.21-15.47-5.47-20.49-7.41h41.83c-.37,4.6-.13,9.2.79,13.8-3.93-.33-7.94-1.23-12.04-2.7ZM494.76,41.1c5.58-4.59,11.55-5.74,17.95-3.44,6.06,2.17,9.96,6.44,11.74,12.74h-35.62c1.02-3.51,2.99-6.62,5.93-9.3ZM488.04,55.32h37.09c.07,2.63-.22,5.51-.87,8.64-.98,4.74-3.94,7.45-8.85,8.11-3.61.65-6.39-.08-8.36-2.21-1.97-2.13-3.28-4.84-3.93-8.11v-3.44c0-1.31-.57-2.05-1.72-2.21-1.14-.17-2.04.08-2.71.74-.65.65-.98,1.31-.98,1.97v2.46c-.32,2.62-1.23,4.5-2.7,5.66-1.48,1.14-3.2,1.88-5.16,2.21-1.51-4.53-2.11-9.14-1.8-13.8ZM557.7,84.12c-2.95,1.48-6.06,2.71-9.34,3.69-3.61,1.3-7.62,2.62-12.05,3.93-4.42,1.31-8.85,2.04-13.28,2.21-4.43.16-8.68-.33-12.78-1.48-4.09-1.15-7.79-3.19-11.06-6.15-1.64-1.64-3.11-3.44-4.43-5.41-1.31-1.97-2.46-4.27-3.44-6.89,3.93-.66,6.89-2.3,8.85-4.92,2.63,3.94,5.99,6.64,10.08,8.12,4.1,1.47,8.44.57,13.03-2.71,2.95-2.3,5-5.16,6.15-8.6,1.15-3.44,1.56-6.97,1.23-10.57h18.2c-.32,3.61.09,7.04,1.23,10.33,1.15,3.27,3.04,6.06,5.66,8.36,3.61,3.27,7.21,5.08,10.82,5.41-2.95,1.64-5.9,3.2-8.85,4.67ZM580.81,70.11h-.49c-3.94,2.62-8.12,4.01-12.54,4.18-4.42.16-7.94-2.05-10.57-6.64-2.29-3.28-3.44-7.37-3.44-12.29h46.22l-19.18,14.75ZM606.38,50.44h-51.63l.49-.99c1.65-4.92,4.92-7.87,9.84-8.85,4.92-.99,8.85.81,11.8,5.41.99,1.64,2.22,2.04,3.69,1.23,1.47-.82,1.72-2.05.73-3.69-1.96-2.95-4.5-5.09-7.62-6.39-3.11-1.31-6.22-1.72-9.34-1.23-3.11.5-5.98,1.72-8.61,3.69-2.62,1.97-3.95,4.22-5.41,8.36-.15.43-.65,1.8-.98,2.46h-17.7c.33-5.25,1.23-10.33,2.7-15.25,1.47-4.92,3.86-9.34,7.13-13.28,5.58-6.56,12.29-11.15,20.16-13.77,7.87-2.63,15.98-3.69,24.34-3.2,8.36.49,16.64,2.13,24.83,4.92,8.2,2.78,15.58,6.15,22.13,10.08l8.86,5.9c-6.55,3.6-12.7,7.46-18.44,11.56-5.73,4.09-11.39,8.43-16.96,13.03ZM615.72,50.44c4.92-3.94,9.92-7.71,15-11.31,5.09-3.61,10.25-6.72,15.49-9.34,4.27,3.28,8.36,6.64,12.29,10.08,3.93,3.44,7.87,6.96,11.8,10.58h-54.58ZM678.17,50.44c-1.64-1.32-3.03-2.55-4.18-3.69-1.15-1.15-2.54-2.21-4.18-3.19-3.27-2.95-6.39-5.74-9.34-8.36-2.96-2.63-6.07-5.25-9.35-7.87,5.9-2.63,12.05-4.67,18.44-6.15,6.39-1.48,13.2-1.89,20.41-1.23,13.45.98,26.15,4.75,38.11,11.31,11.97,6.55,24.02,12.95,36.14,19.18h-86.05ZM828.65,63.23c-6.22,8.52-14.17,15-23.85,19.42-9.67,4.43-19.75,6.8-30.24,7.13-16.39.65-32.13-2.46-47.21-9.34-15.07-6.88-29.17-15.25-42.29-25.08h90.47c8.53,3.61,17.38,6.15,26.56,7.62,9.18,1.48,18.53.74,28.03-2.21-.65,1.3-1.15,2.13-1.48,2.46ZM810.7,58.31c-6.39-.33-12.7-1.31-18.93-2.95h38.35c-6.55,2.29-13.04,3.27-19.43,2.95ZM1159.09,42.57c2.3-2.3,4.92-3.93,7.87-4.92,2.95-.99,5.98-1.23,9.09-.74,3.12.49,5.99,1.88,8.61,4.18,2.93,2.69,4.96,5.79,6.07,9.3h-35.84c.74-3.15,2.14-5.76,4.21-7.83ZM888.15,55.36c-6.22,1.64-12.54,2.62-18.93,2.95-6.39.32-13.03-.66-19.92-2.95h38.85ZM952.56,80.44c-15.07,6.88-30.98,10-47.69,9.34-10.16-.33-20.08-2.7-29.76-7.13-9.66-4.42-17.78-10.9-24.34-19.42-.33-.33-.82-1.15-1.48-2.46,9.84,2.95,19.27,3.69,28.27,2.21,9.03-1.47,17.79-4.02,26.31-7.62h90.97c-13.11,9.83-27.21,18.2-42.29,25.08ZM1001.25,50.44h-86.05c12.13-6.23,24.26-12.63,36.39-19.18,12.13-6.56,24.75-10.33,37.86-11.31,7.55-.66,14.43-.25,20.66,1.23,6.23,1.48,12.46,3.52,18.68,6.15-6.22,4.92-12.62,10.33-19.18,16.23-1.31.98-2.62,2.04-3.93,3.19-1.31,1.14-2.79,2.37-4.43,3.69ZM1009.11,50.44c3.94-3.61,7.87-7.13,11.8-10.58,3.93-3.44,8.04-6.81,12.29-10.08,5.58,2.62,10.82,5.73,15.74,9.34,4.92,3.6,9.83,7.38,14.75,11.31h-54.59ZM1056.32,37.41c-5.57-4.1-11.63-7.95-18.2-11.56l8.85-5.9c6.56-3.93,13.94-7.3,22.13-10.08,8.2-2.79,16.48-4.43,24.83-4.92,8.36-.49,16.4.57,24.1,3.2,7.71,2.62,14.35,7.21,19.91,13.77,3.61,3.93,6.07,8.36,7.38,13.28,1.31,4.9,2.29,9.97,2.95,15.2h-1.87v.04h-16.32c0-.66-.89-6.49-5.9-10.82-2.48-2.14-5.57-3.19-8.85-3.69-3.28-.49-6.47-.08-9.59,1.23-3.11,1.31-5.66,3.44-7.62,6.39-.98,1.63-.74,2.86.74,3.69,1.48.81,2.71.41,3.69-1.23,2.95-4.59,6.88-6.39,11.8-5.41,4.92.98,8.36,3.93,10.32,8.85v.99h-51.63c-5.57-4.6-11.14-8.94-16.72-13.03ZM1098.61,70.11c-3.27-2.63-6.47-5.09-9.59-7.38-3.11-2.3-6.15-4.75-9.09-7.38h45.73c0,4.59-.99,8.68-2.95,12.29-2.62,4.59-6.22,6.8-10.82,6.64-4.58-.17-13.28-4.18-13.28-4.18ZM1184.66,80.93c-1.31,1.97-2.78,3.76-4.42,5.41-3.28,2.95-6.96,5-11.07,6.15-4.1,1.15-8.36,1.64-12.79,1.48-4.42-.17-8.85-.91-13.28-2.21-4.42-1.31-8.43-2.63-12.04-3.93-3.28-.98-6.4-2.21-9.34-3.69-2.95-1.47-5.9-3.03-8.85-4.67,3.93-.33,7.71-2.14,11.31-5.41,2.63-2.3,4.43-5.09,5.41-8.36.99-3.28,1.48-6.72,1.48-10.33h17.7c-.65,8.19,1.8,14.59,7.37,19.18,4.6,3.27,9.02,4.18,13.28,2.71,4.26-1.47,7.54-4.18,9.83-8.12,1.64,2.62,4.6,4.26,8.85,4.92-.98,2.62-2.13,4.92-3.44,6.89ZM1190.07,69.13c-4.59-.66-7.38-3.28-8.36-7.87.33-.33.49-1.15.49-2.46,0-.66-.32-1.31-.98-1.97-.65-.66-1.63-.91-2.95-.74-1.31.16-1.97.9-1.97,2.21,0,1.64.17,2.78.49,3.44-.65,3.27-2.05,5.98-4.18,8.11-2.12,2.13-4.99,2.87-8.6,2.21-4.59-.66-7.45-3.37-8.6-8.11-.75-3.13-1.11-6.01-1.08-8.64h37.35c.44,4.67-.08,9.27-1.59,13.8ZM1217.61,62.73c-2.62.98-5.98,2.21-10.08,3.69-4.09,1.47-8.11,2.37-12.05,2.7,1.23-4.6,1.58-9.2,1.09-13.8h42.02c-5.09,1.94-17.96,6.2-20.98,7.41Z"/>
  </g>
</svg>