<?xml version="1.0" encoding="utf-8"?>
<!-- Generator: Adobe Illustrator 28.4.1, SVG Export Plug-In . SVG Version: 6.00 Build 0)  -->
<svg version="1.1" id="Layer_2_00000021103790879935262160000015274583515648006545_"
	 xmlns="http://www.w3.org/2000/svg" xmlns:xlink="http://www.w3.org/1999/xlink" x="0px" y="0px" viewBox="0 0 1742.2 160.1"
	 style="enable-background:new 0 0 1742.2 160.1;" xml:space="preserve">
<style type="text/css">
	.st0{fill:#FFFFFF;}
</style>
<g id="Capa_1">
	<g>
		<g>
			<g>
				<path class="st0" d="M1024,158.4c-6.8,3.4-24.8,2.7-28.1-11.6c-0.4-1.9-0.5-5.9,0-7.8c1.8-7.5,6.6-10.7,10.7-10.7h2.9
					c3.2,1.1,5.7,4.1,4.8,8.7c-0.8,4.4-6.8,3.9-6.8,3.9l-5.8-1v3.9c1.8,3.2,4.4,4.8,7.8,4.8c9.5,0,15.3-6.1,17.4-18.4v-4.8
					c0-13.4-10-27-30-40.7l-13.6-11.6h-1c1.3,2.6,1.9,6.5,1.9,11.6l-3.9,30c0,4.4,3.5,8.9,10.7,13.6v1c-0.6,1.9-2.6,2.9-5.8,2.9
					c0,0-5.1,0.4-6.8,0c-9.7-2.1-13.6-10-13.6-17.4c-2.4,0-6.3-1.3-7.8-5.8c-0.7-2.1-0.8-6.7,0-8.7c5.1-12.9,9.7-27.9,9.7-31
					c0-6.5-3.9-12.3-11.6-17.4v1c4.5,5.5,6.3,11.6,6.8,18.4c0.5,6.6,0.7,18.6-10.7,24.2c0,0-3.6,0.9-4.8,1
					c-9.7,0.5-14.5-5.8-14.5-14.5c0-4.8,3.4-10.2,10.7-9.7c4.8,0.4,7.3,4.4,6.8,7.8c-0.7,4-3.9,6-7.8,5.8c-4.5-0.2-6.8-4.8-6.8-4.8
					s-0.4,4.4,0,5.8c1.5,5.2,6.8,6.8,11.6,6.8c7.1,0,13.6-5.7,13.6-17.4c0-4.4-3.5-16.5-3.5-16.5c-2.7,4.8-6.5,8.4-13,8.7
					c-7.8,0.3-11.6-5.2-11.6-11.6c0-8.6-7.4-16.6-22.3-24.2c-5.2-2.6-9.4-3.9-12.6-3.9h-1c-11,1.8-16.5,8.2-16.5,19.4
					c0,6,4.2,9.5,12.6,10.7c5.3,0,8.6-3.2,9.7-9.7c0,0,0.1-2.2,0-2.9c-0.7-4-4.8-5.8-10.7-5.8v-1c0,0,2.2-0.8,2.9-1
					c5.1-0.8,9.7,3.4,10.7,10.7c0.6,4.8-2.2,13.7-14.5,12.6c-7.9-0.7-13.7-4-14.5-16.5c-0.4-5.2,2.3-10.3,6.8-15.5
					c6.5-4.7,12.3-7.3,17.4-7.8c0,0,7.3-0.2,9.7,0c14.7,1.1,29.4,9,44.6,20.3h1c9.7-1.8,13.8-4.1,14.7-8.7
					c2.2-11.5-7.9-11.6-7.9-11.6v1c0,0,2.8,2.7,2.9,3.9c0.3,3.9-1.9,5.8-5.8,5.8c0,0-5.2-1.1-4.8-6.8c0.3-4.3,4.8-5.8,8.7-5.8
					c6.5,1.1,8.8,4.4,9.7,9.7c0.9,5.7-4.2,10.7-5.8,10.7v1.9c0,0,21.8-18.1,32-18.4c2.4-0.1,5.7,2.6,9.7,7.8l3.9-1
					c7.3,0,14.4,4,16.5,13.6c1.1,5.3-1.9,9.7-1.9,9.7c-5-5.2-9.2-7.8-12.6-7.8c-5.5,0-12.8,4.5-24.2,8.7c-3.2,1.2-13.6,2.9-13.6,2.9
					v1.9c7.6,3.5,16.3,6.5,26.2,8.7c0,0,12.1-1.3,15.5-2.9c7.1-3.2,8.3-7.5,13.6-7.8c6.4-0.4,13.5,4.7,12.6,14.5
					c-0.7,7.6-9.7,10.7-20.3,10.7h-1l-6.8-1l-1,1.9c15.2,5.8,26.5,8.7,33.9,8.7c0,0,23.3,2.6,38.8-19.4c3.3-4.6,2.9-10.5,2.9-15.5
					v-1c0-12.9-6-26.4-25.8-26.9c-9.4-0.2-18.6,5.8-19.7,18.1c-1.1,12.4,3.8,21.2,20.3,18.4c6.6-1.1,9.2-7.1,8.7-11.6
					c-0.8-7.8-6.5-11.6-14.5-11.6v-1l4.8-1c3.9,0,9.7,1.6,11.6,7.8c4.6,15-6.2,22.8-18.4,21.3c-11.6-1.4-16.5-10.8-16.5-20.3v-1
					c0-5,1.2-11.7,6.8-17.4c5.5-5.6,12.9-6.8,19.4-6.8c15.8,0,27.9,9.7,30,30c0.2,1.7,0,6.8,0,6.8l-1,6.8h1
					c15.2-20,26.5-33.3,33.9-39.7c6.1-5.8,14.9-8.7,26.2-8.7c13.2,0,21.3,5.8,24.2,17.4c0,0,1.3,8.7,1,11.6
					c-1.4,12.8-8,17-11.6,18.4c-17.2,6.8-23.8-5.2-23.2-9.7c0.7-6.6,5-11.4,9.7-9.7c4,1.5,5.9,5.6,5.8,8.7c0,1-1,3.9-1,3.9v1.9h1
					c5.2-0.3,7.8-2.9,7.8-7.8c0,0,2.2-21.5-23.2-21.3c-15.5,0.1-30.7,11-45.5,32.9h1c3.1-3.2,5.7-4.8,7.8-4.8c5.1,0,7.8,3.9,7.8,3.9
					l8.7-1.9c18.9,0,17.4,17.4,17.4,17.4s-4.9-3.4-14.5-2.9c-5.4,0.3-11.3,12-26.2,20.3c-3.1,1.7-10.1,3.4-13.6,3.9
					c-1.9,0.3-5.8,0.3-7.8,0c-3.8-0.6-14.5-4.8-14.5-4.8c-2.1,1.3-8.6,2.3-19.4,2.9c-14.4,0-30.2-5.2-47.5-15.5v1
					c25.2,18.1,39,34,38.9,46.9C1040.6,141.3,1039.7,150.8,1024,158.4L1024,158.4z M1110.2,84.8c-6.6,4.8-14.7,8.7-24.2,11.6v1h1
					c6.5-0.5,13.9-4,22.3-10.7l1-1V84.8z M991.1,48v-1h-1c-9,1.9-16.8,2.9-23.2,2.9v1l4.8,1h1C978.7,51.9,984.8,50.6,991.1,48z
					 M978.5,92.6v-5.8l-2.9-17.4h-1.9c1.9,6.5,2.9,13.6,2.9,21.3v3.9C976.5,94.5,978.5,92.6,978.5,92.6z"/>
				<path class="st0" d="M701.5,132.7c-0.1-12.9,13.7-28.8,38.9-46.9v-1c-17.3,10.3-33.1,15.5-47.5,15.5
					c-10.8-0.6-17.3-1.6-19.4-2.9c0,0-10.8,4.2-14.5,4.8c-1.9,0.3-5.8,0.3-7.8,0c-3.5-0.5-10.5-2.1-13.6-3.9
					C622.9,90,616.9,78.3,611.6,78c-9.7-0.5-14.5,2.9-14.5,2.9s-1.5-17.5,17.4-17.4l8.7,1.9c0,0,2.7-3.9,7.8-3.9
					c2.1,0,4.7,1.6,7.8,4.8h1c-14.9-22-30-32.8-45.5-32.9c-25.5-0.2-23.2,21.3-23.2,21.3c0,4.8,2.6,7.4,7.8,7.8h1v-1.9
					c0,0-1-2.9-1-3.9c-0.1-3.1,1.8-7.3,5.8-8.7c4.7-1.7,9,3.1,9.7,9.7c0.5,4.5-6,16.5-23.2,9.7c-3.6-1.4-10.2-5.6-11.6-18.4
					c-0.3-2.9,1-11.6,1-11.6c2.9-11.6,11-17.4,24.2-17.4c11.3,0,20,2.9,26.2,8.7c7.4,6.5,18.7,19.7,33.9,39.7h1l-1-6.8
					c0,0-0.2-5.1,0-6.8c2.1-20.3,14.2-30,30-30c6.5,0,13.8,1.2,19.4,6.8c5.6,5.7,6.8,12.4,6.8,17.4v1c0,9.5-4.9,18.9-16.5,20.3
					c-12.2,1.5-23-6.3-18.4-21.3c1.9-6.2,7.8-7.8,11.6-7.8l4.8,1v1c-8.1,0-13.7,3.8-14.5,11.6c-0.5,4.5,2.2,10.5,8.7,11.6
					c16.5,2.8,21.5-6,20.3-18.4c-1.1-12.3-10.3-18.4-19.7-18.1c-19.8,0.5-25.8,14-25.8,26.9v1c0,5-0.3,10.9,2.9,15.5
					c15.5,22,38.8,19.4,38.8,19.4c7.4,0,18.7-2.9,33.9-8.7l-1-1.9l-6.8,1h-1c-10.7,0-19.6-3-20.3-10.7c-0.9-9.8,6.2-14.9,12.6-14.5
					c5.3,0.3,6.5,4.5,13.6,7.8c3.4,1.6,15.5,2.9,15.5,2.9c9.8-2.3,18.6-5.2,26.2-8.7v-1.9c0,0-10.3-1.7-13.6-2.9
					c-11.4-4.2-18.7-8.7-24.2-8.7c-3.4,0-7.6,2.6-12.6,7.8c0,0-3.1-4.4-1.9-9.7c2.1-9.5,9.2-13.6,16.5-13.6l3.9,1
					c4-5.2,7.3-7.8,9.7-7.8c10.2,0.3,32,18.4,32,18.4v-1.9c-1.6,0-6.7-5-5.8-10.7c0.8-5.3,3.2-8.6,9.7-9.7c3.9,0,8.4,1.5,8.7,5.8
					c0.4,5.7-4.8,6.8-4.8,6.8c-3.9,0-6.1-1.9-5.8-5.8c0.1-1.2,2.9-3.9,2.9-3.9v-1c0,0-10.1,0.1-7.9,11.6c0.9,4.6,5,6.9,14.7,8.7h1
					c15.2-11.3,29.9-19.2,44.6-20.4c2.4-0.2,9.7,0,9.7,0c5.2,0.5,11,3.1,17.4,7.8c4.5,5.2,7.1,10.4,6.8,15.5
					c-0.9,12.5-6.7,15.8-14.5,16.5c-12.4,1.1-15.2-7.8-14.5-12.6c1-7.3,5.6-11.5,10.7-10.7c0.8,0.1,2.9,1,2.9,1v1
					c-5.8,0-10,1.8-10.7,5.8c-0.1,0.7,0,2.9,0,2.9c1.1,6.5,4.4,9.7,9.7,9.7c8.4-1.1,12.6-4.7,12.6-10.7c0-11.1-5.5-17.6-16.5-19.4
					h-1c-3.2,0-7.4,1.3-12.6,3.9c-14.9,7.6-22.3,15.7-22.3,24.2c0,6.5-3.8,12-11.6,11.6c-6.5-0.3-10.2-3.9-13-8.7
					c0,0-3.5,12.1-3.5,16.5c0,11.8,6.5,17.4,13.6,17.4c4.8,0,10.1-1.6,11.6-6.8c0.4-1.4,0-5.8,0-5.8s-2.3,4.6-6.8,4.8
					c-3.9,0.2-7.1-1.8-7.8-5.8c-0.5-3.3,1.9-7.4,6.8-7.8c7.3-0.6,10.7,4.8,10.7,9.7c0,8.7-4.8,15-14.5,14.5c-1.2-0.1-4.8-1-4.8-1
					c-11.4-5.7-11.1-17.6-10.7-24.2c0.5-6.8,2.3-12.9,6.8-18.4v-1c-7.8,5.2-11.6,11-11.6,17.4c0,3.1,4.6,18.1,9.7,31
					c0.8,2,0.7,6.6,0,8.7c-1.4,4.5-5.3,5.8-7.8,5.8c0,7.4-3.8,15.3-13.6,17.4c-1.7,0.4-6.8,0-6.8,0c-3.2,0-5.2-1-5.8-2.9v-1
					c7.1-4.7,10.7-9.2,10.7-13.6l-3.9-30c0-5.2,0.6-9,1.9-11.6h-1l-13.6,11.6c-20,13.7-30,27.3-30,40.7v4.8
					c2.1,12.3,7.9,18.4,17.4,18.4c3.4,0,6-1.6,7.8-4.8V140l-5.8,1c0,0-6,0.5-6.8-3.9c-0.9-4.6,1.6-7.6,4.8-8.7h2.9
					c4,0,8.8,3.1,10.7,10.7c0.5,1.9,0.4,5.9,0,7.8c-3.3,14.3-21.3,15-28.1,11.6C702.6,150.7,701.7,141.2,701.5,132.7L701.5,132.7z
					 M631.9,85.8l1,1c8.4,6.6,15.8,10.2,22.3,10.7h1v-1c-9.5-2.9-17.6-6.8-24.2-11.6V85.8z M769.5,51.9h1l4.8-1v-1
					c-6.5,0-14.2-1-23.2-2.9h-1v1C757.4,50.6,763.5,51.9,769.5,51.9z M765.6,94.5v-3.9c0-7.8,1-14.9,2.9-21.3h-1.9l-2.9,17.4v5.8
					C763.7,92.6,765.6,94.5,765.6,94.5z"/>
			</g>
			<path class="st0" d="M911.5,146.8c-12.2-0.8-19.8-5.8-22.7-15l-15.5-49.9c1.8-1.1,9.8,3.2,19.1,4.8c3.2,1.1,13.9,1.6,17,3
				c8.4,3.9,14.5,14,14.5,14s-7.6,7.3-17.1,6c-4.6-0.6-9.1-3.7-20.1-12.8L876,85.8v0.6c13.5,15.7,24.1,24.3,30.5,28.3
				c10.1,6.3,13.9,15,13.9,22.2v8.9L911.5,146.8L911.5,146.8z M904.3,97.4v-0.6c-2.2-4.1-7.6-4.4-15.5-6.1c-1.9-0.4-7.2-3.3-7.2-3.3
				c8.1,7.8,14,11.7,17.8,11.7h0.5C902.8,98.9,904.3,98.4,904.3,97.4L904.3,97.4z M894.3,116.3c0,0-1.9-7.6-3.3-9.8
				c-4.2-6.2-11.7-14.1-11.7-14.1l-1.1,1.1c1.7,1.8,1.5,6.6,7.9,16.6c0.6,0.9,6.4,6.1,7.6,6.1L894.3,116.3L894.3,116.3z M871,160.1
				c-6.7,0-12.9-3.5-15.5-11.6c-0.5-1.5-1-4.6-1.1-6.1C854.1,139.3,871,83,871,83h1.7l12.8,42.7l0.5,1.7c2.1,6.5,3.2,11.6,3.3,15.5
				C889.3,153,883.2,158.7,871,160.1L871,160.1z M878.3,115.8l-6.1-28.3h-0.6c-3.7,17.5-5.5,27.5-5.5,30s2,5.2,6.1,7.8
				C876.2,122.8,878.3,119.6,878.3,115.8z M831.1,146.8l-7.8-1.1c0,0,1.1-12.7,1.1-14.4c2.8-7.9,8.5-13.4,16.1-18.3
				c10.8-6.9,19.1-16.3,26.6-26.1v-0.6c-14.5,16.6-18.6,19.4-25,22.3c-1.7,0.8-4.2,2.3-11.8,2.5c-5.9,0.1-12.1-9.1-12.1-9.1
				c3.6-6.8,11-10.4,16.4-12.4c6.4-2.3,17.3-2.1,23-3.2c3.3-0.7,11.7-4.4,12.8-4.4V83c0,0-11.3,37.9-16.6,50
				C849.9,142.5,841.9,146.8,831.1,146.8L831.1,146.8z M865.5,93h-1.1c-3.4,5.4-4.1,6.1-9.4,11.1c-2.9,2.7-5.5,5.6-5.5,12.2h1.7
				c4.8-2.7,6.7-5.8,9.4-12.2C861.7,101.3,865.5,93,865.5,93L865.5,93z M862.7,86.9c0,0-10.8,2.8-16.1,4.4c-3.4,1.1-7.8,6.7-7.8,6.7
				s3.7,1,5,1.1c4.2,0.5,10.5-3.9,18.9-11.7L862.7,86.9L862.7,86.9z"/>
		</g>
		<path class="st0" d="M1742,47.8c-2.2-12.7-9-16.5-12.7-17.7c-17.6-5.8-23.4,6.6-22.6,11.1c1.1,6.5,5.7,11.1,10.2,9.1
			c3.9-1.7,5.5-5.9,5.3-9c-0.1-1-1.2-3.8-1.2-3.8l-0.1-1.9l1-0.1c5.2,0,7.9,2.4,8.2,7.3c0,0,3.5,21.4-21.9,22.7
			c-15.5,0.8-31.3-9.1-47.4-30.2l1-0.1c3.3,3,5.9,4.5,8,4.4c5.1-0.3,7.5-4.3,7.5-4.3l8.8,1.4c18.9-1.1,16.4-18.5,16.4-18.5
			s-4.7,3.7-14.3,3.8c-5.4,0-12-11.3-27.3-18.8c-3.2-1.5-10.2-2.8-13.8-3.1c-1.9-0.2-5.8,0-7.7,0.5c-3.7,0.8-14.2,5.7-14.2,5.7
			c-2-1.1-7.5-1.6-16.6-1.7v0H136.7c-0.1,0-17.4,0.6-19.5,1.8c0,0-10.5-4.9-14.2-5.7C101,0.1,97.1-0.1,95.2,0
			c-3.5,0.3-10.6,1.5-13.8,3.1c-15.3,7.5-22,18.8-27.3,18.8c-9.7-0.1-14.3-3.8-14.3-3.8s-2.5,17.4,16.4,18.5l8.8-1.4
			c0,0,2.4,4.1,7.5,4.3c2.1,0.1,4.8-1.3,8-4.4l1,0.1c-16.1,21-31.9,31-47.4,30.2C8.6,64,12.1,42.7,12.1,42.7c0.3-4.8,3-7.3,8.2-7.3
			l1,0.1l-0.1,1.9c0,0-1.1,2.8-1.2,3.8c-0.2,3.1,1.4,7.3,5.3,9c4.6,2,9.1-2.6,10.2-9.1c0.8-4.5-5-16.9-22.6-11
			c-3.7,1.2-10.5,5-12.7,17.7c-0.5,2.9,0.3,11.7,0.3,11.7c2.2,11.8,9.9,18.1,23.1,18.9c11.3,0.7,20.2-1.7,26.6-7.2
			c7.8-6,19.9-18.5,36.2-37.6l1,0.1L86,40.3c0,0-0.5,5.1-0.4,6.8c0.9,20.4,12.4,30.8,28.2,31.8c6.4,0.4,13.9-0.3,19.7-5.6
			c6-5.4,7.5-12,7.8-17l0.1-1c0.6-9.5-3.7-19.2-15.2-21.3c-12.1-2.2-23.3,4.9-19.6,20.2c1.5,6.3,7.3,8.2,11.2,8.4l4.9-0.7l0.1-1
			c-8.1-0.5-13.4-4.6-13.8-12.5c-0.2-4.5,2.8-10.4,9.4-11.1c16.7-1.8,21,7.3,19.2,19.6c-1.8,12.2-11.4,17.7-20.8,16.9
			c-19.8-1.7-25-15.5-24.2-28.3l0.1-1c0.3-5,0.2-10.9,3.8-15.3C112.1,9.9,136,11.4,136,11.4h1472.4c0,0,27.1-1,37.4,17.8
			c2.7,5,3.5,10.3,3.8,15.3l0.1,1c0.8,12.9-4.4,26.7-24.2,28.3c-9.3,0.8-18.9-4.7-20.8-16.9c-1.8-12.3,2.5-21.3,19.2-19.6
			c6.6,0.7,9.6,6.6,9.4,11.1c-0.4,7.8-5.8,12-13.8,12.5l0.1,1l4.9,0.7c3.9-0.2,9.6-2.2,11.2-8.4c3.7-15.3-7.5-22.4-19.6-20.2
			c-11.5,2.1-15.8,11.8-15.2,21.3l0.1,1c0.3,5,1.8,11.6,7.8,17c5.9,5.3,13.3,6,19.7,5.6c15.8-0.9,27.3-11.3,28.2-31.8
			c0.1-1.7-0.4-6.8-0.4-6.8l-1.4-6.7l1-0.1c16.3,19.1,28.4,31.6,36.2,37.6c6.5,5.4,15.3,7.8,26.6,7.2c13.2-0.8,20.9-7.1,23.1-18.8
			C1741.8,59.4,1742.5,50.6,1742,47.8L1742,47.8z M99.7,6.1c-9.7,2.3-18,5.7-24.9,10.2l0.1-1l1-0.9c8.8-6.1,16.4-9.2,22.9-9.3l1,0.1
			L99.7,6.1L99.7,6.1z M1642.5,6.1l-0.1-1l1-0.1c6.5,0.1,14.1,3.2,22.9,9.3l1,0.9l0.1,1C1660.4,11.9,1652.1,8.5,1642.5,6.1
			L1642.5,6.1z"/>
	</g>
</g>
</svg>
