<?xml version="1.0" encoding="utf-8"?>
<!-- Generator: Adobe Illustrator 28.4.1, SVG Export Plug-In . SVG Version: 6.00 Build 0)  -->
<svg version="1.1" id="Layer_2_00000152257120203368228780000000997304094880096902_"
	 xmlns="http://www.w3.org/2000/svg" xmlns:xlink="http://www.w3.org/1999/xlink" x="0px" y="0px" viewBox="0 0 341.3 231.2"
	 style="enable-background:new 0 0 341.3 231.2;" xml:space="preserve">
<style type="text/css">
	.st0{fill:none;stroke:#FFFFFF;stroke-width:7;stroke-miterlimit:10;}
	.st1{fill:none;stroke:#FFFFFF;stroke-width:7;stroke-linejoin:round;stroke-miterlimit:10;}
</style>
<rect x="1.1" y="1.1" class="st0" width="339" height="229"/>
<path class="st0" d="M216.4,115.8C261,147.5,340.3,207,340.3,230L1.1,230.2c0-22.3,79.6-82.4,124.4-114.4"/>
<path class="st0" d="M155.2,136.1c9.7,5.9,21.6,7,31.5,0.1c0,0,153.4-103.9,153.3-134.9L1.1,1.9C1.1,31.3,155.2,136.1,155.2,136.1
	L155.2,136.1z"/>
<path class="st1" d="M171.1,127l-1-1.1c-0.7-0.7-17-18-18.3-29.5c-0.6-5.5,1.8-11.6,7.7-12.6c0.3-0.1,0.7-0.1,1.1-0.1
	c5.8-0.4,10.1,4.2,12,6.8c1.7-2,5-5.1,9.2-5.8c1.1-0.2,2.2-0.2,3.3,0c2.6,0.4,4.6,1.6,6,3.6c2.1,3,2.2,7,1.7,9.7
	c-2.3,11.3-19.9,27.3-20.6,28L171.1,127z"/>
</svg>
