<?xml version="1.0" encoding="UTF-8"?>
<svg id="Layer_2" data-name="Layer 2" xmlns="http://www.w3.org/2000/svg" viewBox="0 0 341.32 231.2">
  <defs>
    <style>
      .cls-1 {
        stroke-width: 2px;
      }

      .cls-1, .cls-2 {
        fill: none;
        stroke: #000;
        stroke-miterlimit: 10;
      }
    </style>
  </defs>
  <g id="Layer_2-2" data-name="Layer 2">
    <g>
      <rect class="cls-1" x="1.07" y="1.1" width="339" height="229"/>
      <path class="cls-1" d="M216.44,115.78c44.61,31.69,123.87,91.23,123.88,114.22l-339.2.2c-.01-22.29,79.63-82.39,124.4-114.41"/>
      <path class="cls-1" d="M155.2,136.14c9.66,5.89,21.55,7.03,31.54.13,0,0,153.35-103.89,153.33-134.9L1.07,1.89c.02,29.37,154.13,134.25,154.13,134.25Z"/>
      <path class="cls-2" d="M171.13,127.02l-1.01-1.06c-.69-.73-16.96-18.05-18.32-29.51-.65-5.49,1.79-11.56,7.71-12.57.34-.06.69-.1,1.05-.12,5.81-.38,10.06,4.15,12.03,6.79,1.73-1.98,5.03-5.06,9.24-5.78,1.09-.18,2.19-.2,3.27-.04,2.55.38,4.64,1.62,6.04,3.6,2.09,2.96,2.24,6.97,1.69,9.74-2.26,11.32-19.87,27.29-20.62,27.97l-1.09.98ZM160.02,86.84c-4.91.83-5.57,6.42-5.24,9.25,1.06,8.95,12.95,22.74,16.51,26.71,3.88-3.67,16.84-16.49,18.6-25.31.43-2.16.34-5.24-1.2-7.42-.93-1.31-2.28-2.11-4.03-2.36-.76-.11-1.55-.1-2.33.03-4.94.84-8.57,6.15-8.6,6.2l-1.36,2.01-1.19-2.11c-.04-.07-4.33-7.49-10.42-7.08-.26.02-.51.05-.74.09Z"/>
    </g>
  </g>
</svg>